<svg xmlns="http://www.w3.org/2000/svg" xmlns:xlink="http://www.w3.org/1999/xlink" width="602" height="312" viewBox="0 0 602 312" fill="none"><defs><linearGradient id="linear_0" x1="50%" y1="0%" x2="51%" y2="100%" gradientUnits="objectBoundingBox"><stop offset="0" stop-color="#FFFFFF" stop-opacity="0" /><stop offset="1" stop-color="#FFFFFF" stop-opacity="0.1" /></linearGradient><filter id="filter_16" x="-8" y="-8" width="170" height="54" filterUnits="userSpaceOnUse" color-interpolation-filters="sRGB"><feFlood flood-opacity="0" result="BackgroundImageFix"/>
          <feColorMatrix in="SourceAlpha" type="matrix" values="0 0 0 0 0 0 0 0 0 0 0 0 0 0 0 0 0 0 127 0"/>
          <feOffset dx="2" dy="0"/>
          <feGaussianBlur stdDeviation="4"/>
          <feColorMatrix type="matrix" values="0 0 0 0 0 0 0 0 0 0 0 0 0 0 0 0 0 0 0.25 0"/>
          <feBlend mode="normal" in2="BackgroundImageFix" result="effect1_Shadow"/>
          <feBlend mode="normal" in="SourceGraphic" in2="effect1_Shadow" result="shape"/></filter><filter id="filter_18" x="8" y="1" width="120" height="36" filterUnits="userSpaceOnUse" color-interpolation-filters="sRGB"><feFlood flood-opacity="0" result="BackgroundImageFix"/>
          <feColorMatrix in="SourceAlpha" type="matrix" values="0 0 0 0 0 0 0 0 0 0 0 0 0 0 0 0 0 0 127 0"/>
          <feOffset dx="0" dy="2"/>
          <feGaussianBlur stdDeviation="2"/>
          <feColorMatrix type="matrix" values="0 0 0 0 0 0 0 0 0 0 0 0 0 0 0 0 0 0 0.4 0"/>
          <feBlend mode="normal" in2="BackgroundImageFix" result="effect1_Shadow"/>
          <feBlend mode="normal" in="SourceGraphic" in2="effect1_Shadow" result="shape"/></filter><filter id="filter_84" x="37" y="44" width="56" height="36" filterUnits="userSpaceOnUse" color-interpolation-filters="sRGB"><feFlood flood-opacity="0" result="BackgroundImageFix"/>
          <feColorMatrix in="SourceAlpha" type="matrix" values="0 0 0 0 0 0 0 0 0 0 0 0 0 0 0 0 0 0 127 0"/>
          <feOffset dx="0" dy="2"/>
          <feGaussianBlur stdDeviation="2"/>
          <feColorMatrix type="matrix" values="0 0 0 0 0 0 0 0 0 0 0 0 0 0 0 0 0 0 0.4 0"/>
          <feBlend mode="normal" in2="BackgroundImageFix" result="effect1_Shadow"/>
          <feBlend mode="normal" in="SourceGraphic" in2="effect1_Shadow" result="shape"/></filter><filter id="filter_86" x="89" y="44" width="29" height="36" filterUnits="userSpaceOnUse" color-interpolation-filters="sRGB"><feFlood flood-opacity="0" result="BackgroundImageFix"/>
          <feColorMatrix in="SourceAlpha" type="matrix" values="0 0 0 0 0 0 0 0 0 0 0 0 0 0 0 0 0 0 127 0"/>
          <feOffset dx="0" dy="2"/>
          <feGaussianBlur stdDeviation="2"/>
          <feColorMatrix type="matrix" values="0 0 0 0 0 0 0 0 0 0 0 0 0 0 0 0 0 0 0.4 0"/>
          <feBlend mode="normal" in2="BackgroundImageFix" result="effect1_Shadow"/>
          <feBlend mode="normal" in="SourceGraphic" in2="effect1_Shadow" result="shape"/></filter></defs><g opacity="1" transform="translate(1 8)  rotate(0 300 152)"><g opacity="1" transform="translate(0 0)  rotate(0 300 141.5)"><path id="矩形" fill-rule="evenodd" fill="url(#linear_0)" transform="translate(0 19)  rotate(0 300 132)" opacity="1" d="M24,407L576,407C589.25,407 600,396.25 600,383L600,24C600,10.75 589.25,0 576,0L24,0C10.75,0 0,10.75 0,24L0,383C0,396.25 10.75,407 24,407Z " /><path  id="路径" style="stroke:#FFFFFF; stroke-width:2; stroke-opacity:0.4; stroke-dasharray:0 0" transform="translate(0 18.5)  rotate(0 12 132)" d="M24,0L24,0C17.63,0 11.53,2.53 7.03,7.03C2.53,11.53 0,17.63 0,24L0,383C0,389.37 2.53,395.47 7.03,399.97C11.53,404.47 17.63,407 24,407 " /><path  id="路径" style="stroke:#FFFFFF; stroke-width:2; stroke-opacity:0.4; stroke-dasharray:0 0" transform="translate(576 19)  rotate(0 12.000000000000007 132)" d="M0,0L0,0C13.25,0 24,10.75 24,24L24,383C24,389.37 21.47,395.47 16.97,399.97C12.47,404.47 6.37,407 0,407 " /><path id="矩形" fill-rule="evenodd" style="fill:#272E39" transform="translate(30 0)  rotate(0 19 19)" opacity="1" d="M19,38L38,38L38,0L19,0C13.96,0 9.13,2 5.56,5.56C2,9.13 0,13.96 0,19L0,19C0,24.04 2,28.87 5.56,32.44C9.13,36 13.96,38 19,38Z " /><path id="圆形" fill-rule="evenodd" style="fill:#45DBFF" transform="translate(46 14)  rotate(0 5 5)" opacity="1" d="M5,0C2.24,0 0,2.24 0,5C0,7.76 2.24,10 5,10C7.76,10 10,7.76 10,5C10,2.24 7.76,0 5,0Z " /><path id="矩形" fill-rule="evenodd" style="fill:#252C36" transform="translate(74 0)  rotate(0 248 19)" opacity="1" d="M0,38L477,38C482.04,38 486.87,36 490.44,32.44C494,28.87 496,24.04 496,19L496,19C496,13.96 494,9.13 490.44,5.56C486.87,2 482.04,0 477,0L0,0L0,38Z " /><g opacity="1" transform="translate(74 0)  rotate(0 77 19)"><g id="undefined" filter="url(#filter_16)"></g><g id="文本 1" filter="url(#filter_18)"><g opacity="1" transform="translate(12 5)  rotate(0 56 14)"><text><tspan x="0" y="23.240000000000002" font-size="28" line-height="28" fill="#FFFFFF" opacity="1" font-family="PangMenZhengDao" letter-spacing="2" >危险因素</tspan></text></g></g></g><path id="路径" fill-rule="evenodd" style="fill:#4E555D" transform="translate(549 12)  rotate(0 3.5000000000000004 7)" opacity="1" d="M0,0L0,14L7,7L0,0Z " /></g><path id="直线 1"  style="fill:#CCCCCC" transform="translate(97.5 239)  rotate(0 226.49991111287477 0.0005)" opacity="1" d="" /><path  id="直线 1" style="stroke:#A6A6A6; stroke-width:2; stroke-opacity:1; stroke-dasharray:0 0" transform="translate(97.5 239)  rotate(0 226.49991111287477 0.0005)" d="M0,0L453,0 " /><g opacity="1" transform="translate(103.5 250)  rotate(0 18.5 11)"><text><tspan x="0" y="17.2" font-size="20" line-height="0" fill="#A6A6A6" opacity="1" font-family="PangMenZhengDao" letter-spacing="0" >开启</tspan></text></g><g opacity="1" transform="translate(57.5 228)  rotate(0 7.5 11)"><text><tspan x="0" y="17.2" font-size="20" line-height="0" fill="#A6A6A6" opacity="1" font-family="PangMenZhengDao" letter-spacing="0" >0</tspan></text></g><g opacity="1" transform="translate(57.5 182)  rotate(0 7 11)"><text><tspan x="0" y="17.2" font-size="20" line-height="0" fill="#A6A6A6" opacity="1" font-family="PangMenZhengDao" letter-spacing="0" >2</tspan></text></g><g opacity="1" transform="translate(57.5 136)  rotate(0 7.5 11)"><text><tspan x="0" y="17.2" font-size="20" line-height="0" fill="#A6A6A6" opacity="1" font-family="PangMenZhengDao" letter-spacing="0" >4</tspan></text></g><g opacity="1" transform="translate(57.5 88)  rotate(0 7 11)"><text><tspan x="0" y="17.2" font-size="20" line-height="0" fill="#A6A6A6" opacity="1" font-family="PangMenZhengDao" letter-spacing="0" >6</tspan></text></g><g opacity="1" transform="translate(408 161)  rotate(0 7 11)"><text><tspan x="0" y="17.2" font-size="20" line-height="0" fill="#45DBFF" opacity="1" font-family="PangMenZhengDao" letter-spacing="0" >2</tspan></text></g><g opacity="1" transform="translate(206 250)  rotate(0 18.5 11)"><text><tspan x="0" y="17.2" font-size="20" line-height="0" fill="#A6A6A6" opacity="1" font-family="PangMenZhengDao" letter-spacing="0" >关闭</tspan></text></g><g opacity="1" transform="translate(295.5 250)  rotate(0 28.5 11)"><text><tspan x="0" y="17.2" font-size="20" line-height="0" fill="#A6A6A6" opacity="1" font-family="PangMenZhengDao" letter-spacing="0" >预运行</tspan></text></g><g opacity="1" transform="translate(396 250)  rotate(0 18.5 11)"><text><tspan x="0" y="17.2" font-size="20" line-height="0" fill="#45DBFF" opacity="1" font-family="PangMenZhengDao" letter-spacing="0" >检修</tspan></text></g><g opacity="1" transform="translate(490 250)  rotate(0 18.5 11)"><text><tspan x="0" y="17.2" font-size="20" line-height="0" fill="#A6A6A6" opacity="1" font-family="PangMenZhengDao" letter-spacing="0" >损坏</tspan></text></g><path id="直线 2"  style="fill:#CCCCCC" transform="translate(99.51 192)  rotate(0 225.50902449000617 0.0005)" opacity="1" d="" /><path  id="直线 2" style="stroke:#736C6C; stroke-width:1; stroke-opacity:0.59; stroke-dasharray:4 4" transform="translate(99.51 192)  rotate(0 225.50902449000617 0.0005)" d="M0,0L451.02,0 " /><path id="直线 2"  style="fill:#CCCCCC" transform="translate(99.5 146)  rotate(0 225.50902449000617 0.0005)" opacity="1" d="" /><path  id="直线 2" style="stroke:#736C6C; stroke-width:1; stroke-opacity:0.59; stroke-dasharray:4 4" transform="translate(99.5 146)  rotate(0 225.50902449000617 0.0005)" d="M0,0L451.02,0 " /><path id="直线 2"  style="fill:#CCCCCC" transform="translate(99.5 99)  rotate(0 225.50902449000617 0.0005)" opacity="1" d="" /><path  id="直线 2" style="stroke:#736C6C; stroke-width:1; stroke-opacity:0.59; stroke-dasharray:4 4" transform="translate(99.5 99)  rotate(0 225.50902449000617 0.0005)" d="M0,0L451.02,0 " /><path id="三角形 1" fill-rule="evenodd" style="fill:#CCCCCC" transform="translate(87 236.5)  rotate(90 2.5 2)" opacity="1" d="M0.33,3L4.67,3L2.5,0L0.33,3Z " /><g opacity="1" transform="translate(465 51)  rotate(0 24.9 11)"><g opacity="1" transform="translate(14.99999999999991 0)  rotate(0 9.5 11)"><text><tspan x="0" y="17.2" font-size="20" line-height="0" fill="#45DBFF" opacity="1" font-family="PangMenZhengDao" letter-spacing="0" >周</tspan></text></g><path id="三角形 1" fill-rule="evenodd" style="fill:#CCCCCC" transform="translate(-0.6000000000000001 8.600000000000023)  rotate(90 3 2.4)" opacity="1" d="M0.4,3.6L5.6,3.6L3,0L0.4,3.6Z " /><path id="三角形 1" fill-rule="evenodd" style="fill:#CCCCCC" transform="translate(44.4 8.600000000000023)  rotate(-90 3 2.4)" opacity="1" d="M0.4,3.6L5.6,3.6L3,0L0.4,3.6Z " /></g><path id="矩形 3" fill-rule="evenodd" style="fill:#E5E5E5" transform="translate(126.75 90)  rotate(0 6 2.5)" opacity="1" d="M0,5L12,5L12,0L0,0L0,5Z " /><path id="矩形 3" fill-rule="evenodd" style="fill:#E5E5E5" transform="translate(219.5 184)  rotate(0 6 2.5)" opacity="1" d="M0,5L12,5L12,0L0,0L0,5Z " /><path id="矩形 3" fill-rule="evenodd" style="fill:#E5E5E5" transform="translate(314 137)  rotate(0 6 2.5)" opacity="1" d="M0,5L12,5L12,0L0,0L0,5Z " /><path id="矩形 3" fill-rule="evenodd" style="fill:#E5E5E5" transform="translate(408 183)  rotate(0 6 2.5)" opacity="1" d="M0,5L12,5L12,0L0,0L0,5Z " /><path id="矩形 3" fill-rule="evenodd" style="fill:#E5E5E5" transform="translate(503 229)  rotate(0 6 2.5)" opacity="1" d="M0,5L12,5L12,0L0,0L0,5Z " /><path  id="路径 1" style="stroke:#A6A6A6; stroke-width:0.8; stroke-opacity:1; stroke-dasharray:0 0" transform="translate(87.5 192.5)  rotate(0 4 1.857142857142857)" d="M0,3.71L3.71,0L8,0 " /><path  id="路径 1" style="stroke:#A6A6A6; stroke-width:0.8; stroke-opacity:1; stroke-dasharray:0 0" transform="translate(87.5 145.5)  rotate(0 4 1.857142857142857)" d="M0,3.71L3.71,0L8,0 " /><path  id="路径 1" style="stroke:#A6A6A6; stroke-width:0.8; stroke-opacity:1; stroke-dasharray:0 0" transform="translate(87.5 98.5)  rotate(0 4 1.857142857142857)" d="M0,3.71L3.71,0L8,0 " /><path id="矩形 2" fill-rule="evenodd" style="fill:#A6A6A6" transform="translate(126.75 99)  rotate(0 6 70)" opacity="1" d="M0,140L12,140L12,0L0,0L0,140Z " /><path id="矩形 2" fill-rule="evenodd" style="fill:#A6A6A6" transform="translate(219.5 193)  rotate(0 6 23)" opacity="1" d="M0,46L12,46L12,0L0,0L0,46Z " /><path id="矩形 2" fill-rule="evenodd" style="fill:#A6A6A6" transform="translate(314.5 146)  rotate(0 5.5 46.49999999999999)" opacity="1" d="M0,93L11,93L11,0L0,0L0,93Z " /><path id="矩形 2" fill-rule="evenodd" style="fill:#45DBFF" transform="translate(408.5 192)  rotate(0 5.5 23.5)" opacity="1" d="M0,47L11,47L11,0L0,0L0,47Z " /><g id="文本 1" filter="url(#filter_84)"><g opacity="1" transform="translate(41 48)  rotate(0 24 14)"><text><tspan x="0" y="20.6" font-size="20" line-height="28" fill="#A6A6A6" opacity="1" font-family="PangMenZhengDao" letter-spacing="2" >单位:</tspan></text></g></g><g id="文本 1" filter="url(#filter_86)"><g opacity="1" transform="translate(93 48)  rotate(0 10.5 14)"><text><tspan x="0" y="20.6" font-size="20" line-height="28" fill="#E5E5E5" opacity="1" font-family="PangMenZhengDao" letter-spacing="2" >个</tspan></text></g></g><g opacity="1" transform="translate(541 51)  rotate(0 9.5 11)"><text><tspan x="0" y="17.2" font-size="20" line-height="0" fill="#A6A6A6" opacity="1" font-family="PangMenZhengDao" letter-spacing="0" >月</tspan></text></g></g></svg>