<svg xmlns="http://www.w3.org/2000/svg" xmlns:xlink="http://www.w3.org/1999/xlink" width="602" height="711" viewBox="0 0 602 711" fill="none"><defs><linearGradient id="linear_0" x1="50%" y1="0%" x2="51%" y2="100%" gradientUnits="objectBoundingBox"><stop offset="0" stop-color="#FFFFFF" stop-opacity="0" /><stop offset="1" stop-color="#FFFFFF" stop-opacity="0.1" /></linearGradient><filter id="filter_16" x="-8" y="-8" width="170" height="54" filterUnits="userSpaceOnUse" color-interpolation-filters="sRGB"><feFlood flood-opacity="0" result="BackgroundImageFix"/>
          <feColorMatrix in="SourceAlpha" type="matrix" values="0 0 0 0 0 0 0 0 0 0 0 0 0 0 0 0 0 0 127 0"/>
          <feOffset dx="2" dy="0"/>
          <feGaussianBlur stdDeviation="4"/>
          <feColorMatrix type="matrix" values="0 0 0 0 0 0 0 0 0 0 0 0 0 0 0 0 0 0 0.25 0"/>
          <feBlend mode="normal" in2="BackgroundImageFix" result="effect1_Shadow"/>
          <feBlend mode="normal" in="SourceGraphic" in2="effect1_Shadow" result="shape"/></filter><filter id="filter_18" x="8" y="1" width="120" height="36" filterUnits="userSpaceOnUse" color-interpolation-filters="sRGB"><feFlood flood-opacity="0" result="BackgroundImageFix"/>
          <feColorMatrix in="SourceAlpha" type="matrix" values="0 0 0 0 0 0 0 0 0 0 0 0 0 0 0 0 0 0 127 0"/>
          <feOffset dx="0" dy="2"/>
          <feGaussianBlur stdDeviation="2"/>
          <feColorMatrix type="matrix" values="0 0 0 0 0 0 0 0 0 0 0 0 0 0 0 0 0 0 0.4 0"/>
          <feBlend mode="normal" in2="BackgroundImageFix" result="effect1_Shadow"/>
          <feBlend mode="normal" in="SourceGraphic" in2="effect1_Shadow" result="shape"/></filter><linearGradient id="linear_1" x1="0%" y1="50%" x2="100%" y2="50%" gradientUnits="objectBoundingBox"><stop offset="0" stop-color="#FFFFFF" stop-opacity="0" /><stop offset="0.5027" stop-color="#FFFFFF" stop-opacity="0.5" /><stop offset="1" stop-color="#FFFFFF" stop-opacity="0" /></linearGradient><filter id="filter_40" x="20" y="6" width="120" height="36" filterUnits="userSpaceOnUse" color-interpolation-filters="sRGB"><feFlood flood-opacity="0" result="BackgroundImageFix"/>
          <feColorMatrix in="SourceAlpha" type="matrix" values="0 0 0 0 0 0 0 0 0 0 0 0 0 0 0 0 0 0 127 0"/>
          <feOffset dx="0" dy="2"/>
          <feGaussianBlur stdDeviation="2"/>
          <feColorMatrix type="matrix" values="0 0 0 0 0 0 0 0 0 0 0 0 0 0 0 0 0 0 0.4 0"/>
          <feBlend mode="normal" in2="BackgroundImageFix" result="effect1_Shadow"/>
          <feBlend mode="normal" in="SourceGraphic" in2="effect1_Shadow" result="shape"/></filter><filter id="filter_44" x="325" y="7" width="122" height="36" filterUnits="userSpaceOnUse" color-interpolation-filters="sRGB"><feFlood flood-opacity="0" result="BackgroundImageFix"/>
          <feColorMatrix in="SourceAlpha" type="matrix" values="0 0 0 0 0 0 0 0 0 0 0 0 0 0 0 0 0 0 127 0"/>
          <feOffset dx="0" dy="2"/>
          <feGaussianBlur stdDeviation="2"/>
          <feColorMatrix type="matrix" values="0 0 0 0 0 0 0 0 0 0 0 0 0 0 0 0 0 0 0.4 0"/>
          <feBlend mode="normal" in2="BackgroundImageFix" result="effect1_Shadow"/>
          <feBlend mode="normal" in="SourceGraphic" in2="effect1_Shadow" result="shape"/></filter><radialGradient id="linear_2" cx="50%" cy="50%" fx="50%" fy="50%" r="0.5" gradientTransform="translate(0.5 0.5) scale(1 1) rotate(90) scale(1 1) translate(-0.5 -0.5)" ><stop offset="0" stop-color="#CCE1FF" stop-opacity="0" /><stop offset="1" stop-color="#CCE1FF" stop-opacity="0.05" /></radialGradient><filter id="filter_57" x="0" y="0" width="200" height="200.0049285888672" filterUnits="userSpaceOnUse" color-interpolation-filters="sRGB"><feFlood flood-opacity="0" result="BackgroundImageFix"/>
          <feBlend mode="normal" in="SourceGraphic" in2="BackgroundImageFix" result="shape"/>
          <feGaussianBlur stdDeviation="4" result="effect1_foregroundBlur" /></filter><linearGradient id="linear_3" x1="0%" y1="50%" x2="100%" y2="50%" gradientUnits="objectBoundingBox"><stop offset="0" stop-color="#334A69" stop-opacity="1" /><stop offset="1" stop-color="#252C36" stop-opacity="0" /></linearGradient><filter id="filter_68" x="8" y="1" width="128" height="36" filterUnits="userSpaceOnUse" color-interpolation-filters="sRGB"><feFlood flood-opacity="0" result="BackgroundImageFix"/>
          <feColorMatrix in="SourceAlpha" type="matrix" values="0 0 0 0 0 0 0 0 0 0 0 0 0 0 0 0 0 0 127 0"/>
          <feOffset dx="0" dy="2"/>
          <feGaussianBlur stdDeviation="2"/>
          <feColorMatrix type="matrix" values="0 0 0 0 0 0 0 0 0 0 0 0 0 0 0 0 0 0 0.4 0"/>
          <feBlend mode="normal" in2="BackgroundImageFix" result="effect1_Shadow"/>
          <feBlend mode="normal" in="SourceGraphic" in2="effect1_Shadow" result="shape"/></filter><filter id="filter_70" x="198" y="1" width="99" height="36" filterUnits="userSpaceOnUse" color-interpolation-filters="sRGB"><feFlood flood-opacity="0" result="BackgroundImageFix"/>
          <feColorMatrix in="SourceAlpha" type="matrix" values="0 0 0 0 0 0 0 0 0 0 0 0 0 0 0 0 0 0 127 0"/>
          <feOffset dx="0" dy="2"/>
          <feGaussianBlur stdDeviation="2"/>
          <feColorMatrix type="matrix" values="0 0 0 0 0 0 0 0 0 0 0 0 0 0 0 0 0 0 0.4 0"/>
          <feBlend mode="normal" in2="BackgroundImageFix" result="effect1_Shadow"/>
          <feBlend mode="normal" in="SourceGraphic" in2="effect1_Shadow" result="shape"/></filter><linearGradient id="linear_4" x1="0%" y1="50%" x2="100%" y2="50%" gradientUnits="objectBoundingBox"><stop offset="0" stop-color="#334A69" stop-opacity="1" /><stop offset="1" stop-color="#252C36" stop-opacity="0" /></linearGradient><filter id="filter_76" x="8" y="1" width="104" height="36" filterUnits="userSpaceOnUse" color-interpolation-filters="sRGB"><feFlood flood-opacity="0" result="BackgroundImageFix"/>
          <feColorMatrix in="SourceAlpha" type="matrix" values="0 0 0 0 0 0 0 0 0 0 0 0 0 0 0 0 0 0 127 0"/>
          <feOffset dx="0" dy="2"/>
          <feGaussianBlur stdDeviation="2"/>
          <feColorMatrix type="matrix" values="0 0 0 0 0 0 0 0 0 0 0 0 0 0 0 0 0 0 0.4 0"/>
          <feBlend mode="normal" in2="BackgroundImageFix" result="effect1_Shadow"/>
          <feBlend mode="normal" in="SourceGraphic" in2="effect1_Shadow" result="shape"/></filter><filter id="filter_78" x="183" y="1" width="128" height="36" filterUnits="userSpaceOnUse" color-interpolation-filters="sRGB"><feFlood flood-opacity="0" result="BackgroundImageFix"/>
          <feColorMatrix in="SourceAlpha" type="matrix" values="0 0 0 0 0 0 0 0 0 0 0 0 0 0 0 0 0 0 127 0"/>
          <feOffset dx="0" dy="2"/>
          <feGaussianBlur stdDeviation="2"/>
          <feColorMatrix type="matrix" values="0 0 0 0 0 0 0 0 0 0 0 0 0 0 0 0 0 0 0.4 0"/>
          <feBlend mode="normal" in2="BackgroundImageFix" result="effect1_Shadow"/>
          <feBlend mode="normal" in="SourceGraphic" in2="effect1_Shadow" result="shape"/></filter><filter id="filter_80" x="229" y="248" width="119" height="36" filterUnits="userSpaceOnUse" color-interpolation-filters="sRGB"><feFlood flood-opacity="0" result="BackgroundImageFix"/>
          <feColorMatrix in="SourceAlpha" type="matrix" values="0 0 0 0 0 0 0 0 0 0 0 0 0 0 0 0 0 0 127 0"/>
          <feOffset dx="0" dy="2"/>
          <feGaussianBlur stdDeviation="2"/>
          <feColorMatrix type="matrix" values="0 0 0 0 0 0 0 0 0 0 0 0 0 0 0 0 0 0 0.4 0"/>
          <feBlend mode="normal" in2="BackgroundImageFix" result="effect1_Shadow"/>
          <feBlend mode="normal" in="SourceGraphic" in2="effect1_Shadow" result="shape"/></filter><linearGradient id="linear_5" x1="0%" y1="50%" x2="100%" y2="50%" gradientUnits="objectBoundingBox"><stop offset="0" stop-color="#334A69" stop-opacity="1" /><stop offset="1" stop-color="#252C36" stop-opacity="0" /></linearGradient><filter id="filter_86" x="209" y="1" width="53" height="36" filterUnits="userSpaceOnUse" color-interpolation-filters="sRGB"><feFlood flood-opacity="0" result="BackgroundImageFix"/>
          <feColorMatrix in="SourceAlpha" type="matrix" values="0 0 0 0 0 0 0 0 0 0 0 0 0 0 0 0 0 0 127 0"/>
          <feOffset dx="0" dy="2"/>
          <feGaussianBlur stdDeviation="2"/>
          <feColorMatrix type="matrix" values="0 0 0 0 0 0 0 0 0 0 0 0 0 0 0 0 0 0 0.4 0"/>
          <feBlend mode="normal" in2="BackgroundImageFix" result="effect1_Shadow"/>
          <feBlend mode="normal" in="SourceGraphic" in2="effect1_Shadow" result="shape"/></filter><filter id="filter_88" x="254" y="1" width="31" height="36" filterUnits="userSpaceOnUse" color-interpolation-filters="sRGB"><feFlood flood-opacity="0" result="BackgroundImageFix"/>
          <feColorMatrix in="SourceAlpha" type="matrix" values="0 0 0 0 0 0 0 0 0 0 0 0 0 0 0 0 0 0 127 0"/>
          <feOffset dx="0" dy="2"/>
          <feGaussianBlur stdDeviation="2"/>
          <feColorMatrix type="matrix" values="0 0 0 0 0 0 0 0 0 0 0 0 0 0 0 0 0 0 0.4 0"/>
          <feBlend mode="normal" in2="BackgroundImageFix" result="effect1_Shadow"/>
          <feBlend mode="normal" in="SourceGraphic" in2="effect1_Shadow" result="shape"/></filter><filter id="filter_90" x="8" y="1" width="163" height="36" filterUnits="userSpaceOnUse" color-interpolation-filters="sRGB"><feFlood flood-opacity="0" result="BackgroundImageFix"/>
          <feColorMatrix in="SourceAlpha" type="matrix" values="0 0 0 0 0 0 0 0 0 0 0 0 0 0 0 0 0 0 127 0"/>
          <feOffset dx="0" dy="2"/>
          <feGaussianBlur stdDeviation="2"/>
          <feColorMatrix type="matrix" values="0 0 0 0 0 0 0 0 0 0 0 0 0 0 0 0 0 0 0.4 0"/>
          <feBlend mode="normal" in2="BackgroundImageFix" result="effect1_Shadow"/>
          <feBlend mode="normal" in="SourceGraphic" in2="effect1_Shadow" result="shape"/></filter><filter id="filter_92" x="229" y="292" width="53" height="36" filterUnits="userSpaceOnUse" color-interpolation-filters="sRGB"><feFlood flood-opacity="0" result="BackgroundImageFix"/>
          <feColorMatrix in="SourceAlpha" type="matrix" values="0 0 0 0 0 0 0 0 0 0 0 0 0 0 0 0 0 0 127 0"/>
          <feOffset dx="0" dy="2"/>
          <feGaussianBlur stdDeviation="2"/>
          <feColorMatrix type="matrix" values="0 0 0 0 0 0 0 0 0 0 0 0 0 0 0 0 0 0 0.4 0"/>
          <feBlend mode="normal" in2="BackgroundImageFix" result="effect1_Shadow"/>
          <feBlend mode="normal" in="SourceGraphic" in2="effect1_Shadow" result="shape"/></filter><filter id="filter_94" x="229" y="336" width="41" height="36" filterUnits="userSpaceOnUse" color-interpolation-filters="sRGB"><feFlood flood-opacity="0" result="BackgroundImageFix"/>
          <feColorMatrix in="SourceAlpha" type="matrix" values="0 0 0 0 0 0 0 0 0 0 0 0 0 0 0 0 0 0 127 0"/>
          <feOffset dx="0" dy="2"/>
          <feGaussianBlur stdDeviation="2"/>
          <feColorMatrix type="matrix" values="0 0 0 0 0 0 0 0 0 0 0 0 0 0 0 0 0 0 0.4 0"/>
          <feBlend mode="normal" in2="BackgroundImageFix" result="effect1_Shadow"/>
          <feBlend mode="normal" in="SourceGraphic" in2="effect1_Shadow" result="shape"/></filter><filter id="filter_96" x="229" y="202" width="99" height="36" filterUnits="userSpaceOnUse" color-interpolation-filters="sRGB"><feFlood flood-opacity="0" result="BackgroundImageFix"/>
          <feColorMatrix in="SourceAlpha" type="matrix" values="0 0 0 0 0 0 0 0 0 0 0 0 0 0 0 0 0 0 127 0"/>
          <feOffset dx="0" dy="2"/>
          <feGaussianBlur stdDeviation="2"/>
          <feColorMatrix type="matrix" values="0 0 0 0 0 0 0 0 0 0 0 0 0 0 0 0 0 0 0.4 0"/>
          <feBlend mode="normal" in2="BackgroundImageFix" result="effect1_Shadow"/>
          <feBlend mode="normal" in="SourceGraphic" in2="effect1_Shadow" result="shape"/></filter><filter id="filter_98" x="362" y="247" width="46" height="36" filterUnits="userSpaceOnUse" color-interpolation-filters="sRGB"><feFlood flood-opacity="0" result="BackgroundImageFix"/>
          <feColorMatrix in="SourceAlpha" type="matrix" values="0 0 0 0 0 0 0 0 0 0 0 0 0 0 0 0 0 0 127 0"/>
          <feOffset dx="0" dy="2"/>
          <feGaussianBlur stdDeviation="2"/>
          <feColorMatrix type="matrix" values="0 0 0 0 0 0 0 0 0 0 0 0 0 0 0 0 0 0 0.4 0"/>
          <feBlend mode="normal" in2="BackgroundImageFix" result="effect1_Shadow"/>
          <feBlend mode="normal" in="SourceGraphic" in2="effect1_Shadow" result="shape"/></filter><filter id="filter_100" x="362" y="292" width="10" height="36" filterUnits="userSpaceOnUse" color-interpolation-filters="sRGB"><feFlood flood-opacity="0" result="BackgroundImageFix"/>
          <feColorMatrix in="SourceAlpha" type="matrix" values="0 0 0 0 0 0 0 0 0 0 0 0 0 0 0 0 0 0 127 0"/>
          <feOffset dx="0" dy="2"/>
          <feGaussianBlur stdDeviation="2"/>
          <feColorMatrix type="matrix" values="0 0 0 0 0 0 0 0 0 0 0 0 0 0 0 0 0 0 0.4 0"/>
          <feBlend mode="normal" in2="BackgroundImageFix" result="effect1_Shadow"/>
          <feBlend mode="normal" in="SourceGraphic" in2="effect1_Shadow" result="shape"/></filter><filter id="filter_102" x="362" y="336" width="10" height="36" filterUnits="userSpaceOnUse" color-interpolation-filters="sRGB"><feFlood flood-opacity="0" result="BackgroundImageFix"/>
          <feColorMatrix in="SourceAlpha" type="matrix" values="0 0 0 0 0 0 0 0 0 0 0 0 0 0 0 0 0 0 127 0"/>
          <feOffset dx="0" dy="2"/>
          <feGaussianBlur stdDeviation="2"/>
          <feColorMatrix type="matrix" values="0 0 0 0 0 0 0 0 0 0 0 0 0 0 0 0 0 0 0.4 0"/>
          <feBlend mode="normal" in2="BackgroundImageFix" result="effect1_Shadow"/>
          <feBlend mode="normal" in="SourceGraphic" in2="effect1_Shadow" result="shape"/></filter><filter id="filter_104" x="488" y="250" width="57" height="36" filterUnits="userSpaceOnUse" color-interpolation-filters="sRGB"><feFlood flood-opacity="0" result="BackgroundImageFix"/>
          <feColorMatrix in="SourceAlpha" type="matrix" values="0 0 0 0 0 0 0 0 0 0 0 0 0 0 0 0 0 0 127 0"/>
          <feOffset dx="0" dy="2"/>
          <feGaussianBlur stdDeviation="2"/>
          <feColorMatrix type="matrix" values="0 0 0 0 0 0 0 0 0 0 0 0 0 0 0 0 0 0 0.4 0"/>
          <feBlend mode="normal" in2="BackgroundImageFix" result="effect1_Shadow"/>
          <feBlend mode="normal" in="SourceGraphic" in2="effect1_Shadow" result="shape"/></filter><filter id="filter_106" x="484" y="292" width="10" height="36" filterUnits="userSpaceOnUse" color-interpolation-filters="sRGB"><feFlood flood-opacity="0" result="BackgroundImageFix"/>
          <feColorMatrix in="SourceAlpha" type="matrix" values="0 0 0 0 0 0 0 0 0 0 0 0 0 0 0 0 0 0 127 0"/>
          <feOffset dx="0" dy="2"/>
          <feGaussianBlur stdDeviation="2"/>
          <feColorMatrix type="matrix" values="0 0 0 0 0 0 0 0 0 0 0 0 0 0 0 0 0 0 0.4 0"/>
          <feBlend mode="normal" in2="BackgroundImageFix" result="effect1_Shadow"/>
          <feBlend mode="normal" in="SourceGraphic" in2="effect1_Shadow" result="shape"/></filter><filter id="filter_108" x="484" y="203" width="66" height="36" filterUnits="userSpaceOnUse" color-interpolation-filters="sRGB"><feFlood flood-opacity="0" result="BackgroundImageFix"/>
          <feColorMatrix in="SourceAlpha" type="matrix" values="0 0 0 0 0 0 0 0 0 0 0 0 0 0 0 0 0 0 127 0"/>
          <feOffset dx="0" dy="2"/>
          <feGaussianBlur stdDeviation="2"/>
          <feColorMatrix type="matrix" values="0 0 0 0 0 0 0 0 0 0 0 0 0 0 0 0 0 0 0.4 0"/>
          <feBlend mode="normal" in2="BackgroundImageFix" result="effect1_Shadow"/>
          <feBlend mode="normal" in="SourceGraphic" in2="effect1_Shadow" result="shape"/></filter><filter id="filter_110" x="359" y="202" width="71" height="36" filterUnits="userSpaceOnUse" color-interpolation-filters="sRGB"><feFlood flood-opacity="0" result="BackgroundImageFix"/>
          <feColorMatrix in="SourceAlpha" type="matrix" values="0 0 0 0 0 0 0 0 0 0 0 0 0 0 0 0 0 0 127 0"/>
          <feOffset dx="0" dy="2"/>
          <feGaussianBlur stdDeviation="2"/>
          <feColorMatrix type="matrix" values="0 0 0 0 0 0 0 0 0 0 0 0 0 0 0 0 0 0 0.4 0"/>
          <feBlend mode="normal" in2="BackgroundImageFix" result="effect1_Shadow"/>
          <feBlend mode="normal" in="SourceGraphic" in2="effect1_Shadow" result="shape"/></filter><rect id="path_0" x="0" y="0" width="26" height="26" /><filter id="filter_118" x="-4" y="14" width="14" height="36" filterUnits="userSpaceOnUse" color-interpolation-filters="sRGB"><feFlood flood-opacity="0" result="BackgroundImageFix"/>
          <feColorMatrix in="SourceAlpha" type="matrix" values="0 0 0 0 0 0 0 0 0 0 0 0 0 0 0 0 0 0 127 0"/>
          <feOffset dx="0" dy="2"/>
          <feGaussianBlur stdDeviation="2"/>
          <feColorMatrix type="matrix" values="0 0 0 0 0 0 0 0 0 0 0 0 0 0 0 0 0 0 0.4 0"/>
          <feBlend mode="normal" in2="BackgroundImageFix" result="effect1_Shadow"/>
          <feBlend mode="normal" in="SourceGraphic" in2="effect1_Shadow" result="shape"/></filter><rect id="path_1" x="0" y="0" width="36" height="36" /><filter id="filter_126" x="65" y="264" width="76" height="36" filterUnits="userSpaceOnUse" color-interpolation-filters="sRGB"><feFlood flood-opacity="0" result="BackgroundImageFix"/>
          <feColorMatrix in="SourceAlpha" type="matrix" values="0 0 0 0 0 0 0 0 0 0 0 0 0 0 0 0 0 0 127 0"/>
          <feOffset dx="0" dy="2"/>
          <feGaussianBlur stdDeviation="2"/>
          <feColorMatrix type="matrix" values="0 0 0 0 0 0 0 0 0 0 0 0 0 0 0 0 0 0 0.4 0"/>
          <feBlend mode="normal" in2="BackgroundImageFix" result="effect1_Shadow"/>
          <feBlend mode="normal" in="SourceGraphic" in2="effect1_Shadow" result="shape"/></filter><filter id="filter_128" x="68.94" y="291" width="68" height="36" filterUnits="userSpaceOnUse" color-interpolation-filters="sRGB"><feFlood flood-opacity="0" result="BackgroundImageFix"/>
          <feColorMatrix in="SourceAlpha" type="matrix" values="0 0 0 0 0 0 0 0 0 0 0 0 0 0 0 0 0 0 127 0"/>
          <feOffset dx="0" dy="2"/>
          <feGaussianBlur stdDeviation="2"/>
          <feColorMatrix type="matrix" values="0 0 0 0 0 0 0 0 0 0 0 0 0 0 0 0 0 0 0.4 0"/>
          <feBlend mode="normal" in2="BackgroundImageFix" result="effect1_Shadow"/>
          <feBlend mode="normal" in="SourceGraphic" in2="effect1_Shadow" result="shape"/></filter></defs><g opacity="1" transform="translate(28 0)  rotate(0 270.5 318.5)"><g opacity="1" transform="translate(-27 26)  rotate(0 300 342)"><path id="矩形" fill-rule="evenodd" fill="url(#linear_0)" transform="translate(0 19)  rotate(0 300 332.5)" opacity="1" d="M24,407L576,407C589.25,407 600,396.25 600,383L600,24C600,10.75 589.25,0 576,0L24,0C10.75,0 0,10.75 0,24L0,383C0,396.25 10.75,407 24,407Z " /><path  id="路径" style="stroke:#FFFFFF; stroke-width:2; stroke-opacity:0.4; stroke-dasharray:0 0" transform="translate(0 18.5)  rotate(0 12 332.5)" d="M24,0L24,0C17.63,0 11.53,2.53 7.03,7.03C2.53,11.53 0,17.63 0,24L0,383C0,389.37 2.53,395.47 7.03,399.97C11.53,404.47 17.63,407 24,407 " /><path  id="路径" style="stroke:#FFFFFF; stroke-width:2; stroke-opacity:0.4; stroke-dasharray:0 0" transform="translate(576 19)  rotate(0 12.000000000000007 332.5)" d="M0,0L0,0C13.25,0 24,10.75 24,24L24,383C24,389.37 21.47,395.47 16.97,399.97C12.47,404.47 6.37,407 0,407 " /><path id="矩形" fill-rule="evenodd" style="fill:#272E39" transform="translate(30 0)  rotate(0 19 19)" opacity="1" d="M19,38L38,38L38,0L19,0C13.96,0 9.13,2 5.56,5.56C2,9.13 0,13.96 0,19L0,19C0,24.04 2,28.87 5.56,32.44C9.13,36 13.96,38 19,38Z " /><path id="圆形" fill-rule="evenodd" style="fill:#45DBFF" transform="translate(46 14)  rotate(0 5 5)" opacity="1" d="M5,0C2.24,0 0,2.24 0,5C0,7.76 2.24,10 5,10C7.76,10 10,7.76 10,5C10,2.24 7.76,0 5,0Z " /><path id="矩形" fill-rule="evenodd" style="fill:#252C36" transform="translate(74 0)  rotate(0 248 19)" opacity="1" d="M0,38L477,38C482.04,38 486.87,36 490.44,32.44C494,28.87 496,24.04 496,19L496,19C496,13.96 494,9.13 490.44,5.56C486.87,2 482.04,0 477,0L0,0L0,38Z " /><g opacity="1" transform="translate(74 0)  rotate(0 77 19)"><g id="undefined" filter="url(#filter_16)"></g><g id="文本 1" filter="url(#filter_18)"><g opacity="1" transform="translate(12 5)  rotate(0 56 14)"><text><tspan x="0" y="23.240000000000002" font-size="28" line-height="28" fill="#FFFFFF" opacity="1" font-family="PangMenZhengDao" letter-spacing="2" >路况状态</tspan></text></g></g></g><g opacity="1" transform="translate(519 8)  rotate(0 7 9)"><g opacity="1" transform="translate(0 0)  rotate(0 1 9)"><text><tspan x="0" y="14.94" font-size="18" line-height="18" fill="#AAAAAA" opacity="1" font-family="PangMenZhengDao" letter-spacing="2" ></tspan></text></g><g opacity="1" transform="translate(12 0)  rotate(0 1 9)"><text><tspan x="0" y="14.94" font-size="18" line-height="18" fill="#45DBFF" opacity="1" font-family="PangMenZhengDao" letter-spacing="2" ></tspan></text></g></g><path id="路径" fill-rule="evenodd" style="fill:#4E555D" transform="translate(549 12)  rotate(0 3.5000000000000004 7)" opacity="1" d="M0,0L0,14L7,7L0,0Z " /><g opacity="1" transform="translate(40 682)  rotate(0 260 1)"><path id="路径" style="stroke:url(#linear_1); stroke-width:2; stroke-opacity:100; stroke-dasharray:0 0" transform="translate(0 1)  rotate(0 259.99999999950404 0.0005078181898807272)" d="M0,0L520,0 " /><path id="矩形" fill-rule="evenodd" style="fill:#AAAAAA" transform="translate(516 0)  rotate(0 2 1)" opacity="1" d="M0,2L4,2L4,0L0,0L0,2Z " /><path id="矩形" fill-rule="evenodd" style="fill:#AAAAAA" transform="translate(0 0)  rotate(0 2 1)" opacity="1" d="M0,2L4,2L4,0L0,0L0,2Z " /></g></g><g opacity="1" transform="translate(0 82)  rotate(0 264 212.5)"><path id="矩形 6" fill-rule="evenodd" style="fill:#45DBFF" transform="translate(0 10.5)  rotate(0 2 13.5)" opacity="1" d="M0,27L4,27L4,0L0,0L0,27Z " /><g id="文本 1" filter="url(#filter_40)"><g opacity="1" transform="translate(24 10)  rotate(0 56 14)"><text><tspan x="0" y="23.240000000000002" font-size="28" line-height="28" fill="#C2C2C2" opacity="1" font-family="PangMenZhengDao" letter-spacing="2" >平均时速</tspan></text></g></g><path id="矩形" fill-rule="evenodd" style="fill:#252C36" transform="translate(147 0)  rotate(0 190.5 19)" opacity="1" d="M0,38L190.5,38L362,38C367.04,38 371.87,36 375.44,32.44C379,28.87 381,24.04 381,19L381,19C381,13.96 379,9.13 375.44,5.56C371.87,2 367.04,0 362,0L0,0L0,38Z " /><g id="文本 1" filter="url(#filter_44)"><g opacity="1" transform="translate(329 11)  rotate(0 57 14)"><text><tspan x="0" y="23.240000000000002" font-size="28" line-height="28" fill="#C2C2C2" opacity="1" font-family="PangMenZhengDao" letter-spacing="2" >详细信息</tspan></text></g></g></g><g opacity="1" transform="translate(0 186)  rotate(0 99.94100000000006 100.0024642944336)"><g opacity="1" transform="translate(0 0)  rotate(0 99.81237030029297 100.0024642944336)"><path id="减去顶层" fill-rule="evenodd" style="fill:#283039" transform="translate(0 0)  rotate(0 99.81237030029297 100.0024642944336)" opacity="1" d="M132.451 23.6637L139.12 7.97417C127.04 2.83417 114.06 0.134172 100.93 0.00417165C87.7901 -0.115828 74.7701 2.35417 62.5901 7.26417C50.4101 12.1842 39.3201 19.4442 29.9501 28.6442C20.5801 37.8442 13.1101 48.7942 7.97007 60.8842L23.4347 67.4579C36.0902 37.793 65.5229 17.0004 99.8124 17.0004C111.4 17.0004 122.433 19.3748 132.451 23.6637Z M18.7486 82.0949L2.34343 78.4789C0.5359 86.6703 -0.230186 95.0601 0.0597382 103.443L16.8609 102.865C16.8286 101.914 16.8124 100.959 16.8124 100C16.8124 93.8529 17.4807 87.8615 18.7486 82.0949Z M182.499 107.264C178.819 149.703 143.205 183 99.8124 183C92.0255 183 84.489 181.928 77.3426 179.923L72.7248 196.211C86.8775 200.224 101.756 201.068 116.277 198.673C130.808 196.276 144.622 190.704 156.743 182.35C168.865 173.995 178.995 163.07 186.396 150.35C193.811 137.637 198.324 123.437 199.615 108.771L182.499 107.264Z M66.164 175.897C40.6223 164.556 21.8699 140.701 17.6899 112.113L1.06097 114.56C3.52049 131.225 10.1361 147.003 20.3135 160.423C30.4908 173.842 43.8973 184.478 59.2799 191.337L66.164 175.897Z M182.507 92.8328C180.188 65.7203 164.836 42.3286 142.743 28.9508L151.547 14.3143C165.067 22.445 176.476 33.672 184.835 47.0556C193.192 60.449 198.26 75.622 199.625 91.345L182.507 92.8328Z " /><path id="减去顶层" fill-rule="evenodd" style="fill:#A9ACB0" transform="translate(0 0)  rotate(0 99.81237030029297 100.0024642944336)" opacity="1" d="M137.176 12.5484L139.12 7.97417C127.04 2.83417 114.06 0.134173 100.93 0.00417333C87.7901 -0.115827 74.7701 2.35417 62.5901 7.26417C50.4101 12.1842 39.3201 19.4442 29.9501 28.6442C20.5801 37.8442 13.1101 48.7942 7.97006 60.8842L12.5462 62.8294C27.0125 28.8338 60.721 5 100 5C113.193 5 125.758 7.68881 137.176 12.5484Z M7.20605 79.5507L2.34343 78.4789C0.535896 86.6703 -0.23019 95.0601 0.0597343 103.443L5.05525 103.271C5.01851 102.185 5 101.095 5 100C5 92.9796 5.76137 86.1372 7.20605 79.5507Z M194.64 108.333C190.42 156.9 149.662 195 100 195C91.0148 195 82.3211 193.753 74.0826 191.422L72.7248 196.211C86.8775 200.224 101.756 201.068 116.277 198.673C130.808 196.276 144.622 190.704 156.743 182.35C168.865 173.995 178.995 163.07 186.396 150.35C193.811 137.637 198.324 123.437 199.615 108.771L194.64 108.333Z M61.3072 186.79C32.1542 173.775 10.7648 146.502 5.9997 113.833L1.06097 114.56C3.52049 131.225 10.1361 147.003 20.3135 160.423C30.4908 173.842 43.8973 184.478 59.2799 191.337L61.3072 186.79Z M194.649 91.7774C191.984 60.687 174.347 33.8745 148.98 18.582L151.547 14.3143C165.067 22.445 176.476 33.672 184.835 47.0556C193.192 60.449 198.26 75.622 199.625 91.345L194.649 91.7774Z " /><path id="圆形 1" fill-rule="evenodd" fill="url(#linear_2)" transform="translate(34.81237030029297 35.002464294433594)  rotate(0 65 65)" opacity="1" d="M65,0C29.1,0 0,29.1 0,65C0,100.9 29.1,130 65,130C100.9,130 130,100.9 130,65C130,29.1 100.9,0 65,0Z " /><g id="圆形 2" filter="url(#filter_57)"><path id="圆形 2" fill-rule="evenodd" style="fill:#16202E" transform="translate(35 35.00492858886719)  rotate(0 65 64.9975357055664)" opacity="0.57" d="M65,0C29.1,0 0,29.1 0,65C0,100.89 29.1,130 65,130C100.9,130 130,100.89 130,65C130,29.1 100.9,0 65,0Z " /><path  id="圆形 2" style="stroke:#21292B; stroke-width:5; stroke-opacity:1; stroke-dasharray:0 0" transform="translate(35 35.00492858886719)  rotate(0 65 64.9975357055664)" d="M65,0C29.1,0 0,29.1 0,65C0,100.89 29.1,130 65,130C100.9,130 130,100.89 130,65C130,29.1 100.9,0 65,0Z " /></g><path id="三角形 1" fill-rule="evenodd" style="fill:#45DBFF" transform="translate(147.14992880888136 63.149928808881356)  rotate(57 3 3)" opacity="1" d="M0.4,4.5L5.6,4.5L3,0L0.4,4.5Z " /></g><path id="减去顶层" fill-rule="evenodd" style="fill:#45DBFF" transform="translate(143 14)  rotate(0 28.441000000000017 39.25925000000001)" opacity="0.5" d="M8.8,0L0,14.64C22.09,28.01 37.44,51.41 39.76,78.52L56.88,77.03C55.52,61.31 50.45,46.13 42.09,32.74C33.73,19.36 22.32,8.13 8.8,0Z " /><path id="减去顶层" fill-rule="evenodd" style="fill:#45DBFF" transform="translate(149.23700000000008 14)  rotate(0 25.32250000000002 38.731550000000006)" opacity="1" d="M35.86,32.74C27.5,19.36 16.09,8.13 2.57,0L0,4.27C25.37,19.56 43,46.37 45.67,77.46L50.65,77.03C49.28,61.31 44.21,46.13 35.86,32.74Z " /></g><g opacity="1" transform="translate(18 489)  rotate(0 146.5 19)"><path id="矩形" fill-rule="evenodd" fill="url(#linear_3)" transform="translate(0 0)  rotate(0 86 19)" opacity="1" d="M0,19L0,19C0,24.04 2,28.87 5.56,32.44C9.13,36 13.96,38 19,38L172,38L172,0L19,0C13.96,0 9.13,2 5.56,5.56C2,9.13 0,13.96 0,19Z " /><g id="文本 1" filter="url(#filter_68)"><g opacity="1" transform="translate(12 5)  rotate(0 60 14)"><text><tspan x="0" y="21.92" font-size="24" line-height="28" fill="#AAAAAA" opacity="1" font-family="PangMenZhengDao" letter-spacing="0" >路面能见度:</tspan></text></g></g><g id="文本 1" filter="url(#filter_70)"><g opacity="1" transform="translate(202 5)  rotate(0 45.5 14)"><text><tspan x="0" y="21.92" font-size="24" line-height="28" fill="#C2C2C2" opacity="1" font-family="PangMenZhengDao" letter-spacing="0" >视野开阔</tspan></text></g></g></g><g opacity="1" transform="translate(18 433)  rotate(0 153.5 19)"><path id="矩形" fill-rule="evenodd" fill="url(#linear_4)" transform="translate(0 0)  rotate(0 86 19)" opacity="1" d="M0,19L0,19C0,24.04 2,28.87 5.56,32.44C9.13,36 13.96,38 19,38L172,38L172,0L19,0C13.96,0 9.13,2 5.56,5.56C2,9.13 0,13.96 0,19Z " /><g id="文本 1" filter="url(#filter_76)"><g opacity="1" transform="translate(12 5)  rotate(0 48 14)"><text><tspan x="0" y="21.92" font-size="24" line-height="28" fill="#C2C2C2" opacity="1" font-family="PangMenZhengDao" letter-spacing="0" >所处位置:</tspan></text></g></g><g id="文本 1" filter="url(#filter_78)"><g opacity="1" transform="translate(187 5)  rotate(0 60 14)"><text><tspan x="0" y="21.92" font-size="24" line-height="28" fill="#C2C2C2" opacity="1" font-family="PangMenZhengDao" letter-spacing="0" >101省道中段</tspan></text></g></g></g><g id="文本 1" filter="url(#filter_80)"><g opacity="1" transform="translate(233 252)  rotate(0 55.5 14)"><text><tspan x="0" y="21.92" font-size="24" line-height="28" fill="#C2C2C2" opacity="1" font-family="PangMenZhengDao" letter-spacing="0" >日均车流量</tspan></text></g></g><g opacity="1" transform="translate(18 546)  rotate(0 140.5 19)"><path id="矩形" fill-rule="evenodd" fill="url(#linear_5)" transform="translate(0 0)  rotate(0 86 19)" opacity="1" d="M0,19L0,19C0,24.04 2,28.87 5.56,32.44C9.13,36 13.96,38 19,38L172,38L172,0L19,0C13.96,0 9.13,2 5.56,5.56C2,9.13 0,13.96 0,19Z " /><g id="文本 1" filter="url(#filter_86)"><g opacity="1" transform="translate(213 5)  rotate(0 22.5 14)"><text><tspan x="0" y="21.92" font-size="24" line-height="28" fill="#C2C2C2" opacity="1" font-family="PangMenZhengDao" letter-spacing="0" >安全</tspan></text></g></g><g id="文本 1" filter="url(#filter_88)"><g opacity="1" transform="translate(258 5)  rotate(0 11.5 14)"><text><tspan x="0" y="21.92" font-size="24" line-height="28" fill="#C2C2C2" opacity="1" font-family="PangMenZhengDao" letter-spacing="0" ></tspan></text></g></g><g id="文本 1" filter="url(#filter_90)"><g opacity="1" transform="translate(12 5)  rotate(0 77.5 14)"><text><tspan x="0" y="21.92" font-size="24" line-height="28" fill="#45DBFF" opacity="1" font-family="PangMenZhengDao" letter-spacing="0" >路况总体评估：</tspan></text></g></g></g><g id="文本 1" filter="url(#filter_92)"><g opacity="1" transform="translate(233 296)  rotate(0 22.5 14)"><text><tspan x="0" y="21.92" font-size="24" line-height="28" fill="#C2C2C2" opacity="1" font-family="PangMenZhengDao" letter-spacing="0" ></tspan></text></g></g><g id="文本 1" filter="url(#filter_94)"><g opacity="1" transform="translate(233 340)  rotate(0 16.5 14)"><text><tspan x="0" y="21.92" font-size="24" line-height="28" fill="#C2C2C2" opacity="1" font-family="PangMenZhengDao" letter-spacing="0" ></tspan></text></g></g><g id="文本 1" filter="url(#filter_96)"><g opacity="1" transform="translate(233 206)  rotate(0 45.5 14)"><text><tspan x="0" y="21.92" font-size="24" line-height="28" fill="#45DBFF" opacity="1" font-family="PangMenZhengDao" letter-spacing="0" >最高时速</tspan></text></g></g><g id="文本 1" filter="url(#filter_98)"><g opacity="1" transform="translate(366 251)  rotate(0 19 14)"><text><tspan x="0" y="21.92" font-size="24" line-height="28" fill="#C2C2C2" opacity="1" font-family="PangMenZhengDao" letter-spacing="2" >90</tspan></text></g></g><g id="文本 1" filter="url(#filter_100)"><g opacity="1" transform="translate(366 296)  rotate(0 1 14)"><text><tspan x="0" y="21.92" font-size="24" line-height="28" fill="#C2C2C2" opacity="1" font-family="PangMenZhengDao" letter-spacing="2" ></tspan></text></g></g><g id="文本 1" filter="url(#filter_102)"><g opacity="1" transform="translate(366 340)  rotate(0 1 14)"><text><tspan x="0" y="21.92" font-size="24" line-height="28" fill="#C2C2C2" opacity="1" font-family="PangMenZhengDao" letter-spacing="2" ></tspan></text></g></g><g id="文本 1" filter="url(#filter_104)"><g opacity="1" transform="translate(492 254)  rotate(0 24.5 14)"><text><tspan x="0" y="21.92" font-size="24" line-height="28" fill="#C2C2C2" opacity="1" font-family="PangMenZhengDao" letter-spacing="2" >万次</tspan></text></g></g><g id="文本 1" filter="url(#filter_106)"><g opacity="1" transform="translate(488 296)  rotate(0 1 14)"><text><tspan x="0" y="20.6" font-size="20" line-height="28" fill="#E5E5E5" opacity="1" font-family="PangMenZhengDao" letter-spacing="2" ></tspan></text></g></g><g id="文本 1" filter="url(#filter_108)"><g opacity="1" transform="translate(488 207)  rotate(0 29 14)"><text><tspan x="0" y="20.6" font-size="20" line-height="28" fill="#E5E5E5" opacity="1" font-family="PangMenZhengDao" letter-spacing="2" >km/h</tspan></text></g></g><g id="文本 1" filter="url(#filter_110)"><g opacity="1" transform="translate(363 206)  rotate(0 31.5 14)"><text><tspan x="0" y="21.92" font-size="24" line-height="28" fill="#45DBFF" opacity="1" font-family="PangMenZhengDao" letter-spacing="2" >119.0</tspan></text></g></g><g opacity="1" transform="translate(165 439)  rotate(0 13 13)"><mask id="bg-mask-0" fill="white"><use xlink:href="#path_0"></use></mask><g mask="url(#bg-mask-0)" ><path id="分组 1" fill-rule="evenodd" style="fill:#005BFF" transform="translate(2.4374985714542805 0.8129378662327461)  rotate(0 10.56250121877461 12.187176396930006)" opacity="1" d="M4.13491 13.272C3.75491 13.042 3.25491 13.182 3.03491 13.572C2.80491 13.962 2.94491 14.462 3.33491 14.682L7.38491 16.982C7.77491 17.202 8.27491 17.072 8.49491 16.682C8.71491 16.292 8.57491 15.792 8.18491 15.572L4.13491 13.272Z M3.33491 8.83161L9.76491 12.4916L9.76491 20.3116C9.76491 20.6016 9.92491 20.8716 10.1749 21.0116C10.4249 21.1616 10.7349 21.1616 10.9849 21.0116C11.2349 20.8716 11.3949 20.6016 11.3949 20.3116L11.3949 12.4616C11.3949 12.4316 11.3849 12.4116 11.3749 12.3816L17.6249 8.83161C18.0149 8.61161 18.1549 8.11161 17.9349 7.72161C17.7149 7.33161 17.2149 7.19161 16.8249 7.42161L10.4849 11.0316L4.13491 7.42161C3.75491 7.19161 3.25491 7.33161 3.03491 7.72161C2.80491 8.11161 2.94491 8.61161 3.33491 8.83161Z M0 7.21L0 17.3C0 18.19 0.47 19 1.24 19.44L9.36 24.06C10.11 24.48 11.02 24.48 11.76 24.06L19.89 19.44C20.65 19 21.13 18.19 21.13 17.3L21.13 7.21C21.13 6.34 20.66 5.53 19.91 5.09L11.79 0.33C11.03 -0.11 10.09 -0.11 9.33 0.33L1.21 5.09C0.46 5.53 0 6.34 0 7.21Z M19.095 6.5039L10.965 1.7439C10.715 1.5939 10.405 1.5939 10.155 1.7439L2.025 6.5039C1.775 6.6439 1.625 6.9139 1.625 7.2039L1.625 17.3039C1.625 17.6039 1.785 17.8739 2.035 18.0139L10.165 22.6339C10.415 22.7739 10.715 22.7739 10.965 22.6339L19.085 18.0139C19.345 17.8739 19.505 17.6039 19.505 17.3039L19.505 7.2039C19.505 6.9139 19.345 6.6439 19.095 6.5039Z M13.5429 12.9519C13.0129 13.2619 12.5929 13.9419 12.5929 14.4719L12.5929 18.9519C12.5929 19.4819 13.0129 19.6619 13.5429 19.3519L17.3329 17.1119C17.8529 16.8019 18.2829 16.1219 18.2829 15.5919L18.2829 11.1119C18.2829 10.5819 17.8529 10.4019 17.3329 10.7119L13.5429 12.9519Z " /></g></g><g opacity="1" transform="translate(427 589)  rotate(0 30.5 23)"><g id="文本 1" filter="url(#filter_118)"><g opacity="1" transform="translate(0 18)  rotate(0 3 14)"><text><tspan x="0" y="21.92" font-size="24" line-height="28" fill="#C2C2C2" opacity="1" font-family="PangMenZhengDao" letter-spacing="0" >:</tspan></text></g></g><g opacity="1" transform="translate(25 0)  rotate(0 18 18)"><mask id="bg-mask-1" fill="white"><use xlink:href="#path_1"></use></mask><g mask="url(#bg-mask-1)" ><path id="分组 1" fill-rule="evenodd" style="fill:#45DBFF" transform="translate(3.044241575502687 2.350717458297461)  rotate(0 14.793765394559259 15.709249209834486)" opacity="1" d="M20.0483 26.0537L21.7783 30.6737C21.9983 31.2537 22.6483 31.5437 23.2283 31.3237C23.8083 31.1137 24.0983 30.4637 23.8883 29.8837L16.7483 10.8837C17.3983 10.3537 17.7683 9.56366 17.7683 8.73366C17.7683 7.18366 16.5083 5.92366 14.9583 5.92366C13.4083 5.92366 12.1383 7.18366 12.1383 8.73366C12.1383 9.60366 12.5483 10.3637 13.1583 10.8837L6.02833 29.8737C5.87833 30.2537 5.94833 30.6837 6.19833 31.0037C6.45833 31.3137 6.85833 31.4737 7.26833 31.4037C7.66833 31.3337 7.99833 31.0537 8.13833 30.6737L9.86833 26.0537L20.0483 26.0537Z M14.9553 12.5049L13.2053 17.1649L16.7053 17.1649L14.9553 12.5049Z M19.2023 23.8047L17.5523 19.4147L12.3623 19.4147L10.7123 23.8047L19.2023 23.8047Z M22.116 3.56746C21.896 3.22746 21.506 3.03746 21.096 3.05746C20.696 3.08746 20.336 3.32746 20.156 3.69746C19.976 4.05746 20.016 4.48746 20.246 4.82746C20.986 5.93746 21.386 7.23746 21.376 8.57746C21.386 9.90746 20.986 11.2175 20.246 12.3275C20.006 12.6575 19.966 13.0975 20.146 13.4675C20.326 13.8375 20.686 14.0775 21.096 14.0975C21.506 14.1275 21.896 13.9275 22.116 13.5775C23.106 12.0975 23.636 10.3575 23.626 8.57746C23.636 6.79746 23.106 5.04746 22.116 3.56746Z M7.15062 3.57346C6.16062 5.05346 5.63062 6.79346 5.63062 8.57346C5.63062 10.3535 6.16062 12.0935 7.15062 13.5735C7.37062 13.9135 7.76062 14.1035 8.16062 14.0735C8.56062 14.0435 8.91062 13.8035 9.09062 13.4435C9.27062 13.0835 9.24062 12.6535 9.02062 12.3235C8.27062 11.2135 7.88062 9.91346 7.88062 8.57346C7.88062 7.24346 8.27062 5.93346 9.02062 4.82346C9.36062 4.30346 9.22062 3.61346 8.71062 3.26346C8.19062 2.92346 7.49062 3.05346 7.15062 3.57346Z M4.36 1.76598C4.59 1.43598 4.61 1.00598 4.44 0.645978C4.26 0.285978 3.9 0.045978 3.5 0.015978C3.1 -0.00402204 2.71 0.185978 2.49 0.515978C0.86 2.94598 0 5.80598 0 8.73598C0 11.666 0.86 14.526 2.49 16.956C2.66 17.206 2.92 17.376 3.21 17.436C3.5 17.496 3.81 17.436 4.05 17.266C4.3 17.096 4.47 16.846 4.53 16.546C4.59 16.256 4.53 15.956 4.36 15.706C2.98 13.646 2.25 11.216 2.25 8.73598C2.25 6.25598 2.98 3.82598 4.36 1.76598Z M25.2249 1.77C26.6049 3.83 27.3449 6.25 27.3349 8.74C27.3449 11.22 26.6049 13.64 25.2249 15.7C24.9049 16.22 25.0549 16.9 25.5549 17.23C26.0549 17.57 26.7449 17.45 27.0949 16.96C28.7249 14.53 29.5949 11.66 29.5849 8.74C29.5849 6.78 29.2049 4.87 28.4649 3.07C28.0949 2.18 27.6349 1.32 27.0949 0.52C26.8749 0.17 26.4849 -0.02 26.0849 0C25.6749 0.03 25.3149 0.27 25.1349 0.63C24.9649 1 24.9949 1.43 25.2249 1.77Z " /></g></g></g><path  id="路径 29" style="stroke:#45DBFF; stroke-width:1; stroke-opacity:0.5; stroke-dasharray:5 6" transform="translate(82 587)  rotate(0 142 17)" d="M0,0L0,34L284,34 " /><g id="文本 1" filter="url(#filter_126)"><g opacity="1" transform="translate(69 268)  rotate(0 34 14)"><text><tspan x="0" y="25.88" font-size="36" line-height="28" fill="#45DBFF" opacity="1" font-family="PangMenZhengDao" letter-spacing="0" >85.1</tspan></text></g></g><g id="文本 1" filter="url(#filter_128)"><g opacity="1" transform="translate(72.94 295)  rotate(0 30 14)"><text><tspan x="0" y="21.92" font-size="24" line-height="28" fill="#FFFFFF" opacity="1" font-family="PangMenZhengDao" letter-spacing="0" >km/h</tspan></text></g></g></g></svg>