<svg xmlns="http://www.w3.org/2000/svg" xmlns:xlink="http://www.w3.org/1999/xlink" width="602" height="821" viewBox="0 0 602 821" fill="none"><defs><linearGradient id="linear_0" x1="50%" y1="0%" x2="51%" y2="100%" gradientUnits="objectBoundingBox"><stop offset="0" stop-color="#FFFFFF" stop-opacity="0" /><stop offset="1" stop-color="#FFFFFF" stop-opacity="0.1" /></linearGradient><filter id="filter_14" x="-8" y="-8" width="58" height="54" filterUnits="userSpaceOnUse" color-interpolation-filters="sRGB"><feFlood flood-opacity="0" result="BackgroundImageFix"/>
          <feColorMatrix in="SourceAlpha" type="matrix" values="0 0 0 0 0 0 0 0 0 0 0 0 0 0 0 0 0 0 127 0"/>
          <feOffset dx="2" dy="0"/>
          <feGaussianBlur stdDeviation="4"/>
          <feColorMatrix type="matrix" values="0 0 0 0 0 0 0 0 0 0 0 0 0 0 0 0 0 0 0.25 0"/>
          <feBlend mode="normal" in2="BackgroundImageFix" result="effect1_Shadow"/>
          <feBlend mode="normal" in="SourceGraphic" in2="effect1_Shadow" result="shape"/></filter><linearGradient id="linear_1" x1="0%" y1="50%" x2="100%" y2="50%" gradientUnits="objectBoundingBox"><stop offset="0" stop-color="#FFFFFF" stop-opacity="0" /><stop offset="0.5027" stop-color="#FFFFFF" stop-opacity="0.5" /><stop offset="1" stop-color="#FFFFFF" stop-opacity="0" /></linearGradient><filter id="filter_30" x="20" y="1" width="120" height="36" filterUnits="userSpaceOnUse" color-interpolation-filters="sRGB"><feFlood flood-opacity="0" result="BackgroundImageFix"/>
          <feColorMatrix in="SourceAlpha" type="matrix" values="0 0 0 0 0 0 0 0 0 0 0 0 0 0 0 0 0 0 127 0"/>
          <feOffset dx="0" dy="2"/>
          <feGaussianBlur stdDeviation="2"/>
          <feColorMatrix type="matrix" values="0 0 0 0 0 0 0 0 0 0 0 0 0 0 0 0 0 0 0.4 0"/>
          <feBlend mode="normal" in2="BackgroundImageFix" result="effect1_Shadow"/>
          <feBlend mode="normal" in="SourceGraphic" in2="effect1_Shadow" result="shape"/></filter><filter id="filter_34" x="384" y="1" width="122" height="36" filterUnits="userSpaceOnUse" color-interpolation-filters="sRGB"><feFlood flood-opacity="0" result="BackgroundImageFix"/>
          <feColorMatrix in="SourceAlpha" type="matrix" values="0 0 0 0 0 0 0 0 0 0 0 0 0 0 0 0 0 0 127 0"/>
          <feOffset dx="0" dy="2"/>
          <feGaussianBlur stdDeviation="2"/>
          <feColorMatrix type="matrix" values="0 0 0 0 0 0 0 0 0 0 0 0 0 0 0 0 0 0 0.4 0"/>
          <feBlend mode="normal" in2="BackgroundImageFix" result="effect1_Shadow"/>
          <feBlend mode="normal" in="SourceGraphic" in2="effect1_Shadow" result="shape"/></filter><filter id="filter_40" x="20" y="-4" width="177" height="36" filterUnits="userSpaceOnUse" color-interpolation-filters="sRGB"><feFlood flood-opacity="0" result="BackgroundImageFix"/>
          <feColorMatrix in="SourceAlpha" type="matrix" values="0 0 0 0 0 0 0 0 0 0 0 0 0 0 0 0 0 0 127 0"/>
          <feOffset dx="0" dy="2"/>
          <feGaussianBlur stdDeviation="2"/>
          <feColorMatrix type="matrix" values="0 0 0 0 0 0 0 0 0 0 0 0 0 0 0 0 0 0 0.4 0"/>
          <feBlend mode="normal" in2="BackgroundImageFix" result="effect1_Shadow"/>
          <feBlend mode="normal" in="SourceGraphic" in2="effect1_Shadow" result="shape"/></filter><filter id="filter_44" x="13" y="5" width="91" height="36" filterUnits="userSpaceOnUse" color-interpolation-filters="sRGB"><feFlood flood-opacity="0" result="BackgroundImageFix"/>
          <feColorMatrix in="SourceAlpha" type="matrix" values="0 0 0 0 0 0 0 0 0 0 0 0 0 0 0 0 0 0 127 0"/>
          <feOffset dx="0" dy="2"/>
          <feGaussianBlur stdDeviation="2"/>
          <feColorMatrix type="matrix" values="0 0 0 0 0 0 0 0 0 0 0 0 0 0 0 0 0 0 0.4 0"/>
          <feBlend mode="normal" in2="BackgroundImageFix" result="effect1_Shadow"/>
          <feBlend mode="normal" in="SourceGraphic" in2="effect1_Shadow" result="shape"/></filter><filter id="filter_46" x="13" y="111" width="103" height="36" filterUnits="userSpaceOnUse" color-interpolation-filters="sRGB"><feFlood flood-opacity="0" result="BackgroundImageFix"/>
          <feColorMatrix in="SourceAlpha" type="matrix" values="0 0 0 0 0 0 0 0 0 0 0 0 0 0 0 0 0 0 127 0"/>
          <feOffset dx="0" dy="2"/>
          <feGaussianBlur stdDeviation="2"/>
          <feColorMatrix type="matrix" values="0 0 0 0 0 0 0 0 0 0 0 0 0 0 0 0 0 0 0.4 0"/>
          <feBlend mode="normal" in2="BackgroundImageFix" result="effect1_Shadow"/>
          <feBlend mode="normal" in="SourceGraphic" in2="effect1_Shadow" result="shape"/></filter><filter id="filter_48" x="396" y="54" width="105" height="36" filterUnits="userSpaceOnUse" color-interpolation-filters="sRGB"><feFlood flood-opacity="0" result="BackgroundImageFix"/>
          <feColorMatrix in="SourceAlpha" type="matrix" values="0 0 0 0 0 0 0 0 0 0 0 0 0 0 0 0 0 0 127 0"/>
          <feOffset dx="0" dy="2"/>
          <feGaussianBlur stdDeviation="2"/>
          <feColorMatrix type="matrix" values="0 0 0 0 0 0 0 0 0 0 0 0 0 0 0 0 0 0 0.4 0"/>
          <feBlend mode="normal" in2="BackgroundImageFix" result="effect1_Shadow"/>
          <feBlend mode="normal" in="SourceGraphic" in2="effect1_Shadow" result="shape"/></filter><filter id="filter_50" x="396" y="160" width="106" height="36" filterUnits="userSpaceOnUse" color-interpolation-filters="sRGB"><feFlood flood-opacity="0" result="BackgroundImageFix"/>
          <feColorMatrix in="SourceAlpha" type="matrix" values="0 0 0 0 0 0 0 0 0 0 0 0 0 0 0 0 0 0 127 0"/>
          <feOffset dx="0" dy="2"/>
          <feGaussianBlur stdDeviation="2"/>
          <feColorMatrix type="matrix" values="0 0 0 0 0 0 0 0 0 0 0 0 0 0 0 0 0 0 0.4 0"/>
          <feBlend mode="normal" in2="BackgroundImageFix" result="effect1_Shadow"/>
          <feBlend mode="normal" in="SourceGraphic" in2="effect1_Shadow" result="shape"/></filter><filter id="filter_52" x="116" y="7" width="230" height="36" filterUnits="userSpaceOnUse" color-interpolation-filters="sRGB"><feFlood flood-opacity="0" result="BackgroundImageFix"/>
          <feColorMatrix in="SourceAlpha" type="matrix" values="0 0 0 0 0 0 0 0 0 0 0 0 0 0 0 0 0 0 127 0"/>
          <feOffset dx="0" dy="2"/>
          <feGaussianBlur stdDeviation="2"/>
          <feColorMatrix type="matrix" values="0 0 0 0 0 0 0 0 0 0 0 0 0 0 0 0 0 0 0.4 0"/>
          <feBlend mode="normal" in2="BackgroundImageFix" result="effect1_Shadow"/>
          <feBlend mode="normal" in="SourceGraphic" in2="effect1_Shadow" result="shape"/></filter><filter id="filter_54" x="120" y="113" width="230" height="36" filterUnits="userSpaceOnUse" color-interpolation-filters="sRGB"><feFlood flood-opacity="0" result="BackgroundImageFix"/>
          <feColorMatrix in="SourceAlpha" type="matrix" values="0 0 0 0 0 0 0 0 0 0 0 0 0 0 0 0 0 0 127 0"/>
          <feOffset dx="0" dy="2"/>
          <feGaussianBlur stdDeviation="2"/>
          <feColorMatrix type="matrix" values="0 0 0 0 0 0 0 0 0 0 0 0 0 0 0 0 0 0 0.4 0"/>
          <feBlend mode="normal" in2="BackgroundImageFix" result="effect1_Shadow"/>
          <feBlend mode="normal" in="SourceGraphic" in2="effect1_Shadow" result="shape"/></filter><filter id="filter_56" x="160" y="56" width="232" height="36" filterUnits="userSpaceOnUse" color-interpolation-filters="sRGB"><feFlood flood-opacity="0" result="BackgroundImageFix"/>
          <feColorMatrix in="SourceAlpha" type="matrix" values="0 0 0 0 0 0 0 0 0 0 0 0 0 0 0 0 0 0 127 0"/>
          <feOffset dx="0" dy="2"/>
          <feGaussianBlur stdDeviation="2"/>
          <feColorMatrix type="matrix" values="0 0 0 0 0 0 0 0 0 0 0 0 0 0 0 0 0 0 0.4 0"/>
          <feBlend mode="normal" in2="BackgroundImageFix" result="effect1_Shadow"/>
          <feBlend mode="normal" in="SourceGraphic" in2="effect1_Shadow" result="shape"/></filter><filter id="filter_58" x="160" y="162" width="232" height="36" filterUnits="userSpaceOnUse" color-interpolation-filters="sRGB"><feFlood flood-opacity="0" result="BackgroundImageFix"/>
          <feColorMatrix in="SourceAlpha" type="matrix" values="0 0 0 0 0 0 0 0 0 0 0 0 0 0 0 0 0 0 127 0"/>
          <feOffset dx="0" dy="2"/>
          <feGaussianBlur stdDeviation="2"/>
          <feColorMatrix type="matrix" values="0 0 0 0 0 0 0 0 0 0 0 0 0 0 0 0 0 0 0.4 0"/>
          <feBlend mode="normal" in2="BackgroundImageFix" result="effect1_Shadow"/>
          <feBlend mode="normal" in="SourceGraphic" in2="effect1_Shadow" result="shape"/></filter><linearGradient id="linear_2" x1="0%" y1="50%" x2="100%" y2="50%" gradientUnits="objectBoundingBox"><stop offset="0" stop-color="#ABABAB" stop-opacity="0.2" /><stop offset="1" stop-color="#074870" stop-opacity="1" /></linearGradient><linearGradient id="linear_3" x1="0%" y1="50%" x2="100%" y2="50%" gradientUnits="objectBoundingBox"><stop offset="0" stop-color="#ABABAB" stop-opacity="0.2" /><stop offset="1" stop-color="#074870" stop-opacity="1" /></linearGradient><linearGradient id="linear_4" x1="100%" y1="50%" x2="0%" y2="50%" gradientUnits="objectBoundingBox"><stop offset="0" stop-color="#ABABAB" stop-opacity="0.2" /><stop offset="1" stop-color="#074870" stop-opacity="1" /></linearGradient><linearGradient id="linear_5" x1="100%" y1="50%" x2="0%" y2="50%" gradientUnits="objectBoundingBox"><stop offset="0" stop-color="#ABABAB" stop-opacity="0.2" /><stop offset="1" stop-color="#074870" stop-opacity="1" /></linearGradient><filter id="filter_140" x="48" y="463" width="56" height="36" filterUnits="userSpaceOnUse" color-interpolation-filters="sRGB"><feFlood flood-opacity="0" result="BackgroundImageFix"/>
          <feColorMatrix in="SourceAlpha" type="matrix" values="0 0 0 0 0 0 0 0 0 0 0 0 0 0 0 0 0 0 127 0"/>
          <feOffset dx="0" dy="2"/>
          <feGaussianBlur stdDeviation="2"/>
          <feColorMatrix type="matrix" values="0 0 0 0 0 0 0 0 0 0 0 0 0 0 0 0 0 0 0.4 0"/>
          <feBlend mode="normal" in2="BackgroundImageFix" result="effect1_Shadow"/>
          <feBlend mode="normal" in="SourceGraphic" in2="effect1_Shadow" result="shape"/></filter><filter id="filter_142" x="100" y="463" width="29" height="36" filterUnits="userSpaceOnUse" color-interpolation-filters="sRGB"><feFlood flood-opacity="0" result="BackgroundImageFix"/>
          <feColorMatrix in="SourceAlpha" type="matrix" values="0 0 0 0 0 0 0 0 0 0 0 0 0 0 0 0 0 0 127 0"/>
          <feOffset dx="0" dy="2"/>
          <feGaussianBlur stdDeviation="2"/>
          <feColorMatrix type="matrix" values="0 0 0 0 0 0 0 0 0 0 0 0 0 0 0 0 0 0 0.4 0"/>
          <feBlend mode="normal" in2="BackgroundImageFix" result="effect1_Shadow"/>
          <feBlend mode="normal" in="SourceGraphic" in2="effect1_Shadow" result="shape"/></filter></defs><g opacity="1" transform="translate(1 8)  rotate(0 300 397)"><g opacity="1" transform="translate(0 0)  rotate(0 300 406)"><path id="矩形" fill-rule="evenodd" fill="url(#linear_0)" transform="translate(0 19)  rotate(0 300 396.5)" opacity="1" d="M24,407L576,407C589.25,407 600,396.25 600,383L600,24C600,10.75 589.25,0 576,0L24,0C10.75,0 0,10.75 0,24L0,383C0,396.25 10.75,407 24,407Z " /><path  id="路径" style="stroke:#FFFFFF; stroke-width:2; stroke-opacity:0.4; stroke-dasharray:0 0" transform="translate(0 18.5)  rotate(0 12 396.5)" d="M24,0L24,0C17.63,0 11.53,2.53 7.03,7.03C2.53,11.53 0,17.63 0,24L0,383C0,389.37 2.53,395.47 7.03,399.97C11.53,404.47 17.63,407 24,407 " /><path  id="路径" style="stroke:#FFFFFF; stroke-width:2; stroke-opacity:0.4; stroke-dasharray:0 0" transform="translate(576 19)  rotate(0 12.000000000000007 396.5)" d="M0,0L0,0C13.25,0 24,10.75 24,24L24,383C24,389.37 21.47,395.47 16.97,399.97C12.47,404.47 6.37,407 0,407 " /><path id="矩形" fill-rule="evenodd" style="fill:#272E39" transform="translate(30 0)  rotate(0 19 19)" opacity="1" d="M19,38L38,38L38,0L19,0C13.96,0 9.13,2 5.56,5.56C2,9.13 0,13.96 0,19L0,19C0,24.04 2,28.87 5.56,32.44C9.13,36 13.96,38 19,38Z " /><path id="圆形" fill-rule="evenodd" style="fill:#45DBFF" transform="translate(46 14)  rotate(0 5 5)" opacity="1" d="M5,0C2.24,0 0,2.24 0,5C0,7.76 2.24,10 5,10C7.76,10 10,7.76 10,5C10,2.24 7.76,0 5,0Z " /><g opacity="1" transform="translate(74 0)  rotate(0 21 19)"><g id="undefined" filter="url(#filter_14)"></g></g><path id="路径" fill-rule="evenodd" style="fill:#4E555D" transform="translate(549 12)  rotate(0 3.5000000000000004 7)" opacity="1" d="M0,0L0,14L7,7L0,0Z " /><g opacity="1" transform="translate(40 810)  rotate(0 260 1)"><path id="路径" style="stroke:url(#linear_1); stroke-width:2; stroke-opacity:100; stroke-dasharray:0 0" transform="translate(0 1)  rotate(0 259.99999999950404 0.0005078181898807272)" d="M0,0L520,0 " /><path id="矩形" fill-rule="evenodd" style="fill:#AAAAAA" transform="translate(516 0)  rotate(0 2 1)" opacity="1" d="M0,2L4,2L4,0L0,0L0,2Z " /><path id="矩形" fill-rule="evenodd" style="fill:#AAAAAA" transform="translate(0 0)  rotate(0 2 1)" opacity="1" d="M0,2L4,2L4,0L0,0L0,2Z " /></g></g><g opacity="1" transform="translate(38 84)  rotate(0 262 19)"><path id="矩形 6" fill-rule="evenodd" style="fill:#45DBFF" transform="translate(0 5.5)  rotate(0 2 13.5)" opacity="1" d="M0,27L4,27L4,0L0,0L0,27Z " /><g id="文本 1" filter="url(#filter_30)"><g opacity="1" transform="translate(24 5)  rotate(0 56 14)"><text><tspan x="0" y="23.240000000000002" font-size="28" line-height="28" fill="#C2C2C2" opacity="1" font-family="PangMenZhengDao" letter-spacing="2" >基础统计</tspan></text></g></g><path id="矩形" fill-rule="evenodd" style="fill:#252C36" transform="translate(143 0)  rotate(0 190.5 19)" opacity="1" d="M0,38L362,38C367.04,38 371.87,36 375.44,32.44C379,28.87 381,24.04 381,19L381,19C381,13.96 379,9.13 375.44,5.56C371.87,2 367.04,0 362,0L0,0L0,38Z " /><g id="文本 1" filter="url(#filter_34)"><g opacity="1" transform="translate(388 5)  rotate(0 57 14)"><text><tspan x="0" y="23.240000000000002" font-size="28" line-height="28" fill="#C2C2C2" opacity="1" font-family="PangMenZhengDao" letter-spacing="2" >运行状态</tspan></text></g></g></g><g opacity="1" transform="translate(52 398)  rotate(0 96.5 14)"><path id="矩形 6" fill-rule="evenodd" style="fill:#45DBFF" transform="translate(0 0.5)  rotate(0 2 13.5)" opacity="1" d="M0,27L4,27L4,0L0,0L0,27Z " /><g id="文本 1" filter="url(#filter_40)"><g opacity="1" transform="translate(24 0)  rotate(0 84.5 14)"><text><tspan x="0" y="23.240000000000002" font-size="28" line-height="28" fill="#C2C2C2" opacity="1" font-family="PangMenZhengDao" letter-spacing="2" >同时运行设备</tspan></text></g></g></g><g opacity="1" transform="translate(52 151)  rotate(0 252.49999999999997 101.00689655172414)"><g id="文本 1" filter="url(#filter_44)"><g opacity="1" transform="translate(17 9)  rotate(0 41.5 14)"><text><tspan x="0" y="25.88" font-size="36" line-height="28" fill="#45DBFF" opacity="1" font-family="PangMenZhengDao" letter-spacing="2" >阶段1</tspan></text></g></g><g id="文本 1" filter="url(#filter_46)"><g opacity="1" transform="translate(17 115)  rotate(0 47.5 14)"><text><tspan x="0" y="25.88" font-size="36" line-height="28" fill="#45DBFF" opacity="1" font-family="PangMenZhengDao" letter-spacing="2" >阶段3</tspan></text></g></g><g id="文本 1" filter="url(#filter_48)"><g opacity="1" transform="translate(400 58)  rotate(0 48.5 14)"><text><tspan x="0" y="25.88" font-size="36" line-height="28" fill="#45DBFF" opacity="1" font-family="PangMenZhengDao" letter-spacing="2" >阶段2</tspan></text></g></g><g id="文本 1" filter="url(#filter_50)"><g opacity="1" transform="translate(400 164)  rotate(0 49 14)"><text><tspan x="0" y="25.88" font-size="36" line-height="28" fill="#45DBFF" opacity="1" font-family="PangMenZhengDao" letter-spacing="2" >阶段4</tspan></text></g></g><g id="文本 1" filter="url(#filter_52)"><g opacity="1" transform="translate(120 11)  rotate(0 111 14)"><text><tspan x="0" y="22.58" font-size="26" line-height="28" fill="#A6A6A6" opacity="1" font-family="PangMenZhengDao" letter-spacing="5" >1沟缺氧,2沟好氧</tspan></text></g></g><g id="文本 1" filter="url(#filter_54)"><g opacity="1" transform="translate(124 117)  rotate(0 111 14)"><text><tspan x="0" y="22.58" font-size="26" line-height="28" fill="#A6A6A6" opacity="1" font-family="PangMenZhengDao" letter-spacing="5" >1沟好氧,2沟缺氧</tspan></text></g></g><g id="文本 1" filter="url(#filter_56)"><g opacity="1" transform="translate(164 60)  rotate(0 112 14)"><text><tspan x="0" y="22.58" font-size="26" line-height="28" fill="#A6A6A6" opacity="1" font-family="PangMenZhengDao" letter-spacing="5" >1沟好氧,2沟好氧</tspan></text></g></g><g id="文本 1" filter="url(#filter_58)"><g opacity="1" transform="translate(164 166)  rotate(0 112 14)"><text><tspan x="0" y="22.58" font-size="26" line-height="28" fill="#A6A6A6" opacity="1" font-family="PangMenZhengDao" letter-spacing="5" >1沟好氧,2沟好氧</tspan></text></g></g><path id="矩形 1" style="stroke:url(#linear_2); stroke-width:1.9152000000000002; stroke-opacity:100; stroke-dasharray:0 0" transform="translate(0 0)  rotate(0 138.99999999999997 23.006896551724136)" d="M33.36,0L22.98,0C10.29,0 0,10.29 0,22.98L0,23.03C0,35.72 10.29,46.01 22.98,46.01L278,46.01 " /><path id="矩形 1" style="stroke:url(#linear_3); stroke-width:1.9152000000000002; stroke-opacity:100; stroke-dasharray:0 0" transform="translate(0 106)  rotate(0 138.99999999999997 23.006896551724136)" d="M33.36,0L22.98,0C10.29,0 0,10.29 0,22.98L0,23.03C0,35.72 10.29,46.01 22.98,46.01L278,46.01 " /><path id="矩形 1" style="stroke:url(#linear_4); stroke-width:1.9152000000000002; stroke-opacity:100; stroke-dasharray:0 0" transform="translate(227 50)  rotate(0 138.99999999999997 23.006896551724136)" d="M244.64,0L255.02,0C267.71,0 278,10.29 278,22.98L278,23.03C278,35.72 267.71,46.01 255.02,46.01L0,46.01 " /><path id="矩形 1" style="stroke:url(#linear_5); stroke-width:1.9152000000000002; stroke-opacity:100; stroke-dasharray:0 0" transform="translate(227 156)  rotate(0 138.99999999999997 23.006896551724136)" d="M244.64,0L255.02,0C267.71,0 278,10.29 278,22.98L278,23.03C278,35.72 267.71,46.01 255.02,46.01L0,46.01 " /></g><path id="直线 1"  style="fill:#CCCCCC" transform="translate(109 723)  rotate(0 226.49991111287477 0.0005)" opacity="1" d="" /><path  id="直线 1" style="stroke:#A6A6A6; stroke-width:2; stroke-opacity:1; stroke-dasharray:0 0" transform="translate(109 723)  rotate(0 226.49991111287477 0.0005)" d="M0,0L453,0 " /><g opacity="1" transform="translate(115 734)  rotate(0 28 11)"><text><tspan x="0" y="17.2" font-size="20" line-height="0" fill="#A6A6A6" opacity="1" font-family="PangMenZhengDao" letter-spacing="0" >粗格栅</tspan></text></g><g opacity="1" transform="translate(69 712)  rotate(0 7.5 11)"><text><tspan x="0" y="17.2" font-size="20" line-height="0" fill="#A6A6A6" opacity="1" font-family="PangMenZhengDao" letter-spacing="0" >0</tspan></text></g><g opacity="1" transform="translate(69 666)  rotate(0 7 11)"><text><tspan x="0" y="17.2" font-size="20" line-height="0" fill="#A6A6A6" opacity="1" font-family="PangMenZhengDao" letter-spacing="0" >2</tspan></text></g><g opacity="1" transform="translate(69 620)  rotate(0 7.5 11)"><text><tspan x="0" y="17.2" font-size="20" line-height="0" fill="#A6A6A6" opacity="1" font-family="PangMenZhengDao" letter-spacing="0" >4</tspan></text></g><g opacity="1" transform="translate(69 572)  rotate(0 7 11)"><text><tspan x="0" y="17.2" font-size="20" line-height="0" fill="#A6A6A6" opacity="1" font-family="PangMenZhengDao" letter-spacing="0" >6</tspan></text></g><g opacity="1" transform="translate(420 548)  rotate(0 7 11)"><text><tspan x="0" y="17.2" font-size="20" line-height="0" fill="#45DBFF" opacity="1" font-family="PangMenZhengDao" letter-spacing="0" >6</tspan></text></g><g opacity="1" transform="translate(69 525)  rotate(0 7.5 11)"><text><tspan x="0" y="17.2" font-size="20" line-height="0" fill="#A6A6A6" opacity="1" font-family="PangMenZhengDao" letter-spacing="0" >8</tspan></text></g><g opacity="1" transform="translate(552 467)  rotate(0 9.5 11)"><text><tspan x="0" y="17.2" font-size="20" line-height="0" fill="#A6A6A6" opacity="1" font-family="PangMenZhengDao" letter-spacing="0" >月</tspan></text></g><g opacity="1" transform="translate(207 734)  rotate(0 28 11)"><text><tspan x="0" y="17.2" font-size="20" line-height="0" fill="#A6A6A6" opacity="1" font-family="PangMenZhengDao" letter-spacing="0" >厌氧池</tspan></text></g><g opacity="1" transform="translate(307 734)  rotate(0 28 11)"><text><tspan x="0" y="17.2" font-size="20" line-height="0" fill="#A6A6A6" opacity="1" font-family="PangMenZhengDao" letter-spacing="0" >提升泵</tspan></text></g><g opacity="1" transform="translate(399 734)  rotate(0 28.5 11)"><text><tspan x="0" y="17.2" font-size="20" line-height="0" fill="#45DBFF" opacity="1" font-family="PangMenZhengDao" letter-spacing="0" >出水井</tspan></text></g><g opacity="1" transform="translate(492 734)  rotate(0 28.5 11)"><text><tspan x="0" y="17.2" font-size="20" line-height="0" fill="#A6A6A6" opacity="1" font-family="PangMenZhengDao" letter-spacing="0" >离心机</tspan></text></g><path id="直线 2"  style="fill:#CCCCCC" transform="translate(111.01185988155208 676)  rotate(0 225.50902449000617 0.0005)" opacity="1" d="" /><path  id="直线 2" style="stroke:#736C6C; stroke-width:1; stroke-opacity:0.59; stroke-dasharray:4 4" transform="translate(111.01185988155208 676)  rotate(0 225.50902449000617 0.0005)" d="M0,0L451.02,0 " /><path id="直线 2"  style="fill:#CCCCCC" transform="translate(111.00000000000006 630)  rotate(0 225.50902449000617 0.0005)" opacity="1" d="" /><path  id="直线 2" style="stroke:#736C6C; stroke-width:1; stroke-opacity:0.59; stroke-dasharray:4 4" transform="translate(111.00000000000006 630)  rotate(0 225.50902449000617 0.0005)" d="M0,0L451.02,0 " /><path id="直线 2"  style="fill:#CCCCCC" transform="translate(111.00000000000006 583)  rotate(0 225.50902449000617 0.0005)" opacity="1" d="" /><path  id="直线 2" style="stroke:#736C6C; stroke-width:1; stroke-opacity:0.59; stroke-dasharray:4 4" transform="translate(111.00000000000006 583)  rotate(0 225.50902449000617 0.0005)" d="M0,0L451.02,0 " /><path id="直线 2"  style="fill:#CCCCCC" transform="translate(111.00000000000006 536)  rotate(0 225.50902449000617 0.0005)" opacity="1" d="" /><path  id="直线 2" style="stroke:#736C6C; stroke-width:1; stroke-opacity:0.59; stroke-dasharray:4 4" transform="translate(111.00000000000006 536)  rotate(0 225.50902449000617 0.0005)" d="M0,0L451.02,0 " /><path id="三角形 1" fill-rule="evenodd" style="fill:#CCCCCC" transform="translate(98.5 720.5)  rotate(90 2.5 2)" opacity="1" d="M0.33,3L4.67,3L2.5,0L0.33,3Z " /><g opacity="1" transform="translate(464.0000000000001 467)  rotate(0 24.9 11)"><g opacity="1" transform="translate(14.99999999999991 0)  rotate(0 9.5 11)"><text><tspan x="0" y="17.2" font-size="20" line-height="0" fill="#45DBFF" opacity="1" font-family="PangMenZhengDao" letter-spacing="0" >周</tspan></text></g><path id="三角形 1" fill-rule="evenodd" style="fill:#CCCCCC" transform="translate(-0.6000000000000001 8.600000000000023)  rotate(90 3 2.4)" opacity="1" d="M0.4,3.6L5.6,3.6L3,0L0.4,3.6Z " /><path id="三角形 1" fill-rule="evenodd" style="fill:#CCCCCC" transform="translate(44.4 8.600000000000023)  rotate(-90 3 2.4)" opacity="1" d="M0.4,3.6L5.6,3.6L3,0L0.4,3.6Z " /></g><path id="矩形 3" fill-rule="evenodd" style="fill:#E5E5E5" transform="translate(138 622)  rotate(0 6 2.5)" opacity="1" d="M0,5L12,5L12,0L0,0L0,5Z " /><path id="矩形 3" fill-rule="evenodd" style="fill:#E5E5E5" transform="translate(231 668)  rotate(0 6 2.5)" opacity="1" d="M0,5L12,5L12,0L0,0L0,5Z " /><path id="矩形 3" fill-rule="evenodd" style="fill:#E5E5E5" transform="translate(326 528)  rotate(0 6 2.5)" opacity="1" d="M0,5L12,5L12,0L0,0L0,5Z " /><path id="矩形 3" fill-rule="evenodd" style="fill:#E5E5E5" transform="translate(420 574)  rotate(0 6 2.5)" opacity="1" d="M0,5L12,5L12,0L0,0L0,5Z " /><path id="矩形 3" fill-rule="evenodd" style="fill:#E5E5E5" transform="translate(514 624)  rotate(0 6 2.5)" opacity="1" d="M0,5L12,5L12,0L0,0L0,5Z " /><path  id="路径 1" style="stroke:#A6A6A6; stroke-width:0.8; stroke-opacity:1; stroke-dasharray:0 0" transform="translate(99 676.5)  rotate(0 4 1.857142857142857)" d="M0,3.71L3.71,0L8,0 " /><path  id="路径 1" style="stroke:#A6A6A6; stroke-width:0.8; stroke-opacity:1; stroke-dasharray:0 0" transform="translate(99 629.5)  rotate(0 4 1.857142857142857)" d="M0,3.71L3.71,0L8,0 " /><path  id="路径 1" style="stroke:#A6A6A6; stroke-width:0.8; stroke-opacity:1; stroke-dasharray:0 0" transform="translate(99 582.5)  rotate(0 4 1.857142857142857)" d="M0,3.71L3.71,0L8,0 " /><path  id="路径 1" style="stroke:#A6A6A6; stroke-width:0.8; stroke-opacity:1; stroke-dasharray:0 0" transform="translate(100 535.5)  rotate(0 4 1.857142857142857)" d="M0,3.71L3.71,0L8,0 " /><path id="矩形 2" fill-rule="evenodd" style="fill:#A6A6A6" transform="translate(138 630)  rotate(0 6 46.5)" opacity="1" d="M0,93L12,93L12,0L0,0L0,93Z " /><path id="矩形 2" fill-rule="evenodd" style="fill:#A6A6A6" transform="translate(231 677)  rotate(0 6 23)" opacity="1" d="M0,46L12,46L12,0L0,0L0,46Z " /><path id="矩形 2" fill-rule="evenodd" style="fill:#A6A6A6" transform="translate(326 537)  rotate(0 5.5 93)" opacity="1" d="M0,186L11,186L11,0L0,0L0,186Z " /><path id="矩形 2" fill-rule="evenodd" style="fill:#45DBFF" transform="translate(420 583)  rotate(0 5.5 70)" opacity="1" d="M0,140L11,140L11,0L0,0L0,140Z " /><path id="矩形 2" fill-rule="evenodd" style="fill:#A6A6A6" transform="translate(514 633)  rotate(0 6 45)" opacity="1" d="M0,90L12,90L12,0L0,0L0,90Z " /><g id="文本 1" filter="url(#filter_140)"><g opacity="1" transform="translate(52 467)  rotate(0 24 14)"><text><tspan x="0" y="20.6" font-size="20" line-height="28" fill="#A6A6A6" opacity="1" font-family="PangMenZhengDao" letter-spacing="2" >单位:</tspan></text></g></g><g id="文本 1" filter="url(#filter_142)"><g opacity="1" transform="translate(104 467)  rotate(0 10.5 14)"><text><tspan x="0" y="20.6" font-size="20" line-height="28" fill="#E5E5E5" opacity="1" font-family="PangMenZhengDao" letter-spacing="2" >个</tspan></text></g></g></g></svg>