<svg xmlns="http://www.w3.org/2000/svg" xmlns:xlink="http://www.w3.org/1999/xlink" width="3312" height="1461" viewBox="0 0 3312 1461" fill="none"><defs><linearGradient id="linear_0" x1="50%" y1="0%" x2="51%" y2="100%" gradientUnits="objectBoundingBox"><stop offset="0" stop-color="#FFFFFF" stop-opacity="0.2" /><stop offset="0.5044" stop-color="#FFFFFF" stop-opacity="0" /><stop offset="1" stop-color="#FFFFFF" stop-opacity="0.2" /></linearGradient><linearGradient id="linear_1" x1="50%" y1="0%" x2="51%" y2="100%" gradientUnits="objectBoundingBox"><stop offset="0" stop-color="#FFFFFF" stop-opacity="0.2" /><stop offset="0.5044" stop-color="#FFFFFF" stop-opacity="0" /><stop offset="1" stop-color="#FFFFFF" stop-opacity="0.2" /></linearGradient><linearGradient id="linear_2" x1="0%" y1="50%" x2="100%" y2="50%" gradientUnits="objectBoundingBox"><stop offset="0" stop-color="#FFFFFF" stop-opacity="1" /><stop offset="1" stop-color="#FFFFFF" stop-opacity="0.5" /></linearGradient><linearGradient id="linear_3" x1="0%" y1="50%" x2="100%" y2="50%" gradientUnits="objectBoundingBox"><stop offset="0" stop-color="#FFFFFF" stop-opacity="0.5" /><stop offset="1" stop-color="#FFFFFF" stop-opacity="1" /></linearGradient><linearGradient id="linear_4" x1="50%" y1="0%" x2="51%" y2="100%" gradientUnits="objectBoundingBox"><stop offset="0" stop-color="#CCCCCC" stop-opacity="1" /><stop offset="1" stop-color="#CCCCCC" stop-opacity="0.01" /></linearGradient><linearGradient id="linear_5" x1="29.166999999999998%" y1="0%" x2="30.166999999999998%" y2="100%" gradientUnits="objectBoundingBox"><stop offset="0" stop-color="#CCCCCC" stop-opacity="1" /><stop offset="1" stop-color="#CCCCCC" stop-opacity="0.01" /></linearGradient></defs><g opacity="1" transform="translate(0.5 0)  rotate(0 1655.5 730.25)"><path  id="路径 18" style="stroke:#A6A6A6; stroke-width:1; stroke-opacity:1; stroke-dasharray:0 0" transform="translate(0 25)  rotate(0 0.0004999999999881766 20)" d="M0,0L0,40 " /><path  id="路径 19" style="stroke:#A6A6A6; stroke-width:1; stroke-opacity:1; stroke-dasharray:0 0" transform="translate(458 35)  rotate(0 3 10)" d="M0,0L6,0L6,20L0,20 " /><path  id="路径 19" style="stroke:#A6A6A6; stroke-width:1; stroke-opacity:1; stroke-dasharray:0 0" transform="translate(2487 33)  rotate(0 3 10)" d="M6,0L0,0L0,20L6,20 " /><path  id="路径" style="stroke:#A6A6A6; stroke-width:1; stroke-opacity:1; stroke-dasharray:0 0" transform="translate(2584 22)  rotate(0 0.5405405405405406 20)" d="M0,0L0,40 " /><path  id="路径" style="stroke:#A6A6A6; stroke-width:1; stroke-opacity:1; stroke-dasharray:0 0" transform="translate(2742 22)  rotate(0 0.5405405405405406 20)" d="M0,0L0,40 " /><path  id="路径" style="stroke:#A6A6A6; stroke-width:1; stroke-opacity:1; stroke-dasharray:0 0" transform="translate(2904 22)  rotate(0 0.0005 20)" d="M0,0L0,40 " /><path  id="路径" style="stroke:#A6A6A6; stroke-width:1; stroke-opacity:1; stroke-dasharray:0 0" transform="translate(3064 23)  rotate(0 0.0005 20)" d="M0,0L0,40 " /><path id="矩形 2" fill-rule="evenodd" style="fill:#45DBFF" transform="translate(3194 39)  rotate(0 9 3.5)" opacity="1" d="M0,7L18,7L18,0L0,0L0,7Z " /><path  id="路径 23" style="stroke:#A6A6A6; stroke-width:1; stroke-opacity:1; stroke-dasharray:0 0" transform="translate(3194 13)  rotate(0 58.5 27)" d="M0,54L63.77,54L117,0 " /><g opacity="1" transform="translate(3106 62)  rotate(0 5 1)"><text><tspan x="0" y="17.5" font-size="50" line-height="2" fill="#FFFFFF" opacity="1" font-family="PangMenZhengDao" letter-spacing="10" ></tspan></text></g><g opacity="1" transform="translate(3094 37)  rotate(0 20.5 15)"><text><tspan x="0" y="24.9" font-size="30" line-height="30" fill="#FFFFFF" opacity="1" font-family="PangMenZhengDao" letter-spacing="0" >30</tspan></text></g><g opacity="1" transform="translate(2994 25)  rotate(0 20 15)"><text><tspan x="0" y="24.9" font-size="30" line-height="30" fill="#FFFFFF" opacity="1" font-family="PangMenZhengDao" letter-spacing="0" >22</tspan></text></g><g opacity="1" transform="translate(2777 37)  rotate(0 32 15)"><text><tspan x="0" y="24.9" font-size="30" line-height="30" fill="#FFFFFF" opacity="1" font-family="PangMenZhengDao" letter-spacing="0" >11:34</tspan></text></g><g opacity="1" transform="translate(2646 27)  rotate(0 21 15)"><text><tspan x="0" y="24.9" font-size="30" line-height="30" fill="#45DBFF" opacity="1" font-family="PangMenZhengDao" letter-spacing="0" >85</tspan></text></g><g opacity="1" transform="translate(2777 17)  rotate(0 60 10)"><text><tspan x="0" y="16.6" font-size="20" line-height="20" fill="#FFFFFF" opacity="1" font-family="PangMenZhengDao" letter-spacing="0" >2022.08.20</tspan></text></g><g opacity="1" transform="translate(3029 25)  rotate(0 10 6)"><text><tspan x="0" y="9.96" font-size="12" line-height="12" fill="#FFFFFF" opacity="1" font-family="PangMenZhengDao" letter-spacing="0" >°C</tspan></text></g><g opacity="1" transform="translate(3094 17)  rotate(0 41.5 10)"><text><tspan x="0" y="16.6" font-size="20" line-height="20" fill="#FFFFFF" opacity="1" font-family="PangMenZhengDao" letter-spacing="0"  >PM</tspan><tspan x="31.480000000000004" y="16.6" font-size="20" line-height="20" fill="#FFFFFF" opacity="1" font-family="PangMenZhengDao" letter-spacing="0" > 2.5</tspan></text></g><path id="圆" style="stroke:url(#linear_0); stroke-width:1; stroke-opacity:100; stroke-dasharray:0 0" transform="translate(2620 0)  rotate(0 43 43)" d="M43,0C19.25,0 0,19.25 0,43C0,66.75 19.25,86 43,86C66.75,86 86,66.75 86,43C86,19.25 66.75,0 43,0Z " /><path id="圆形" style="stroke:url(#linear_1); stroke-width:1; stroke-opacity:100; stroke-dasharray:0 0" transform="translate(2630 10)  rotate(0 33 33)" d="M33,0C14.77,0 0,14.77 0,33C0,51.23 14.77,66 33,66C51.23,66 66,51.23 66,33C66,14.77 51.23,0 33,0Z " /><path  id="路径" style="stroke:#A6A6A6; stroke-width:1; stroke-opacity:1; stroke-dasharray:4 2" transform="translate(472 44.5)  rotate(0 1000 0.5)" d="M0,0L2000,0 " /><path id="路径" style="stroke:url(#linear_2); stroke-width:1; stroke-opacity:100; stroke-dasharray:4 2" transform="translate(1445 1407.0000000000005)  rotate(0 846 0.0005)" d="M0,0L1692,0 " /><path  id="路径" style="stroke:#A6A6A6; stroke-width:1; stroke-opacity:1; stroke-dasharray:0 2" transform="translate(1339 1376)  rotate(0 150.99747574591447 0.0005)" d="M0,0L301.99,0 " /><path id="路径" style="stroke:url(#linear_3); stroke-width:1; stroke-opacity:100; stroke-dasharray:4 2" transform="translate(1834 1376)  rotate(0 723.5 42.25)" d="M0,0L56.74,0C59.84,0 62.88,0.9 65.48,2.6L84.52,15.01C87.12,16.7 90.16,17.6 93.26,17.6L1380.51,17.61L1447,84.5 " /><path id="矩形" fill-rule="evenodd" fill="url(#linear_4)" transform="translate(2514 36)  rotate(0 3.5 7)" opacity="1" d="M0,14L7,14L7,0L0,0L0,14Z " /><rect  id="矩形" style="stroke:#858585; stroke-width:1; stroke-opacity:1; stroke-dasharray:0 0" transform="translate(2514 36)  rotate(0 3.5 7)" x="0.5" y="0.5" rx="0"  width="6" height="13" /><path id="矩形" fill-rule="evenodd" fill="url(#linear_5)" transform="translate(2524 26)  rotate(0 6 17)" opacity="1" d="M0,24L12,34L12,0L0,10L0,24Z " /><path  id="矩形" style="stroke:#858585; stroke-width:1; stroke-opacity:1; stroke-dasharray:0 0" transform="translate(2524 26)  rotate(0 6 17)" d="M0,24L12,34L12,0L0,10L0,24Z " /><path id="圆形" fill-rule="evenodd" style="fill:#CCCCCC" transform="translate(2535 38)  rotate(0 5 5)" opacity="1" d="M6.91,9.62C7.52,9.37 8.07,9 8.54,8.54C9,8.07 9.37,7.52 9.62,6.91C9.87,6.31 10,5.66 10,5C10,4.34 9.87,3.69 9.62,3.09C9.37,2.48 9,1.93 8.54,1.46C8.07,1 7.52,0.63 6.91,0.38C6.31,0.13 5.66,0 5,0L5,5L5,10C5.66,10 6.31,9.87 6.91,9.62Z " /><path  id="圆形" style="stroke:#E3E3E3; stroke-width:1; stroke-opacity:1; stroke-dasharray:0 0" transform="translate(2532 35)  rotate(0 8 8)" d="M8,0Z M8,16Z M8,16C9.05,16 10.09,15.79 11.06,15.39C12.03,14.99 12.91,14.4 13.66,13.66C14.4,12.91 14.99,12.03 15.39,11.06C15.79,10.09 16,9.05 16,8C16,6.95 15.79,5.91 15.39,4.94C14.99,3.97 14.4,3.09 13.66,2.34C12.91,1.6 12.03,1.01 11.06,0.61C10.09,0.21 9.05,0 8,0 M8,0C9.05,0 10.09,0.21 11.06,0.61 M16,8C16,6.95 15.79,5.91 15.39,4.94 M13.66,13.66C12.91,14.4 12.03,14.99 11.06,15.39 M15.39,11.06C14.99,12.03 14.4,12.91 13.66,13.66 M11.06,0.61C12.03,1.01 12.91,1.6 13.66,2.34 M15.39,4.94C14.99,3.97 14.4,3.09 13.66,2.34 M16,8C16,9.05 15.79,10.09 15.39,11.06 M11.06,15.39C10.09,15.79 9.05,16 8,16 " /><path  id="圆形" style="stroke:#E3E3E3; stroke-width:1; stroke-opacity:1; stroke-dasharray:0 0" transform="translate(2528 31)  rotate(0 12 12)" d="M12,24Z M12,0Z M12,24C13.58,24 15.14,23.69 16.59,23.09C18.05,22.48 19.37,21.6 20.49,20.49C21.6,19.37 22.48,18.05 23.09,16.59C23.69,15.14 24,13.58 24,12C24,10.42 23.69,8.86 23.09,7.41C22.48,5.95 21.6,4.63 20.49,3.51C19.37,2.4 18.05,1.52 16.59,0.91C15.14,0.31 13.58,0 12,0 M23.09,7.41C22.48,5.95 21.6,4.63 20.49,3.51 M20.49,3.51C19.37,2.4 18.05,1.52 16.59,0.91 M20.49,20.49C21.6,19.37 22.48,18.05 23.09,16.59 M24,12C24,13.58 23.69,15.14 23.09,16.59 M16.59,0.91C15.14,0.31 13.58,0 12,0 M24,12C24,10.42 23.69,8.86 23.09,7.41 M16.59,23.09C15.14,23.69 13.58,24 12,24 M20.49,20.49C19.37,21.6 18.05,22.48 16.59,23.09 " /></g></svg>