<svg xmlns="http://www.w3.org/2000/svg" xmlns:xlink="http://www.w3.org/1999/xlink" width="3692" height="1434" viewBox="0 0 3692 1434" fill="none"><g opacity="1" transform="translate(0.353515625 0.35357666015625)  rotate(0 1845.75 716.5)"><path  id="路径 20" style="stroke:#FFFFFF; stroke-width:1; stroke-opacity:1; stroke-dasharray:0 0" transform="translate(0.5 0)  rotate(0 70 55.00227268031749)" d="M0,0L110,110L140,110 " /><path id="矩形 1" fill-rule="evenodd" style="fill:#45DBFF" transform="translate(122.5 130)  rotate(0 9 4)" opacity="1" d="M0,8L18,8L18,0L0,0L0,8Z " /><path  id="路径 21" style="stroke:#FFFFFF; stroke-width:1; stroke-opacity:1; stroke-dasharray:4 4" transform="translate(123.5 154)  rotate(0 8.5 161)" d="M0,0L0,300.43L17,322 " /><path  id="路径 22" style="stroke:#FFFFFF; stroke-width:1; stroke-opacity:1; stroke-dasharray:0 0" transform="translate(0.5 80)  rotate(0 34 123)" d="M0,0L34,34.39C55.78,56.42 68,86.16 68,117.14L68,246 " /><path  id="路径 22" style="stroke:#FFFFFF; stroke-width:1; stroke-opacity:1; stroke-dasharray:0 0" transform="translate(0.5 972.5)  rotate(0 33.999999999999986 196.75)" d="M0,393.5L34,359.11C55.78,337.08 68,307.34 68,276.36L68,0 " /><path  id="路径 22" style="stroke:#FFFFFF; stroke-width:1; stroke-opacity:1; stroke-dasharray:0 0" transform="translate(0.5 280)  rotate(0 40 370)" d="M0,0L40,41.76C65.67,68.56 80,104.23 80,141.34L80,602.47C80,638.87 65.63,673.8 40,699.65L0,740 " /><path  id="路径 22" style="stroke:#FFFFFF; stroke-width:1; stroke-opacity:1; stroke-dasharray:0 0" transform="translate(138.5 453)  rotate(0 7.999999999999997 204.00000000000006)" d="M0,0L16,19.44L16,386.37L0,408 " /><path  id="路径 22" style="stroke:#FFFFFF; stroke-width:1; stroke-opacity:1; stroke-dasharray:0 0" transform="translate(122.5 472.7216555194343)  rotate(0 3.9999999999999987 183.73136516637072)" d="M0,0L8,9.72L8,356.65L0,367.46 " /><path  id="路径 22" style="stroke:#FFFFFF; stroke-width:1; stroke-opacity:1; stroke-dasharray:0 0" transform="translate(164.5 463)  rotate(0 7.999999999999997 194.00000000000006)" d="M0,0L16,19.44L16,366.37L0,388 " /><path  id="路径 22" style="stroke:#FFFFFF; stroke-width:1; stroke-opacity:1; stroke-dasharray:0 0" transform="translate(190.5 483)  rotate(0 7.999999999999997 174.00000000000006)" d="M0,0L16,19.44L16,326.37L0,348 " /><path id="矩形 3" fill-rule="evenodd" style="fill:#FFFFFF" transform="translate(1836.5 1398)  rotate(0 293.5 4)" opacity="0.04" d="M0,8L587,8L579,0L0,0L0,8Z " /><path id="矩形 4" fill-rule="evenodd" style="fill:#45DBFF" transform="translate(102.5 596)  rotate(0 2 58)" opacity="1" d="M0,116L4,116L4,0L0,0L0,116Z " /><path  id="路径 24" style="stroke:#FFFFFF; stroke-width:1; stroke-opacity:1; stroke-dasharray:0 0" transform="translate(0 1357)  rotate(0 69.5 38)" d="M0,76L52,24L114.5,24L139,0 " /><path id="路径 25" fill-rule="evenodd" style="fill:#45DBFF" transform="translate(122.5 1302)  rotate(0 2.5 16.75)" opacity="1" d="M0,33.5L5,28.5L5,0L0,0L0,33.5Z " /><path  id="路径 26" style="stroke:#FFFFFF; stroke-width:1; stroke-opacity:1; stroke-dasharray:0 0" transform="translate(131.5 891.5)  rotate(0 3.9999999999999933 216.75)" d="M0,433.5L8,425.5L8,0 " /><path  id="路径 27" style="stroke:#FFFFFF; stroke-width:1; stroke-opacity:1; stroke-dasharray:4 4" transform="translate(125 836.5)  rotate(0 8 228.99999999999997)" d="M0,458L0,23L16,0 " /><path id="矩形 5" fill-rule="evenodd" style="fill:#45DBFF" transform="translate(3665.5 1415)  rotate(0 13 2)" opacity="1" d="M0,4L26,4L26,0L0,0L0,4Z " /><path  id="路径 1" style="stroke:#AAAAAA; stroke-width:2; stroke-opacity:1; stroke-dasharray:0 0" transform="translate(2171.5 1386)  rotate(0 95.25 0.5)" d="M0,0L190.5,0 " /><path  id="路径 28" style="stroke:#A6A6A6; stroke-width:3; stroke-opacity:1; stroke-dasharray:0 0" transform="translate(3149.5 48)  rotate(0 0.0005 5.75)" d="M0,0L0,11.5 " /><path  id="路径 28" style="stroke:#A6A6A6; stroke-width:3; stroke-opacity:1; stroke-dasharray:0 0" transform="translate(3235.5 48)  rotate(0 0.0005 5.75)" d="M0,0L0,11.5 " /></g></svg>