<svg xmlns="http://www.w3.org/2000/svg" xmlns:xlink="http://www.w3.org/1999/xlink" width="602" height="434" viewBox="0 0 602 434" fill="none"><defs><linearGradient id="linear_0" x1="50%" y1="0%" x2="51%" y2="100%" gradientUnits="objectBoundingBox"><stop offset="0" stop-color="#FFFFFF" stop-opacity="0" /><stop offset="1" stop-color="#FFFFFF" stop-opacity="0.1" /></linearGradient><filter id="filter_16" x="-8" y="-8" width="227" height="54" filterUnits="userSpaceOnUse" color-interpolation-filters="sRGB"><feFlood flood-opacity="0" result="BackgroundImageFix"/>
          <feColorMatrix in="SourceAlpha" type="matrix" values="0 0 0 0 0 0 0 0 0 0 0 0 0 0 0 0 0 0 127 0"/>
          <feOffset dx="2" dy="0"/>
          <feGaussianBlur stdDeviation="4"/>
          <feColorMatrix type="matrix" values="0 0 0 0 0 0 0 0 0 0 0 0 0 0 0 0 0 0 0.25 0"/>
          <feBlend mode="normal" in2="BackgroundImageFix" result="effect1_Shadow"/>
          <feBlend mode="normal" in="SourceGraphic" in2="effect1_Shadow" result="shape"/></filter><filter id="filter_18" x="8" y="1" width="177" height="36" filterUnits="userSpaceOnUse" color-interpolation-filters="sRGB"><feFlood flood-opacity="0" result="BackgroundImageFix"/>
          <feColorMatrix in="SourceAlpha" type="matrix" values="0 0 0 0 0 0 0 0 0 0 0 0 0 0 0 0 0 0 127 0"/>
          <feOffset dx="0" dy="2"/>
          <feGaussianBlur stdDeviation="2"/>
          <feColorMatrix type="matrix" values="0 0 0 0 0 0 0 0 0 0 0 0 0 0 0 0 0 0 0.4 0"/>
          <feBlend mode="normal" in2="BackgroundImageFix" result="effect1_Shadow"/>
          <feBlend mode="normal" in="SourceGraphic" in2="effect1_Shadow" result="shape"/></filter><filter id="filter_28" x="110" y="62" width="120" height="36" filterUnits="userSpaceOnUse" color-interpolation-filters="sRGB"><feFlood flood-opacity="0" result="BackgroundImageFix"/>
          <feColorMatrix in="SourceAlpha" type="matrix" values="0 0 0 0 0 0 0 0 0 0 0 0 0 0 0 0 0 0 127 0"/>
          <feOffset dx="0" dy="2"/>
          <feGaussianBlur stdDeviation="2"/>
          <feColorMatrix type="matrix" values="0 0 0 0 0 0 0 0 0 0 0 0 0 0 0 0 0 0 0.4 0"/>
          <feBlend mode="normal" in2="BackgroundImageFix" result="effect1_Shadow"/>
          <feBlend mode="normal" in="SourceGraphic" in2="effect1_Shadow" result="shape"/></filter><filter id="filter_30" x="292" y="164" width="10" height="36" filterUnits="userSpaceOnUse" color-interpolation-filters="sRGB"><feFlood flood-opacity="0" result="BackgroundImageFix"/>
          <feColorMatrix in="SourceAlpha" type="matrix" values="0 0 0 0 0 0 0 0 0 0 0 0 0 0 0 0 0 0 127 0"/>
          <feOffset dx="0" dy="2"/>
          <feGaussianBlur stdDeviation="2"/>
          <feColorMatrix type="matrix" values="0 0 0 0 0 0 0 0 0 0 0 0 0 0 0 0 0 0 0.4 0"/>
          <feBlend mode="normal" in2="BackgroundImageFix" result="effect1_Shadow"/>
          <feBlend mode="normal" in="SourceGraphic" in2="effect1_Shadow" result="shape"/></filter><filter id="filter_32" x="292" y="203.5" width="10" height="36" filterUnits="userSpaceOnUse" color-interpolation-filters="sRGB"><feFlood flood-opacity="0" result="BackgroundImageFix"/>
          <feColorMatrix in="SourceAlpha" type="matrix" values="0 0 0 0 0 0 0 0 0 0 0 0 0 0 0 0 0 0 127 0"/>
          <feOffset dx="0" dy="2"/>
          <feGaussianBlur stdDeviation="2"/>
          <feColorMatrix type="matrix" values="0 0 0 0 0 0 0 0 0 0 0 0 0 0 0 0 0 0 0.4 0"/>
          <feBlend mode="normal" in2="BackgroundImageFix" result="effect1_Shadow"/>
          <feBlend mode="normal" in="SourceGraphic" in2="effect1_Shadow" result="shape"/></filter><filter id="filter_36" x="-4" y="-4" width="33" height="36" filterUnits="userSpaceOnUse" color-interpolation-filters="sRGB"><feFlood flood-opacity="0" result="BackgroundImageFix"/>
          <feColorMatrix in="SourceAlpha" type="matrix" values="0 0 0 0 0 0 0 0 0 0 0 0 0 0 0 0 0 0 127 0"/>
          <feOffset dx="0" dy="2"/>
          <feGaussianBlur stdDeviation="2"/>
          <feColorMatrix type="matrix" values="0 0 0 0 0 0 0 0 0 0 0 0 0 0 0 0 0 0 0.4 0"/>
          <feBlend mode="normal" in2="BackgroundImageFix" result="effect1_Shadow"/>
          <feBlend mode="normal" in="SourceGraphic" in2="effect1_Shadow" result="shape"/></filter><filter id="filter_40" x="-4" y="-4" width="33" height="36" filterUnits="userSpaceOnUse" color-interpolation-filters="sRGB"><feFlood flood-opacity="0" result="BackgroundImageFix"/>
          <feColorMatrix in="SourceAlpha" type="matrix" values="0 0 0 0 0 0 0 0 0 0 0 0 0 0 0 0 0 0 127 0"/>
          <feOffset dx="0" dy="2"/>
          <feGaussianBlur stdDeviation="2"/>
          <feColorMatrix type="matrix" values="0 0 0 0 0 0 0 0 0 0 0 0 0 0 0 0 0 0 0.4 0"/>
          <feBlend mode="normal" in2="BackgroundImageFix" result="effect1_Shadow"/>
          <feBlend mode="normal" in="SourceGraphic" in2="effect1_Shadow" result="shape"/></filter><filter id="filter_42" x="210" y="207" width="50" height="36" filterUnits="userSpaceOnUse" color-interpolation-filters="sRGB"><feFlood flood-opacity="0" result="BackgroundImageFix"/>
          <feColorMatrix in="SourceAlpha" type="matrix" values="0 0 0 0 0 0 0 0 0 0 0 0 0 0 0 0 0 0 127 0"/>
          <feOffset dx="0" dy="2"/>
          <feGaussianBlur stdDeviation="2"/>
          <feColorMatrix type="matrix" values="0 0 0 0 0 0 0 0 0 0 0 0 0 0 0 0 0 0 0.4 0"/>
          <feBlend mode="normal" in2="BackgroundImageFix" result="effect1_Shadow"/>
          <feBlend mode="normal" in="SourceGraphic" in2="effect1_Shadow" result="shape"/></filter><filter id="filter_44" x="110" y="102" width="79" height="36" filterUnits="userSpaceOnUse" color-interpolation-filters="sRGB"><feFlood flood-opacity="0" result="BackgroundImageFix"/>
          <feColorMatrix in="SourceAlpha" type="matrix" values="0 0 0 0 0 0 0 0 0 0 0 0 0 0 0 0 0 0 127 0"/>
          <feOffset dx="0" dy="2"/>
          <feGaussianBlur stdDeviation="2"/>
          <feColorMatrix type="matrix" values="0 0 0 0 0 0 0 0 0 0 0 0 0 0 0 0 0 0 0.4 0"/>
          <feBlend mode="normal" in2="BackgroundImageFix" result="effect1_Shadow"/>
          <feBlend mode="normal" in="SourceGraphic" in2="effect1_Shadow" result="shape"/></filter><filter id="filter_46" x="377" y="102" width="55" height="36" filterUnits="userSpaceOnUse" color-interpolation-filters="sRGB"><feFlood flood-opacity="0" result="BackgroundImageFix"/>
          <feColorMatrix in="SourceAlpha" type="matrix" values="0 0 0 0 0 0 0 0 0 0 0 0 0 0 0 0 0 0 127 0"/>
          <feOffset dx="0" dy="2"/>
          <feGaussianBlur stdDeviation="2"/>
          <feColorMatrix type="matrix" values="0 0 0 0 0 0 0 0 0 0 0 0 0 0 0 0 0 0 0.4 0"/>
          <feBlend mode="normal" in2="BackgroundImageFix" result="effect1_Shadow"/>
          <feBlend mode="normal" in="SourceGraphic" in2="effect1_Shadow" result="shape"/></filter><filter id="filter_48" x="111" y="204" width="69" height="36" filterUnits="userSpaceOnUse" color-interpolation-filters="sRGB"><feFlood flood-opacity="0" result="BackgroundImageFix"/>
          <feColorMatrix in="SourceAlpha" type="matrix" values="0 0 0 0 0 0 0 0 0 0 0 0 0 0 0 0 0 0 127 0"/>
          <feOffset dx="0" dy="2"/>
          <feGaussianBlur stdDeviation="2"/>
          <feColorMatrix type="matrix" values="0 0 0 0 0 0 0 0 0 0 0 0 0 0 0 0 0 0 0.4 0"/>
          <feBlend mode="normal" in2="BackgroundImageFix" result="effect1_Shadow"/>
          <feBlend mode="normal" in="SourceGraphic" in2="effect1_Shadow" result="shape"/></filter><filter id="filter_50" x="377" y="60" width="120" height="36" filterUnits="userSpaceOnUse" color-interpolation-filters="sRGB"><feFlood flood-opacity="0" result="BackgroundImageFix"/>
          <feColorMatrix in="SourceAlpha" type="matrix" values="0 0 0 0 0 0 0 0 0 0 0 0 0 0 0 0 0 0 127 0"/>
          <feOffset dx="0" dy="2"/>
          <feGaussianBlur stdDeviation="2"/>
          <feColorMatrix type="matrix" values="0 0 0 0 0 0 0 0 0 0 0 0 0 0 0 0 0 0 0.4 0"/>
          <feBlend mode="normal" in2="BackgroundImageFix" result="effect1_Shadow"/>
          <feBlend mode="normal" in="SourceGraphic" in2="effect1_Shadow" result="shape"/></filter><filter id="filter_52" x="110" y="164" width="122" height="36" filterUnits="userSpaceOnUse" color-interpolation-filters="sRGB"><feFlood flood-opacity="0" result="BackgroundImageFix"/>
          <feColorMatrix in="SourceAlpha" type="matrix" values="0 0 0 0 0 0 0 0 0 0 0 0 0 0 0 0 0 0 127 0"/>
          <feOffset dx="0" dy="2"/>
          <feGaussianBlur stdDeviation="2"/>
          <feColorMatrix type="matrix" values="0 0 0 0 0 0 0 0 0 0 0 0 0 0 0 0 0 0 0.4 0"/>
          <feBlend mode="normal" in2="BackgroundImageFix" result="effect1_Shadow"/>
          <feBlend mode="normal" in="SourceGraphic" in2="effect1_Shadow" result="shape"/></filter><filter id="filter_56" x="20" y="1" width="66" height="36" filterUnits="userSpaceOnUse" color-interpolation-filters="sRGB"><feFlood flood-opacity="0" result="BackgroundImageFix"/>
          <feColorMatrix in="SourceAlpha" type="matrix" values="0 0 0 0 0 0 0 0 0 0 0 0 0 0 0 0 0 0 127 0"/>
          <feOffset dx="0" dy="2"/>
          <feGaussianBlur stdDeviation="2"/>
          <feColorMatrix type="matrix" values="0 0 0 0 0 0 0 0 0 0 0 0 0 0 0 0 0 0 0.4 0"/>
          <feBlend mode="normal" in2="BackgroundImageFix" result="effect1_Shadow"/>
          <feBlend mode="normal" in="SourceGraphic" in2="effect1_Shadow" result="shape"/></filter><filter id="filter_60" x="216" y="1" width="184" height="36" filterUnits="userSpaceOnUse" color-interpolation-filters="sRGB"><feFlood flood-opacity="0" result="BackgroundImageFix"/>
          <feColorMatrix in="SourceAlpha" type="matrix" values="0 0 0 0 0 0 0 0 0 0 0 0 0 0 0 0 0 0 127 0"/>
          <feOffset dx="0" dy="2"/>
          <feGaussianBlur stdDeviation="2"/>
          <feColorMatrix type="matrix" values="0 0 0 0 0 0 0 0 0 0 0 0 0 0 0 0 0 0 0.4 0"/>
          <feBlend mode="normal" in2="BackgroundImageFix" result="effect1_Shadow"/>
          <feBlend mode="normal" in="SourceGraphic" in2="effect1_Shadow" result="shape"/></filter><filter id="filter_67" x="0" y="0" width="71.99999999999999" height="71.99999999999999" filterUnits="userSpaceOnUse" color-interpolation-filters="sRGB"><feFlood flood-opacity="0" result="BackgroundImageFix"/>
          <feBlend mode="normal" in="SourceGraphic" in2="BackgroundImageFix" result="shape"/>
          <feGaussianBlur stdDeviation="1.5" result="effect1_foregroundBlur" /></filter><radialGradient id="linear_1" cx="50%" cy="50%" fx="50%" fy="50%" r="0.5" gradientTransform="translate(0.5 0.5) scale(1 1) rotate(90) scale(1 1) translate(-0.5 -0.5)" ><stop offset="0" stop-color="#101823" stop-opacity="0" /><stop offset="1" stop-color="#101824" stop-opacity="0.2" /></radialGradient><filter id="filter_71" x="0" y="0" width="72" height="72" filterUnits="userSpaceOnUse" color-interpolation-filters="sRGB"><feFlood flood-opacity="0" result="BackgroundImageFix"/>
          <feBlend mode="normal" in="SourceGraphic" in2="BackgroundImageFix" result="shape"/>
          <feGaussianBlur stdDeviation="1.5" result="effect1_foregroundBlur" /></filter><filter id="filter_101" x="0" y="0" width="71.99999999999999" height="71.99999999999999" filterUnits="userSpaceOnUse" color-interpolation-filters="sRGB"><feFlood flood-opacity="0" result="BackgroundImageFix"/>
          <feBlend mode="normal" in="SourceGraphic" in2="BackgroundImageFix" result="shape"/>
          <feGaussianBlur stdDeviation="1.5" result="effect1_foregroundBlur" /></filter><radialGradient id="linear_2" cx="50%" cy="50%" fx="50%" fy="50%" r="0.5" gradientTransform="translate(0.5 0.5) scale(1 1) rotate(90) scale(1 1) translate(-0.5 -0.5)" ><stop offset="0" stop-color="#101823" stop-opacity="0" /><stop offset="1" stop-color="#101824" stop-opacity="0.2" /></radialGradient><filter id="filter_105" x="0" y="0" width="72" height="72" filterUnits="userSpaceOnUse" color-interpolation-filters="sRGB"><feFlood flood-opacity="0" result="BackgroundImageFix"/>
          <feBlend mode="normal" in="SourceGraphic" in2="BackgroundImageFix" result="shape"/>
          <feGaussianBlur stdDeviation="1.5" result="effect1_foregroundBlur" /></filter><filter id="filter_135" x="0" y="0" width="71.99999999999999" height="71.99999999999999" filterUnits="userSpaceOnUse" color-interpolation-filters="sRGB"><feFlood flood-opacity="0" result="BackgroundImageFix"/>
          <feBlend mode="normal" in="SourceGraphic" in2="BackgroundImageFix" result="shape"/>
          <feGaussianBlur stdDeviation="1.5" result="effect1_foregroundBlur" /></filter><radialGradient id="linear_3" cx="50%" cy="50%" fx="50%" fy="50%" r="0.5" gradientTransform="translate(0.5 0.5) scale(1 1) rotate(90) scale(1 1) translate(-0.5 -0.5)" ><stop offset="0" stop-color="#101823" stop-opacity="0" /><stop offset="1" stop-color="#101824" stop-opacity="0.2" /></radialGradient><filter id="filter_139" x="0" y="0" width="72" height="72" filterUnits="userSpaceOnUse" color-interpolation-filters="sRGB"><feFlood flood-opacity="0" result="BackgroundImageFix"/>
          <feBlend mode="normal" in="SourceGraphic" in2="BackgroundImageFix" result="shape"/>
          <feGaussianBlur stdDeviation="1.5" result="effect1_foregroundBlur" /></filter></defs><g opacity="1" transform="translate(37 86)  rotate(0 273 172.5)"><g opacity="1" transform="translate(-36 -78)  rotate(0 300 212.5)"><path id="矩形" fill-rule="evenodd" fill="url(#linear_0)" transform="translate(0 19)  rotate(0 300 203)" opacity="1" d="M24,407L576,407C589.25,407 600,396.25 600,383L600,24C600,10.75 589.25,0 576,0L24,0C10.75,0 0,10.75 0,24L0,383C0,396.25 10.75,407 24,407Z " /><path  id="路径" style="stroke:#FFFFFF; stroke-width:2; stroke-opacity:0.4; stroke-dasharray:0 0" transform="translate(0 18.5)  rotate(0 12 203)" d="M24,0L24,0C17.63,0 11.53,2.53 7.03,7.03C2.53,11.53 0,17.63 0,24L0,383C0,389.37 2.53,395.47 7.03,399.97C11.53,404.47 17.63,407 24,407 " /><path  id="路径" style="stroke:#FFFFFF; stroke-width:2; stroke-opacity:0.4; stroke-dasharray:0 0" transform="translate(576 19)  rotate(0 12.000000000000007 203)" d="M0,0L0,0C13.25,0 24,10.75 24,24L24,383C24,389.37 21.47,395.47 16.97,399.97C12.47,404.47 6.37,407 0,407 " /><path id="矩形" fill-rule="evenodd" style="fill:#272E39" transform="translate(30 0)  rotate(0 19 19)" opacity="1" d="M19,38L38,38L38,0L19,0C13.96,0 9.13,2 5.56,5.56C2,9.13 0,13.96 0,19L0,19C0,24.04 2,28.87 5.56,32.44C9.13,36 13.96,38 19,38Z " /><path id="圆形" fill-rule="evenodd" style="fill:#45DBFF" transform="translate(46 14)  rotate(0 5 5)" opacity="1" d="M5,0C2.24,0 0,2.24 0,5C0,7.76 2.24,10 5,10C7.76,10 10,7.76 10,5C10,2.24 7.76,0 5,0Z " /><path id="矩形" fill-rule="evenodd" style="fill:#252C36" transform="translate(74 0)  rotate(0 248 19)" opacity="1" d="M0,38L477,38C482.04,38 486.87,36 490.44,32.44C494,28.87 496,24.04 496,19L496,19C496,13.96 494,9.13 490.44,5.56C486.87,2 482.04,0 477,0L0,0L0,38Z " /><g opacity="1" transform="translate(74 0)  rotate(0 105.5 19)"><g id="undefined" filter="url(#filter_16)"></g><g id="文本 1" filter="url(#filter_18)"><g opacity="1" transform="translate(12 5)  rotate(0 84.5 14)"><text><tspan x="0" y="23.240000000000002" font-size="28" line-height="28" fill="#FFFFFF" opacity="1" font-family="PangMenZhengDao" letter-spacing="2" >安全状况概览</tspan></text></g></g></g><g opacity="1" transform="translate(460 8)  rotate(0 36.5 9)"><g opacity="1" transform="translate(0 0)  rotate(0 22 9)"><text><tspan x="0" y="14.94" font-size="18" line-height="18" fill="#AAAAAA" opacity="1" font-family="PangMenZhengDao" letter-spacing="2" >单位:</tspan></text></g><g opacity="1" transform="translate(54 0)  rotate(0 9.5 9)"><text><tspan x="0" y="14.94" font-size="18" line-height="18" fill="#45DBFF" opacity="1" font-family="PangMenZhengDao" letter-spacing="2" >M</tspan></text></g></g><path id="路径" fill-rule="evenodd" style="fill:#4E555D" transform="translate(549 12)  rotate(0 3.5000000000000004 7)" opacity="1" d="M0,0L0,14L7,7L0,0Z " /></g><g id="文本 1" filter="url(#filter_28)"><g opacity="1" transform="translate(114 66)  rotate(0 56 14)"><text><tspan x="0" y="23.240000000000002" font-size="28" line-height="28" fill="#C2C2C2" opacity="1" font-family="PangMenZhengDao" letter-spacing="2" >运输车辆</tspan></text></g></g><g id="文本 1" filter="url(#filter_30)"><g opacity="1" transform="translate(296 168)  rotate(0 1 14)"><text><tspan x="0" y="23.240000000000002" font-size="28" line-height="28" fill="#C2C2C2" opacity="1" font-family="PangMenZhengDao" letter-spacing="2" ></tspan></text></g></g><g id="文本 1" filter="url(#filter_32)"><g opacity="1" transform="translate(296 207.5)  rotate(0 1 14)"><text><tspan x="0" y="23.240000000000002" font-size="28" line-height="28" fill="#C2C2C2" opacity="1" font-family="PangMenZhengDao" letter-spacing="2" ></tspan></text></g></g><g opacity="1" transform="translate(217 107)  rotate(0 12.5 14)"><g id="文本 1" filter="url(#filter_36)"><g opacity="1" transform="translate(0 0)  rotate(0 12.5 14)"><text><tspan x="0" y="21.92" font-size="24" line-height="28" fill="#C2C2C2" opacity="1" font-family="PangMenZhengDao" letter-spacing="2" >辆</tspan></text></g></g></g><g opacity="1" transform="translate(459 106)  rotate(0 12.5 14)"><g id="文本 1" filter="url(#filter_40)"><g opacity="1" transform="translate(0 0)  rotate(0 12.5 14)"><text><tspan x="0" y="21.92" font-size="24" line-height="28" fill="#C2C2C2" opacity="1" font-family="PangMenZhengDao" letter-spacing="2" >吨</tspan></text></g></g></g><g id="文本 1" filter="url(#filter_42)"><g opacity="1" transform="translate(214 211)  rotate(0 21 14)"><text><tspan x="0" y="21.92" font-size="24" line-height="28" fill="#C2C2C2" opacity="1" font-family="PangMenZhengDao" letter-spacing="2" >KM</tspan></text></g></g><g id="文本 1" filter="url(#filter_44)"><g opacity="1" transform="translate(114 106)  rotate(0 35.5 14)"><text><tspan x="0" y="25.88" font-size="36" line-height="28" fill="#45DBFF" opacity="1" font-family="PangMenZhengDao" letter-spacing="0"  ></tspan><tspan x="0" y="25.88" font-size="36" line-height="28" fill="#45DBFF" opacity="1" font-family="PangMenZhengDao" letter-spacing="0" > 15</tspan></text></g></g><g id="文本 1" filter="url(#filter_46)"><g opacity="1" transform="translate(381 106)  rotate(0 23.5 14)"><text><tspan x="0" y="25.88" font-size="36" line-height="28" fill="#45DBFF" opacity="1" font-family="PangMenZhengDao" letter-spacing="0" >32</tspan></text></g></g><g id="文本 1" filter="url(#filter_48)"><g opacity="1" transform="translate(115 208)  rotate(0 30.5 14)"><text><tspan x="0" y="23.9" font-size="30" line-height="28" fill="#E5E5E5" opacity="1" font-family="PangMenZhengDao" letter-spacing="0" >578</tspan></text></g></g><g id="文本 1" filter="url(#filter_50)"><g opacity="1" transform="translate(381 64)  rotate(0 56 14)"><text><tspan x="0" y="23.240000000000002" font-size="28" line-height="28" fill="#C2C2C2" opacity="1" font-family="PangMenZhengDao" letter-spacing="2" >货物总数</tspan></text></g></g><g id="文本 1" filter="url(#filter_52)"><g opacity="1" transform="translate(114 168)  rotate(0 57 14)"><text><tspan x="0" y="23.240000000000002" font-size="28" line-height="28" fill="#C2C2C2" opacity="1" font-family="PangMenZhengDao" letter-spacing="2" >里程长度</tspan></text></g></g><path id="矩形 6" fill-rule="evenodd" style="fill:#45DBFF" transform="translate(0 5.5)  rotate(0 2 13.5)" opacity="1" d="M0,27L4,27L4,0L0,0L0,27Z " /><g id="文本 1" filter="url(#filter_56)"><g opacity="1" transform="translate(24 5)  rotate(0 29 14)"><text><tspan x="0" y="23.240000000000002" font-size="28" line-height="28" fill="#C2C2C2" opacity="1" font-family="PangMenZhengDao" letter-spacing="2" >行程</tspan></text></g></g><path id="矩形" fill-rule="evenodd" style="fill:#252C36" transform="translate(89 0)  rotate(0 217.5 19)" opacity="1" d="M0,38L416,38C421.04,38 425.87,36 429.44,32.44C433,28.87 435,24.04 435,19L435,19C435,13.96 433,9.13 429.44,5.56C425.87,2 421.04,0 416,0L0,0L0,38Z " /><g id="文本 1" filter="url(#filter_60)"><g opacity="1" transform="translate(220 5)  rotate(0 88 14)"><text><tspan x="0" y="23.240000000000002" font-size="28" line-height="28" fill="#C2C2C2" opacity="1" font-family="PangMenZhengDao" letter-spacing="2" >哈尔滨市-沈阳</tspan></text></g></g><g opacity="1" transform="translate(24 66)  rotate(0 36 36)"><path id="矩形 1" fill-rule="evenodd" style="fill:#212426" transform="translate(0 0)  rotate(0 35.99999999999999 35.99999999999999)" opacity="1" d="M4.72,72L67.28,72C68.53,72 69.73,71.5 70.62,70.62C71.5,69.73 72,68.53 72,67.28L72,4.72C72,3.47 71.5,2.27 70.62,1.38C69.73,0.5 68.53,0 67.28,0L4.72,0C3.47,0 2.27,0.5 1.38,1.38C0.5,2.27 0,3.47 0,4.72L0,67.28C0,68.53 0.5,69.73 1.38,70.62C2.27,71.5 3.47,72 4.72,72Z " /><g id="矩形 1" filter="url(#filter_67)"><rect  id="矩形 1" style="stroke:#323B40; stroke-width:1.8; stroke-opacity:1; stroke-dasharray:0 0" transform="translate(0 0)  rotate(0 35.99999999999999 35.99999999999999)" x="0.9" y="0.9" rx="3.82"  width="70.19999999999999" height="70.19999999999999" /></g><path id="矩形 1" fill-rule="evenodd" fill="url(#linear_1)" transform="translate(8.55 8.55)  rotate(0 27.45 27.45)" opacity="1" d="M3.6,54.9L51.3,54.9C52.25,54.9 53.17,54.52 53.85,53.85C54.52,53.17 54.9,52.25 54.9,51.3L54.9,3.6C54.9,2.65 54.52,1.73 53.85,1.05C53.17,0.38 52.25,0 51.3,0L3.6,0C1.61,0 0,1.61 0,3.6L0,51.3C0,52.25 0.38,53.17 1.05,53.85C1.73,54.52 2.65,54.9 3.6,54.9Z " /><rect  id="矩形 1" style="stroke:#FFFFFF; stroke-width:0.9; stroke-opacity:0.1; stroke-dasharray:0 0" transform="translate(8.55 8.55)  rotate(0 27.45 27.45)" x="0.45" y="0.45" rx="3.15"  width="54" height="54" /><g id="矩形 1" filter="url(#filter_71)"><rect  id="矩形 1" style="stroke:#FFFFFF; stroke-width:0.9; stroke-opacity:0.3; stroke-dasharray:0 0" transform="translate(8.55 8.55)  rotate(0 27.45 27.45)" x="0.45" y="0.45" rx="3.15"  width="54" height="54" /></g><g opacity="1" transform="translate(21.15 21.15)  rotate(0 14.850000000000001 14.850000000000001)"><path id="减去顶层" fill-rule="evenodd" style="fill:#FFFFFF" transform="translate(8.1 0)  rotate(0 7.2 7.2)" opacity="1" d="M14.4 14.4L0 14.4L0 0L14.4 0L14.4 14.4Z M10.8 5.4L3.6 5.4L3.6 3.6L10.8 3.6L10.8 5.4Z " /><path id="减去顶层" fill-rule="evenodd" style="fill:#FFFFFF" transform="translate(0 15.3)  rotate(0 7.2 7.2)" opacity="1" d="M14.4 14.4L0 14.4L0 0L14.4 0L14.4 14.4Z M10.8 5.4L3.6 5.4L3.6 3.6L10.8 3.6L10.8 5.4Z " /><path id="减去顶层" fill-rule="evenodd" style="fill:#FFFFFF" transform="translate(15.3 15.3)  rotate(0 7.2 7.2)" opacity="1" d="M14.4 14.4L0 14.4L0 0L14.4 0L14.4 14.4Z M10.8 5.4L3.6 5.4L3.6 3.6L10.8 3.6L10.8 5.4Z " /></g><path id="圆形 1" fill-rule="evenodd" style="fill:#69788A" transform="translate(4.5 5.4)  rotate(0 0.9 0.9)" opacity="1" d="M0.9,0C0.4,0 0,0.4 0,0.9C0,1.4 0.4,1.8 0.9,1.8C1.4,1.8 1.8,1.4 1.8,0.9C1.8,0.4 1.4,0 0.9,0Z " /><path id="圆形 1" fill-rule="evenodd" style="fill:#69788A" transform="translate(4.5 64.8)  rotate(0 0.9 0.9)" opacity="1" d="M0.9,0C0.4,0 0,0.4 0,0.9C0,1.4 0.4,1.8 0.9,1.8C1.4,1.8 1.8,1.4 1.8,0.9C1.8,0.4 1.4,0 0.9,0Z " /><path id="圆形 1" fill-rule="evenodd" style="fill:#69788A" transform="translate(64.8 6.3)  rotate(0 0.9 0.9)" opacity="1" d="M0.9,0C0.4,0 0,0.4 0,0.9C0,1.4 0.4,1.8 0.9,1.8C1.4,1.8 1.8,1.4 1.8,0.9C1.8,0.4 1.4,0 0.9,0Z " /><path id="圆形 1" fill-rule="evenodd" style="fill:#69788A" transform="translate(64.8 63.9)  rotate(0 0.9 0.9)" opacity="1" d="M0.9,0C0.4,0 0,0.4 0,0.9C0,1.4 0.4,1.8 0.9,1.8C1.4,1.8 1.8,1.4 1.8,0.9C1.8,0.4 1.4,0 0.9,0Z " /><path id="圆形 1" fill-rule="evenodd" style="fill:#495869" transform="translate(5.4 6.3)  rotate(0 0.9 0.9)" opacity="1" d="M0.9,0C0.4,0 0,0.4 0,0.9C0,1.4 0.4,1.8 0.9,1.8C1.4,1.8 1.8,1.4 1.8,0.9C1.8,0.4 1.4,0 0.9,0Z " /><path id="圆形 1" fill-rule="evenodd" style="fill:#495869" transform="translate(5.4 63.9)  rotate(0 0.9 0.9)" opacity="1" d="M0.9,0C0.4,0 0,0.4 0,0.9C0,1.4 0.4,1.8 0.9,1.8C1.4,1.8 1.8,1.4 1.8,0.9C1.8,0.4 1.4,0 0.9,0Z " /><path id="圆形 1" fill-rule="evenodd" style="fill:#495869" transform="translate(65.7 5.4)  rotate(0 0.9 0.9)" opacity="1" d="M0.9,0C0.4,0 0,0.4 0,0.9C0,1.4 0.4,1.8 0.9,1.8C1.4,1.8 1.8,1.4 1.8,0.9C1.8,0.4 1.4,0 0.9,0Z " /><path id="圆形 1" fill-rule="evenodd" style="fill:#495869" transform="translate(65.7 64.8)  rotate(0 0.9 0.9)" opacity="1" d="M0.9,0C0.4,0 0,0.4 0,0.9C0,1.4 0.4,1.8 0.9,1.8C1.4,1.8 1.8,1.4 1.8,0.9C1.8,0.4 1.4,0 0.9,0Z " /></g><g opacity="1" transform="translate(291 66)  rotate(0 36 36)"><path id="矩形 1" fill-rule="evenodd" style="fill:#212426" transform="translate(0 0)  rotate(0 35.99999999999999 35.99999999999999)" opacity="1" d="M4.72,72L67.28,72C68.53,72 69.73,71.5 70.62,70.62C71.5,69.73 72,68.53 72,67.28L72,4.72C72,3.47 71.5,2.27 70.62,1.38C69.73,0.5 68.53,0 67.28,0L4.72,0C3.47,0 2.27,0.5 1.38,1.38C0.5,2.27 0,3.47 0,4.72L0,67.28C0,68.53 0.5,69.73 1.38,70.62C2.27,71.5 3.47,72 4.72,72Z " /><g id="矩形 1" filter="url(#filter_101)"><path  id="矩形 1" style="stroke:#323B40; stroke-width:1.8; stroke-opacity:1; stroke-dasharray:0 0" transform="translate(0 0)  rotate(0 35.99999999999999 35.99999999999999)" d="M4.72,72L67.28,72C68.53,72 69.73,71.5 70.62,70.62C71.5,69.73 72,68.53 72,67.28L72,4.72C72,3.47 71.5,2.27 70.62,1.38C69.73,0.5 68.53,0 67.28,0L4.72,0C3.47,0 2.27,0.5 1.38,1.38C0.5,2.27 0,3.47 0,4.72L0,67.28C0,68.53 0.5,69.73 1.38,70.62C2.27,71.5 3.47,72 4.72,72Z " /></g><path id="矩形 1" fill-rule="evenodd" fill="url(#linear_2)" transform="translate(8.55 8.55)  rotate(0 27.45 27.45)" opacity="1" d="M3.6,54.9L51.3,54.9C52.25,54.9 53.17,54.52 53.85,53.85C54.52,53.17 54.9,52.25 54.9,51.3L54.9,3.6C54.9,2.65 54.52,1.73 53.85,1.05C53.17,0.38 52.25,0 51.3,0L3.6,0C1.61,0 0,1.61 0,3.6L0,51.3C0,52.25 0.38,53.17 1.05,53.85C1.73,54.52 2.65,54.9 3.6,54.9Z " /><path  id="矩形 1" style="stroke:#FFFFFF; stroke-width:0.9; stroke-opacity:0.1; stroke-dasharray:0 0" transform="translate(8.55 8.55)  rotate(0 27.45 27.45)" d="M3.6,54.9L51.3,54.9C52.25,54.9 53.17,54.52 53.85,53.85C54.52,53.17 54.9,52.25 54.9,51.3L54.9,3.6C54.9,2.65 54.52,1.73 53.85,1.05C53.17,0.38 52.25,0 51.3,0L3.6,0C1.61,0 0,1.61 0,3.6L0,51.3C0,52.25 0.38,53.17 1.05,53.85C1.73,54.52 2.65,54.9 3.6,54.9Z " /><g id="矩形 1" filter="url(#filter_105)"><path  id="矩形 1" style="stroke:#FFFFFF; stroke-width:0.9; stroke-opacity:0.3; stroke-dasharray:0 0" transform="translate(8.55 8.55)  rotate(0 27.45 27.45)" d="M3.6,54.9L51.3,54.9C52.25,54.9 53.17,54.52 53.85,53.85C54.52,53.17 54.9,52.25 54.9,51.3L54.9,3.6C54.9,2.65 54.52,1.73 53.85,1.05C53.17,0.38 52.25,0 51.3,0L3.6,0C1.61,0 0,1.61 0,3.6L0,51.3C0,52.25 0.38,53.17 1.05,53.85C1.73,54.52 2.65,54.9 3.6,54.9Z " /></g><g opacity="1" transform="translate(21.15 21.15)  rotate(0 14.850000000000001 14.850000000000001)"><path id="减去顶层" fill-rule="evenodd" style="fill:#FFFFFF" transform="translate(8.1 0)  rotate(0 7.2 7.2)" opacity="1" d="M14.4 14.4L0 14.4L0 0L14.4 0L14.4 14.4Z M10.8 5.4L3.6 5.4L3.6 3.6L10.8 3.6L10.8 5.4Z " /><path id="减去顶层" fill-rule="evenodd" style="fill:#FFFFFF" transform="translate(0 15.3)  rotate(0 7.2 7.2)" opacity="1" d="M14.4 14.4L0 14.4L0 0L14.4 0L14.4 14.4Z M10.8 5.4L3.6 5.4L3.6 3.6L10.8 3.6L10.8 5.4Z " /><path id="减去顶层" fill-rule="evenodd" style="fill:#FFFFFF" transform="translate(15.3 15.3)  rotate(0 7.2 7.2)" opacity="1" d="M14.4 14.4L0 14.4L0 0L14.4 0L14.4 14.4Z M10.8 5.4L3.6 5.4L3.6 3.6L10.8 3.6L10.8 5.4Z " /></g><path id="圆形 1" fill-rule="evenodd" style="fill:#69788A" transform="translate(4.5 5.4)  rotate(0 0.9 0.9)" opacity="1" d="M0.9,0C0.4,0 0,0.4 0,0.9C0,1.4 0.4,1.8 0.9,1.8C1.4,1.8 1.8,1.4 1.8,0.9C1.8,0.4 1.4,0 0.9,0Z " /><path id="圆形 1" fill-rule="evenodd" style="fill:#69788A" transform="translate(4.5 64.8)  rotate(0 0.9 0.9)" opacity="1" d="M0.9,0C0.4,0 0,0.4 0,0.9C0,1.4 0.4,1.8 0.9,1.8C1.4,1.8 1.8,1.4 1.8,0.9C1.8,0.4 1.4,0 0.9,0Z " /><path id="圆形 1" fill-rule="evenodd" style="fill:#69788A" transform="translate(64.8 6.3)  rotate(0 0.9 0.9)" opacity="1" d="M0.9,0C0.4,0 0,0.4 0,0.9C0,1.4 0.4,1.8 0.9,1.8C1.4,1.8 1.8,1.4 1.8,0.9C1.8,0.4 1.4,0 0.9,0Z " /><path id="圆形 1" fill-rule="evenodd" style="fill:#69788A" transform="translate(64.8 63.9)  rotate(0 0.9 0.9)" opacity="1" d="M0.9,0C0.4,0 0,0.4 0,0.9C0,1.4 0.4,1.8 0.9,1.8C1.4,1.8 1.8,1.4 1.8,0.9C1.8,0.4 1.4,0 0.9,0Z " /><path id="圆形 1" fill-rule="evenodd" style="fill:#495869" transform="translate(5.4 6.3)  rotate(0 0.9 0.9)" opacity="1" d="M0.9,0C0.4,0 0,0.4 0,0.9C0,1.4 0.4,1.8 0.9,1.8C1.4,1.8 1.8,1.4 1.8,0.9C1.8,0.4 1.4,0 0.9,0Z " /><path id="圆形 1" fill-rule="evenodd" style="fill:#495869" transform="translate(5.4 63.9)  rotate(0 0.9 0.9)" opacity="1" d="M0.9,0C0.4,0 0,0.4 0,0.9C0,1.4 0.4,1.8 0.9,1.8C1.4,1.8 1.8,1.4 1.8,0.9C1.8,0.4 1.4,0 0.9,0Z " /><path id="圆形 1" fill-rule="evenodd" style="fill:#495869" transform="translate(65.7 5.4)  rotate(0 0.9 0.9)" opacity="1" d="M0.9,0C0.4,0 0,0.4 0,0.9C0,1.4 0.4,1.8 0.9,1.8C1.4,1.8 1.8,1.4 1.8,0.9C1.8,0.4 1.4,0 0.9,0Z " /><path id="圆形 1" fill-rule="evenodd" style="fill:#495869" transform="translate(65.7 64.8)  rotate(0 0.9 0.9)" opacity="1" d="M0.9,0C0.4,0 0,0.4 0,0.9C0,1.4 0.4,1.8 0.9,1.8C1.4,1.8 1.8,1.4 1.8,0.9C1.8,0.4 1.4,0 0.9,0Z " /></g><g opacity="1" transform="translate(24 168)  rotate(0 36 36)"><path id="矩形 1" fill-rule="evenodd" style="fill:#212426" transform="translate(0 0)  rotate(0 35.99999999999999 35.99999999999999)" opacity="1" d="M4.72,72L67.28,72C68.53,72 69.73,71.5 70.62,70.62C71.5,69.73 72,68.53 72,67.28L72,4.72C72,3.47 71.5,2.27 70.62,1.38C69.73,0.5 68.53,0 67.28,0L4.72,0C3.47,0 2.27,0.5 1.38,1.38C0.5,2.27 0,3.47 0,4.72L0,67.28C0,68.53 0.5,69.73 1.38,70.62C2.27,71.5 3.47,72 4.72,72Z " /><g id="矩形 1" filter="url(#filter_135)"><path  id="矩形 1" style="stroke:#323B40; stroke-width:1.8; stroke-opacity:1; stroke-dasharray:0 0" transform="translate(0 0)  rotate(0 35.99999999999999 35.99999999999999)" d="M4.72,72L67.28,72C68.53,72 69.73,71.5 70.62,70.62C71.5,69.73 72,68.53 72,67.28L72,4.72C72,3.47 71.5,2.27 70.62,1.38C69.73,0.5 68.53,0 67.28,0L4.72,0C3.47,0 2.27,0.5 1.38,1.38C0.5,2.27 0,3.47 0,4.72L0,67.28C0,68.53 0.5,69.73 1.38,70.62C2.27,71.5 3.47,72 4.72,72Z " /></g><path id="矩形 1" fill-rule="evenodd" fill="url(#linear_3)" transform="translate(8.55 8.55)  rotate(0 27.45 27.45)" opacity="1" d="M3.6,54.9L51.3,54.9C52.25,54.9 53.17,54.52 53.85,53.85C54.52,53.17 54.9,52.25 54.9,51.3L54.9,3.6C54.9,2.65 54.52,1.73 53.85,1.05C53.17,0.38 52.25,0 51.3,0L3.6,0C1.61,0 0,1.61 0,3.6L0,51.3C0,52.25 0.38,53.17 1.05,53.85C1.73,54.52 2.65,54.9 3.6,54.9Z " /><path  id="矩形 1" style="stroke:#FFFFFF; stroke-width:0.9; stroke-opacity:0.1; stroke-dasharray:0 0" transform="translate(8.55 8.55)  rotate(0 27.45 27.45)" d="M3.6,54.9L51.3,54.9C52.25,54.9 53.17,54.52 53.85,53.85C54.52,53.17 54.9,52.25 54.9,51.3L54.9,3.6C54.9,2.65 54.52,1.73 53.85,1.05C53.17,0.38 52.25,0 51.3,0L3.6,0C1.61,0 0,1.61 0,3.6L0,51.3C0,52.25 0.38,53.17 1.05,53.85C1.73,54.52 2.65,54.9 3.6,54.9Z " /><g id="矩形 1" filter="url(#filter_139)"><path  id="矩形 1" style="stroke:#FFFFFF; stroke-width:0.9; stroke-opacity:0.3; stroke-dasharray:0 0" transform="translate(8.55 8.55)  rotate(0 27.45 27.45)" d="M3.6,54.9L51.3,54.9C52.25,54.9 53.17,54.52 53.85,53.85C54.52,53.17 54.9,52.25 54.9,51.3L54.9,3.6C54.9,2.65 54.52,1.73 53.85,1.05C53.17,0.38 52.25,0 51.3,0L3.6,0C1.61,0 0,1.61 0,3.6L0,51.3C0,52.25 0.38,53.17 1.05,53.85C1.73,54.52 2.65,54.9 3.6,54.9Z " /></g><g opacity="1" transform="translate(21.15 21.15)  rotate(0 14.850000000000001 14.850000000000001)"><path id="减去顶层" fill-rule="evenodd" style="fill:#FFFFFF" transform="translate(8.1 0)  rotate(0 7.2 7.2)" opacity="1" d="M14.4 14.4L0 14.4L0 0L14.4 0L14.4 14.4Z M10.8 5.4L3.6 5.4L3.6 3.6L10.8 3.6L10.8 5.4Z " /><path id="减去顶层" fill-rule="evenodd" style="fill:#FFFFFF" transform="translate(0 15.3)  rotate(0 7.2 7.2)" opacity="1" d="M14.4 14.4L0 14.4L0 0L14.4 0L14.4 14.4Z M10.8 5.4L3.6 5.4L3.6 3.6L10.8 3.6L10.8 5.4Z " /><path id="减去顶层" fill-rule="evenodd" style="fill:#FFFFFF" transform="translate(15.3 15.3)  rotate(0 7.2 7.2)" opacity="1" d="M14.4 14.4L0 14.4L0 0L14.4 0L14.4 14.4Z M10.8 5.4L3.6 5.4L3.6 3.6L10.8 3.6L10.8 5.4Z " /></g><path id="圆形 1" fill-rule="evenodd" style="fill:#69788A" transform="translate(4.5 5.4)  rotate(0 0.9 0.9)" opacity="1" d="M0.9,0C0.4,0 0,0.4 0,0.9C0,1.4 0.4,1.8 0.9,1.8C1.4,1.8 1.8,1.4 1.8,0.9C1.8,0.4 1.4,0 0.9,0Z " /><path id="圆形 1" fill-rule="evenodd" style="fill:#69788A" transform="translate(4.5 64.8)  rotate(0 0.9 0.9)" opacity="1" d="M0.9,0C0.4,0 0,0.4 0,0.9C0,1.4 0.4,1.8 0.9,1.8C1.4,1.8 1.8,1.4 1.8,0.9C1.8,0.4 1.4,0 0.9,0Z " /><path id="圆形 1" fill-rule="evenodd" style="fill:#69788A" transform="translate(64.8 6.3)  rotate(0 0.9 0.9)" opacity="1" d="M0.9,0C0.4,0 0,0.4 0,0.9C0,1.4 0.4,1.8 0.9,1.8C1.4,1.8 1.8,1.4 1.8,0.9C1.8,0.4 1.4,0 0.9,0Z " /><path id="圆形 1" fill-rule="evenodd" style="fill:#69788A" transform="translate(64.8 63.9)  rotate(0 0.9 0.9)" opacity="1" d="M0.9,0C0.4,0 0,0.4 0,0.9C0,1.4 0.4,1.8 0.9,1.8C1.4,1.8 1.8,1.4 1.8,0.9C1.8,0.4 1.4,0 0.9,0Z " /><path id="圆形 1" fill-rule="evenodd" style="fill:#495869" transform="translate(5.4 6.3)  rotate(0 0.9 0.9)" opacity="1" d="M0.9,0C0.4,0 0,0.4 0,0.9C0,1.4 0.4,1.8 0.9,1.8C1.4,1.8 1.8,1.4 1.8,0.9C1.8,0.4 1.4,0 0.9,0Z " /><path id="圆形 1" fill-rule="evenodd" style="fill:#495869" transform="translate(5.4 63.9)  rotate(0 0.9 0.9)" opacity="1" d="M0.9,0C0.4,0 0,0.4 0,0.9C0,1.4 0.4,1.8 0.9,1.8C1.4,1.8 1.8,1.4 1.8,0.9C1.8,0.4 1.4,0 0.9,0Z " /><path id="圆形 1" fill-rule="evenodd" style="fill:#495869" transform="translate(65.7 5.4)  rotate(0 0.9 0.9)" opacity="1" d="M0.9,0C0.4,0 0,0.4 0,0.9C0,1.4 0.4,1.8 0.9,1.8C1.4,1.8 1.8,1.4 1.8,0.9C1.8,0.4 1.4,0 0.9,0Z " /><path id="圆形 1" fill-rule="evenodd" style="fill:#495869" transform="translate(65.7 64.8)  rotate(0 0.9 0.9)" opacity="1" d="M0.9,0C0.4,0 0,0.4 0,0.9C0,1.4 0.4,1.8 0.9,1.8C1.4,1.8 1.8,1.4 1.8,0.9C1.8,0.4 1.4,0 0.9,0Z " /></g></g></svg>