<svg xmlns="http://www.w3.org/2000/svg" xmlns:xlink="http://www.w3.org/1999/xlink" width="602" height="808" viewBox="0 0 602 808" fill="none"><defs><linearGradient id="linear_0" x1="50%" y1="0%" x2="51%" y2="100%" gradientUnits="objectBoundingBox"><stop offset="0" stop-color="#FFFFFF" stop-opacity="0" /><stop offset="1" stop-color="#FFFFFF" stop-opacity="0.1" /></linearGradient><filter id="filter_16" x="-8" y="-8" width="172" height="54" filterUnits="userSpaceOnUse" color-interpolation-filters="sRGB"><feFlood flood-opacity="0" result="BackgroundImageFix"/>
          <feColorMatrix in="SourceAlpha" type="matrix" values="0 0 0 0 0 0 0 0 0 0 0 0 0 0 0 0 0 0 127 0"/>
          <feOffset dx="2" dy="0"/>
          <feGaussianBlur stdDeviation="4"/>
          <feColorMatrix type="matrix" values="0 0 0 0 0 0 0 0 0 0 0 0 0 0 0 0 0 0 0.25 0"/>
          <feBlend mode="normal" in2="BackgroundImageFix" result="effect1_Shadow"/>
          <feBlend mode="normal" in="SourceGraphic" in2="effect1_Shadow" result="shape"/></filter><filter id="filter_18" x="8" y="1" width="122" height="36" filterUnits="userSpaceOnUse" color-interpolation-filters="sRGB"><feFlood flood-opacity="0" result="BackgroundImageFix"/>
          <feColorMatrix in="SourceAlpha" type="matrix" values="0 0 0 0 0 0 0 0 0 0 0 0 0 0 0 0 0 0 127 0"/>
          <feOffset dx="0" dy="2"/>
          <feGaussianBlur stdDeviation="2"/>
          <feColorMatrix type="matrix" values="0 0 0 0 0 0 0 0 0 0 0 0 0 0 0 0 0 0 0.4 0"/>
          <feBlend mode="normal" in2="BackgroundImageFix" result="effect1_Shadow"/>
          <feBlend mode="normal" in="SourceGraphic" in2="effect1_Shadow" result="shape"/></filter><rect id="path_0" x="0" y="0" width="540" height="144" /><rect id="path_1" x="0" y="0" width="540" height="144" /></defs><g opacity="1" transform="translate(1 8)  rotate(0 300 400)"><g opacity="1" transform="translate(0 0)  rotate(0 300 394.5)"><path id="矩形" fill-rule="evenodd" fill="url(#linear_0)" transform="translate(0 19)  rotate(0 300 385)" opacity="1" d="M24,407L576,407C589.25,407 600,396.25 600,383L600,24C600,10.75 589.25,0 576,0L24,0C10.75,0 0,10.75 0,24L0,383C0,396.25 10.75,407 24,407Z " /><path  id="路径" style="stroke:#FFFFFF; stroke-width:2; stroke-opacity:0.4; stroke-dasharray:0 0" transform="translate(0 18.5)  rotate(0 12 385)" d="M24,0L24,0C17.63,0 11.53,2.53 7.03,7.03C2.53,11.53 0,17.63 0,24L0,383C0,389.37 2.53,395.47 7.03,399.97C11.53,404.47 17.63,407 24,407 " /><path  id="路径" style="stroke:#FFFFFF; stroke-width:2; stroke-opacity:0.4; stroke-dasharray:0 0" transform="translate(576 19)  rotate(0 12.000000000000007 385)" d="M0,0L0,0C13.25,0 24,10.75 24,24L24,383C24,389.37 21.47,395.47 16.97,399.97C12.47,404.47 6.37,407 0,407 " /><path id="矩形" fill-rule="evenodd" style="fill:#272E39" transform="translate(30 0)  rotate(0 19 19)" opacity="1" d="M19,38L38,38L38,0L19,0C13.96,0 9.13,2 5.56,5.56C2,9.13 0,13.96 0,19L0,19C0,24.04 2,28.87 5.56,32.44C9.13,36 13.96,38 19,38Z " /><path id="圆形" fill-rule="evenodd" style="fill:#45DBFF" transform="translate(46 14)  rotate(0 5 5)" opacity="1" d="M5,0C2.24,0 0,2.24 0,5C0,7.76 2.24,10 5,10C7.76,10 10,7.76 10,5C10,2.24 7.76,0 5,0Z " /><path id="矩形" fill-rule="evenodd" style="fill:#252C36" transform="translate(74 0)  rotate(0 248 19)" opacity="1" d="M0,38L477,38C482.04,38 486.87,36 490.44,32.44C494,28.87 496,24.04 496,19L496,19C496,13.96 494,9.13 490.44,5.56C486.87,2 482.04,0 477,0L0,0L0,38Z " /><g opacity="1" transform="translate(74 0)  rotate(0 78 19)"><g id="undefined" filter="url(#filter_16)"></g><g id="文本 1" filter="url(#filter_18)"><g opacity="1" transform="translate(12 5)  rotate(0 57 14)"><text><tspan x="0" y="23.240000000000002" font-size="28" line-height="28" fill="#FFFFFF" opacity="1" font-family="PangMenZhengDao" letter-spacing="2" >车辆分析</tspan></text></g></g></g><path id="路径" fill-rule="evenodd" style="fill:#4E555D" transform="translate(549 12)  rotate(0 3.5000000000000004 7)" opacity="1" d="M0,0L0,14L7,7L0,0Z " /></g><path id="矩形 1" fill-rule="evenodd" style="fill:#1D232B" transform="translate(30 235)  rotate(0 270 72)" opacity="0.72" d="M0,144L540,144L540,0L0,0L0,144Z " /><path id="矩形 1" fill-rule="evenodd" style="fill:#1D232B" transform="translate(30 74)  rotate(0 270 72)" opacity="0.72" d="M0,144L540,144L540,0L0,0L0,144Z " /><path id="矩形 1" fill-rule="evenodd" style="fill:#1D232B" transform="translate(56 175)  rotate(0 270 72)" opacity="0.72" d="M0,144L540,144L540,0L0,0L0,144Z " /><path id="矩形 1" fill-rule="evenodd" style="fill:#1D232B" transform="translate(30 235)  rotate(0 270 72)" opacity="0.72" d="M0,144L540,144L540,0L0,0L0,144Z " /><path id="矩形 1" fill-rule="evenodd" style="fill:#1D232B" transform="translate(30 235)  rotate(0 270 72)" opacity="0.72" d="M0,144L540,144L540,0L0,0L0,144Z " /><path id="直线 1"  style="fill:#CCCCCC" transform="translate(51 125)  rotate(0 248.99999999950398 0.0004970059880229621)" opacity="1" d="" /><path  id="直线 1" style="stroke:#3B3B3B; stroke-width:1; stroke-opacity:1; stroke-dasharray:0 0" transform="translate(51 125)  rotate(0 248.99999999950398 0.0004970059880229621)" d="M0,0L498,0 " /><g opacity="1" transform="translate(67.22 84)  rotate(0 38.5 19.5)"><text><tspan x="0" y="30.959999999999997" font-size="36" line-height="0" fill="#45DBFF" opacity="1" font-family="PangMenZhengDao" letter-spacing="0" >车辆1</tspan></text></g><g opacity="1" transform="translate(51 140)  rotate(0 48 14)"><text><tspan x="0" y="22.36" font-size="26" line-height="0" fill="#AAAAAA" opacity="1" font-family="PangMenZhengDao" letter-spacing="0" >安全系数</tspan></text></g><g opacity="1" transform="translate(329 140)  rotate(0 36 14)"><text><tspan x="0" y="22.36" font-size="26" line-height="0" fill="#AAAAAA" opacity="1" font-family="PangMenZhengDao" letter-spacing="0" >驾驶员</tspan></text></g><g opacity="1" transform="translate(219 140)  rotate(0 13 14)"><text><tspan x="0" y="22.36" font-size="26" line-height="0" fill="#E5E5E5" opacity="1" font-family="PangMenZhengDao" letter-spacing="0" >高</tspan></text></g><g opacity="1" transform="translate(219 175)  rotate(0 25 14)"><text><tspan x="0" y="22.36" font-size="26" line-height="0" fill="#E5E5E5" opacity="1" font-family="PangMenZhengDao" letter-spacing="0" >良好</tspan></text></g><g opacity="1" transform="translate(220 337)  rotate(0 24 14)"><text><tspan x="0" y="22.36" font-size="26" line-height="0" fill="#E5E5E5" opacity="1" font-family="PangMenZhengDao" letter-spacing="0" ></tspan></text></g><g opacity="1" transform="translate(501 140)  rotate(0 16 14)"><text><tspan x="0" y="22.36" font-size="26" line-height="0" fill="#E5E5E5" opacity="1" font-family="PangMenZhengDao" letter-spacing="0" >1号</tspan></text></g><g opacity="1" transform="translate(455 175)  rotate(0 4 14)"><text><tspan x="0" y="22.36" font-size="26" line-height="0" fill="#E5E5E5" opacity="1" font-family="PangMenZhengDao" letter-spacing="0" ></tspan></text></g><g opacity="1" transform="translate(487 90)  rotate(0 36 14)"><text><tspan x="0" y="22.36" font-size="26" line-height="0" fill="#AAAAAA" opacity="1" font-family="PangMenZhengDao" letter-spacing="0" >运输中</tspan></text></g><g opacity="1" transform="translate(50 175)  rotate(0 48 14)"><text><tspan x="0" y="22.36" font-size="26" line-height="0" fill="#AAAAAA" opacity="1" font-family="PangMenZhengDao" letter-spacing="0" >车辆自检</tspan></text></g><g opacity="1" transform="translate(51 337)  rotate(0 36 14)"><text><tspan x="0" y="22.36" font-size="26" line-height="0" fill="#AAAAAA" opacity="1" font-family="PangMenZhengDao" letter-spacing="0" ></tspan></text></g><g opacity="1" transform="translate(328 175)  rotate(0 12 14)"><text><tspan x="0" y="22.36" font-size="26" line-height="0" fill="#AAAAAA" opacity="1" font-family="PangMenZhengDao" letter-spacing="0" ></tspan></text></g><g opacity="1" transform="translate(329 337)  rotate(0 24 14)"><text><tspan x="0" y="22.36" font-size="26" line-height="0" fill="#AAAAAA" opacity="1" font-family="PangMenZhengDao" letter-spacing="0" ></tspan></text></g><path id="三角形 1" fill-rule="evenodd" style="fill:#808080" transform="translate(48.83132530120474 97.7510040160643)  rotate(90 5.843373493975904 4.674698795180723)" opacity="1" d="M0.78,7.01L10.9,7.01L5.84,0L0.78,7.01Z " /><g opacity="1" transform="translate(39 247)  rotate(0 270 72)"><path id="矩形 1" fill-rule="evenodd" style="fill:#1D232B" transform="translate(0 0)  rotate(0 270 72)" opacity="0.72" d="M0,144L540,144L540,0L0,0L0,144Z " /><path id="直线 1"  style="fill:#CCCCCC" transform="translate(22 52)  rotate(0 248.99999999950398 0.0004970059880229621)" opacity="1" d="" /><path  id="直线 1" style="stroke:#3B3B3B; stroke-width:1; stroke-opacity:1; stroke-dasharray:0 0" transform="translate(22 52)  rotate(0 248.99999999950398 0.0004970059880229621)" d="M0,0L498,0 " /><g opacity="1" transform="translate(38.22000000000003 11)  rotate(0 45.5 19.5)"><text><tspan x="0" y="30.959999999999997" font-size="36" line-height="0" fill="#45DBFF" opacity="1" font-family="PangMenZhengDao" letter-spacing="0" >车辆2</tspan></text></g><g opacity="1" transform="translate(22 67)  rotate(0 48 14)"><text><tspan x="0" y="22.36" font-size="26" line-height="0" fill="#AAAAAA" opacity="1" font-family="PangMenZhengDao" letter-spacing="0" >安全系数</tspan></text></g><g opacity="1" transform="translate(300 67)  rotate(0 36 14)"><text><tspan x="0" y="22.36" font-size="26" line-height="0" fill="#AAAAAA" opacity="1" font-family="PangMenZhengDao" letter-spacing="0" >驾驶员</tspan></text></g><g opacity="1" transform="translate(190 67)  rotate(0 25 14)"><text><tspan x="0" y="22.36" font-size="26" line-height="0" fill="#E5E5E5" opacity="1" font-family="PangMenZhengDao" letter-spacing="0" >较高</tspan></text></g><g opacity="1" transform="translate(188 116)  rotate(0 25 14)"><text><tspan x="0" y="22.36" font-size="26" line-height="0" fill="#E5E5E5" opacity="1" font-family="PangMenZhengDao" letter-spacing="0" >良好</tspan></text></g><g opacity="1" transform="translate(472 67)  rotate(0 21 14)"><text><tspan x="0" y="22.36" font-size="26" line-height="0" fill="#E5E5E5" opacity="1" font-family="PangMenZhengDao" letter-spacing="0" >2号</tspan></text></g><g opacity="1" transform="translate(448 17)  rotate(0 36 14)"><text><tspan x="0" y="22.36" font-size="26" line-height="0" fill="#AAAAAA" opacity="1" font-family="PangMenZhengDao" letter-spacing="0" >运输中</tspan></text></g><g opacity="1" transform="translate(28 116)  rotate(0 48 14)"><text><tspan x="0" y="22.36" font-size="26" line-height="0" fill="#AAAAAA" opacity="1" font-family="PangMenZhengDao" letter-spacing="0" >车辆自检</tspan></text></g><path id="三角形 1" fill-rule="evenodd" style="fill:#808080" transform="translate(19.831325301204743 24.751004016064314)  rotate(90 5.843373493975904 4.674698795180723)" opacity="1" d="M0.78,7.01L10.9,7.01L5.84,0L0.78,7.01Z " /></g><g opacity="1" transform="translate(39 410)  rotate(0 270 72)"><mask id="bg-mask-0" fill="white"><use xlink:href="#path_0"></use></mask><g mask="url(#bg-mask-0)" ><g opacity="1" transform="translate(22 5.959999999999997)  rotate(0 249 67.2)"><path  id="直线 1" style="stroke:#3B3B3B; stroke-width:1; stroke-opacity:1; stroke-dasharray:0 0" transform="translate(0 46.040000000000006)  rotate(0 249 0)" d="M0,0L498,0 " /><g opacity="1" transform="translate(16.220000000000027 0)  rotate(0 45.5 19.5)"><g opacity="1" transform="translate(0 0)  rotate(0 45.5 19.5)"><text><tspan x="0" y="30.959999999999997" font-size="36" line-height="0" fill="#45DBFF" opacity="1" font-family="PangMenZhengDao" letter-spacing="0" >车辆2</tspan></text></g></g><g opacity="1" transform="translate(0 57.400000000000006)  rotate(0 48 14)"><g opacity="1" transform="translate(0 0)  rotate(0 48 14)"><text><tspan x="0" y="22.36" font-size="26" line-height="0" fill="#AAAAAA" opacity="1" font-family="PangMenZhengDao" letter-spacing="0" >安全系数</tspan></text></g></g><g opacity="1" transform="translate(278 57.400000000000006)  rotate(0 36 14)"><g opacity="1" transform="translate(0 0)  rotate(0 36 14)"><text><tspan x="0" y="22.36" font-size="26" line-height="0" fill="#AAAAAA" opacity="1" font-family="PangMenZhengDao" letter-spacing="0" >驾驶员</tspan></text></g></g><g opacity="1" transform="translate(168 57.400000000000006)  rotate(0 25 14)"><g opacity="1" transform="translate(0 0)  rotate(0 25 14)"><text><tspan x="0" y="22.36" font-size="26" line-height="0" fill="#E5E5E5" opacity="1" font-family="PangMenZhengDao" letter-spacing="0" >较高</tspan></text></g></g><g opacity="1" transform="translate(166 106.4)  rotate(0 25 14)"><g opacity="1" transform="translate(0 0)  rotate(0 25 14)"><text><tspan x="0" y="22.36" font-size="26" line-height="0" fill="#E5E5E5" opacity="1" font-family="PangMenZhengDao" letter-spacing="0" >良好</tspan></text></g></g><g opacity="1" transform="translate(450 57.400000000000006)  rotate(0 21 14)"><g opacity="1" transform="translate(0 0)  rotate(0 21 14)"><text><tspan x="0" y="22.36" font-size="26" line-height="0" fill="#E5E5E5" opacity="1" font-family="PangMenZhengDao" letter-spacing="0" >2号</tspan></text></g></g><g opacity="1" transform="translate(426 7.400000000000002)  rotate(0 36 14)"><g opacity="1" transform="translate(0 0)  rotate(0 36 14)"><text><tspan x="0" y="22.36" font-size="26" line-height="0" fill="#AAAAAA" opacity="1" font-family="PangMenZhengDao" letter-spacing="0" >运输中</tspan></text></g></g><g opacity="1" transform="translate(6 106.4)  rotate(0 48 14)"><g opacity="1" transform="translate(0 0)  rotate(0 48 14)"><text><tspan x="0" y="22.36" font-size="26" line-height="0" fill="#AAAAAA" opacity="1" font-family="PangMenZhengDao" letter-spacing="0" >车辆自检</tspan></text></g></g><path id="三角形 1" fill-rule="evenodd" style="fill:#808080" transform="translate(-0.2156024096386311 19.95732931726914)  rotate(90 5.0600000000000005 3.505)" opacity="1" d="M10.12,7.01L5.06,0L0,7.01L10.12,7.01Z " /></g></g></g><g opacity="1" transform="translate(39 573)  rotate(0 270 72)"><mask id="bg-mask-1" fill="white"><use xlink:href="#path_1"></use></mask><g mask="url(#bg-mask-1)" ><g opacity="1" transform="translate(0 0)  rotate(0 270 72)"><path id="矩形 1" fill-rule="evenodd" style="fill:#1D232B" transform="translate(0 0)  rotate(0 270 72)" opacity="0.72" d="M540,144L540,0L0,0L0,144L540,144Z " /><path  id="直线 1" style="stroke:#3B3B3B; stroke-width:1; stroke-opacity:1; stroke-dasharray:0 0" transform="translate(22 52)  rotate(0 249 0)" d="M0,0L498,0 " /><g opacity="1" transform="translate(38.22000000000003 5.959999999999997)  rotate(0 45.5 19.5)"><g opacity="1" transform="translate(0 0)  rotate(0 45.5 19.5)"><text><tspan x="0" y="30.959999999999997" font-size="36" line-height="0" fill="#45DBFF" opacity="1" font-family="PangMenZhengDao" letter-spacing="0" >车辆2</tspan></text></g></g><g opacity="1" transform="translate(22 63.36)  rotate(0 48 14)"><g opacity="1" transform="translate(0 0)  rotate(0 48 14)"><text><tspan x="0" y="22.36" font-size="26" line-height="0" fill="#AAAAAA" opacity="1" font-family="PangMenZhengDao" letter-spacing="0" >安全系数</tspan></text></g></g><g opacity="1" transform="translate(300 63.36)  rotate(0 36 14)"><g opacity="1" transform="translate(0 0)  rotate(0 36 14)"><text><tspan x="0" y="22.36" font-size="26" line-height="0" fill="#AAAAAA" opacity="1" font-family="PangMenZhengDao" letter-spacing="0" >驾驶员</tspan></text></g></g><g opacity="1" transform="translate(190 63.36)  rotate(0 25 14)"><g opacity="1" transform="translate(0 0)  rotate(0 25 14)"><text><tspan x="0" y="22.36" font-size="26" line-height="0" fill="#E5E5E5" opacity="1" font-family="PangMenZhengDao" letter-spacing="0" >较高</tspan></text></g></g><g opacity="1" transform="translate(188 112.36)  rotate(0 25 14)"><g opacity="1" transform="translate(0 0)  rotate(0 25 14)"><text><tspan x="0" y="22.36" font-size="26" line-height="0" fill="#E5E5E5" opacity="1" font-family="PangMenZhengDao" letter-spacing="0" >良好</tspan></text></g></g><g opacity="1" transform="translate(472 63.36)  rotate(0 21 14)"><g opacity="1" transform="translate(0 0)  rotate(0 21 14)"><text><tspan x="0" y="22.36" font-size="26" line-height="0" fill="#E5E5E5" opacity="1" font-family="PangMenZhengDao" letter-spacing="0" >2号</tspan></text></g></g><g opacity="1" transform="translate(448 13.36)  rotate(0 36 14)"><g opacity="1" transform="translate(0 0)  rotate(0 36 14)"><text><tspan x="0" y="22.36" font-size="26" line-height="0" fill="#AAAAAA" opacity="1" font-family="PangMenZhengDao" letter-spacing="0" >运输中</tspan></text></g></g><g opacity="1" transform="translate(28 112.36)  rotate(0 48 14)"><g opacity="1" transform="translate(0 0)  rotate(0 48 14)"><text><tspan x="0" y="22.36" font-size="26" line-height="0" fill="#AAAAAA" opacity="1" font-family="PangMenZhengDao" letter-spacing="0" >车辆自检</tspan></text></g></g><path id="三角形 1" fill-rule="evenodd" style="fill:#808080" transform="translate(21.78439759036137 25.917329317269136)  rotate(90 5.0600000000000005 3.505)" opacity="1" d="M10.12,7.01L5.06,0L0,7.01L10.12,7.01Z " /></g></g></g><path id="三角形 1" fill-rule="evenodd" style="fill:#808080" transform="translate(183.83 97.75)  rotate(-90 5.843373493975904 4.674698795180723)" opacity="1" d="M0.78,7.01L10.9,7.01L5.84,0L0.78,7.01Z " /><path id="三角形 1" fill-rule="evenodd" style="fill:#808080" transform="translate(196.83 259.75)  rotate(-90 5.843373493975904 4.674698795180723)" opacity="1" d="M0.78,7.01L10.9,7.01L5.84,0L0.78,7.01Z " /><g opacity="1" transform="translate(85 13)  rotate(0 6 9)"><text><tspan x="0" y="13.92" font-size="12" line-height="0" fill="#FFFFFF" opacity="1" font-family="SourceHanSansCN-Regular" letter-spacing="0" ></tspan></text></g></g></svg>