<svg xmlns="http://www.w3.org/2000/svg" xmlns:xlink="http://www.w3.org/1999/xlink" width="600" height="1131" viewBox="0 0 600 1131" fill="none"><defs><linearGradient id="linear_0" x1="0%" y1="50%" x2="100%" y2="50%" gradientUnits="objectBoundingBox"><stop offset="0" stop-color="#252C36" stop-opacity="1" /><stop offset="1" stop-color="#252C36" stop-opacity="0" /></linearGradient><filter id="filter_6" x="57" y="134" width="120" height="36" filterUnits="userSpaceOnUse" color-interpolation-filters="sRGB"><feFlood flood-opacity="0" result="BackgroundImageFix"/>
          <feColorMatrix in="SourceAlpha" type="matrix" values="0 0 0 0 0 0 0 0 0 0 0 0 0 0 0 0 0 0 127 0"/>
          <feOffset dx="0" dy="2"/>
          <feGaussianBlur stdDeviation="2"/>
          <feColorMatrix type="matrix" values="0 0 0 0 0 0 0 0 0 0 0 0 0 0 0 0 0 0 0.4 0"/>
          <feBlend mode="normal" in2="BackgroundImageFix" result="effect1_Shadow"/>
          <feBlend mode="normal" in="SourceGraphic" in2="effect1_Shadow" result="shape"/></filter><filter id="filter_8" x="49" y="79" width="147" height="36" filterUnits="userSpaceOnUse" color-interpolation-filters="sRGB"><feFlood flood-opacity="0" result="BackgroundImageFix"/>
          <feColorMatrix in="SourceAlpha" type="matrix" values="0 0 0 0 0 0 0 0 0 0 0 0 0 0 0 0 0 0 127 0"/>
          <feOffset dx="0" dy="2"/>
          <feGaussianBlur stdDeviation="2"/>
          <feColorMatrix type="matrix" values="0 0 0 0 0 0 0 0 0 0 0 0 0 0 0 0 0 0 0.4 0"/>
          <feBlend mode="normal" in2="BackgroundImageFix" result="effect1_Shadow"/>
          <feBlend mode="normal" in="SourceGraphic" in2="effect1_Shadow" result="shape"/></filter><filter id="filter_10" x="443" y="79" width="120" height="36" filterUnits="userSpaceOnUse" color-interpolation-filters="sRGB"><feFlood flood-opacity="0" result="BackgroundImageFix"/>
          <feColorMatrix in="SourceAlpha" type="matrix" values="0 0 0 0 0 0 0 0 0 0 0 0 0 0 0 0 0 0 127 0"/>
          <feOffset dx="0" dy="2"/>
          <feGaussianBlur stdDeviation="2"/>
          <feColorMatrix type="matrix" values="0 0 0 0 0 0 0 0 0 0 0 0 0 0 0 0 0 0 0.4 0"/>
          <feBlend mode="normal" in2="BackgroundImageFix" result="effect1_Shadow"/>
          <feBlend mode="normal" in="SourceGraphic" in2="effect1_Shadow" result="shape"/></filter><linearGradient id="linear_1" x1="0%" y1="50%" x2="100%" y2="50%" gradientUnits="objectBoundingBox"><stop offset="0" stop-color="#AAAAAA" stop-opacity="0.2" /><stop offset="1" stop-color="#000000" stop-opacity="0" /></linearGradient><linearGradient id="linear_2" x1="0%" y1="50%" x2="100%" y2="50%" gradientUnits="objectBoundingBox"><stop offset="0" stop-color="#FFFFFF" stop-opacity="0.1" /><stop offset="1" stop-color="#ABABAB" stop-opacity="0" /></linearGradient><filter id="filter_18" x="65" y="216" width="10" height="36" filterUnits="userSpaceOnUse" color-interpolation-filters="sRGB"><feFlood flood-opacity="0" result="BackgroundImageFix"/>
          <feColorMatrix in="SourceAlpha" type="matrix" values="0 0 0 0 0 0 0 0 0 0 0 0 0 0 0 0 0 0 127 0"/>
          <feOffset dx="0" dy="2"/>
          <feGaussianBlur stdDeviation="2"/>
          <feColorMatrix type="matrix" values="0 0 0 0 0 0 0 0 0 0 0 0 0 0 0 0 0 0 0.4 0"/>
          <feBlend mode="normal" in2="BackgroundImageFix" result="effect1_Shadow"/>
          <feBlend mode="normal" in="SourceGraphic" in2="effect1_Shadow" result="shape"/></filter><filter id="filter_20" x="167" y="179" width="10" height="36" filterUnits="userSpaceOnUse" color-interpolation-filters="sRGB"><feFlood flood-opacity="0" result="BackgroundImageFix"/>
          <feColorMatrix in="SourceAlpha" type="matrix" values="0 0 0 0 0 0 0 0 0 0 0 0 0 0 0 0 0 0 127 0"/>
          <feOffset dx="0" dy="2"/>
          <feGaussianBlur stdDeviation="2"/>
          <feColorMatrix type="matrix" values="0 0 0 0 0 0 0 0 0 0 0 0 0 0 0 0 0 0 0.4 0"/>
          <feBlend mode="normal" in2="BackgroundImageFix" result="effect1_Shadow"/>
          <feBlend mode="normal" in="SourceGraphic" in2="effect1_Shadow" result="shape"/></filter><filter id="filter_22" x="167" y="217" width="10" height="36" filterUnits="userSpaceOnUse" color-interpolation-filters="sRGB"><feFlood flood-opacity="0" result="BackgroundImageFix"/>
          <feColorMatrix in="SourceAlpha" type="matrix" values="0 0 0 0 0 0 0 0 0 0 0 0 0 0 0 0 0 0 127 0"/>
          <feOffset dx="0" dy="2"/>
          <feGaussianBlur stdDeviation="2"/>
          <feColorMatrix type="matrix" values="0 0 0 0 0 0 0 0 0 0 0 0 0 0 0 0 0 0 0.4 0"/>
          <feBlend mode="normal" in2="BackgroundImageFix" result="effect1_Shadow"/>
          <feBlend mode="normal" in="SourceGraphic" in2="effect1_Shadow" result="shape"/></filter><filter id="filter_24" x="101" y="181" width="203" height="36" filterUnits="userSpaceOnUse" color-interpolation-filters="sRGB"><feFlood flood-opacity="0" result="BackgroundImageFix"/>
          <feColorMatrix in="SourceAlpha" type="matrix" values="0 0 0 0 0 0 0 0 0 0 0 0 0 0 0 0 0 0 127 0"/>
          <feOffset dx="0" dy="2"/>
          <feGaussianBlur stdDeviation="2"/>
          <feColorMatrix type="matrix" values="0 0 0 0 0 0 0 0 0 0 0 0 0 0 0 0 0 0 0.4 0"/>
          <feBlend mode="normal" in2="BackgroundImageFix" result="effect1_Shadow"/>
          <feBlend mode="normal" in="SourceGraphic" in2="effect1_Shadow" result="shape"/></filter><filter id="filter_26" x="106" y="235" width="156" height="36" filterUnits="userSpaceOnUse" color-interpolation-filters="sRGB"><feFlood flood-opacity="0" result="BackgroundImageFix"/>
          <feColorMatrix in="SourceAlpha" type="matrix" values="0 0 0 0 0 0 0 0 0 0 0 0 0 0 0 0 0 0 127 0"/>
          <feOffset dx="0" dy="2"/>
          <feGaussianBlur stdDeviation="2"/>
          <feColorMatrix type="matrix" values="0 0 0 0 0 0 0 0 0 0 0 0 0 0 0 0 0 0 0.4 0"/>
          <feBlend mode="normal" in2="BackgroundImageFix" result="effect1_Shadow"/>
          <feBlend mode="normal" in="SourceGraphic" in2="effect1_Shadow" result="shape"/></filter><filter id="filter_28" x="65" y="253" width="10" height="36" filterUnits="userSpaceOnUse" color-interpolation-filters="sRGB"><feFlood flood-opacity="0" result="BackgroundImageFix"/>
          <feColorMatrix in="SourceAlpha" type="matrix" values="0 0 0 0 0 0 0 0 0 0 0 0 0 0 0 0 0 0 127 0"/>
          <feOffset dx="0" dy="2"/>
          <feGaussianBlur stdDeviation="2"/>
          <feColorMatrix type="matrix" values="0 0 0 0 0 0 0 0 0 0 0 0 0 0 0 0 0 0 0.4 0"/>
          <feBlend mode="normal" in2="BackgroundImageFix" result="effect1_Shadow"/>
          <feBlend mode="normal" in="SourceGraphic" in2="effect1_Shadow" result="shape"/></filter><radialGradient id="linear_3" cx="50%" cy="50%" fx="50%" fy="50%" r="0.5" gradientTransform="translate(0.5 0.5) scale(1 1) rotate(90) scale(1 1) translate(-0.5 -0.5)" ><stop offset="0" stop-color="#CCE1FF" stop-opacity="0" /><stop offset="1" stop-color="#CCE1FF" stop-opacity="0.05" /></radialGradient><filter id="filter_43" x="0" y="0" width="138.4760325817643" height="139.001059580287" filterUnits="userSpaceOnUse" color-interpolation-filters="sRGB"><feFlood flood-opacity="0" result="BackgroundImageFix"/>
          <feBlend mode="normal" in="SourceGraphic" in2="BackgroundImageFix" result="shape"/>
          <feGaussianBlur stdDeviation="3" result="effect1_foregroundBlur" /></filter><filter id="filter_50" x="36.79776736032284" y="55.66395852890145" width="71.56" height="25.559999999999995" filterUnits="userSpaceOnUse" color-interpolation-filters="sRGB"><feFlood flood-opacity="0" result="BackgroundImageFix"/>
          <feColorMatrix in="SourceAlpha" type="matrix" values="0 0 0 0 0 0 0 0 0 0 0 0 0 0 0 0 0 0 127 0"/>
          <feOffset dx="0" dy="1.39"/>
          <feGaussianBlur stdDeviation="1.39"/>
          <feColorMatrix type="matrix" values="0 0 0 0 0 0 0 0 0 0 0 0 0 0 0 0 0 0 0.4 0"/>
          <feBlend mode="normal" in2="BackgroundImageFix" result="effect1_Shadow"/>
          <feBlend mode="normal" in="SourceGraphic" in2="effect1_Shadow" result="shape"/></filter><filter id="filter_52" x="51.121581348755896" y="76.51360366929985" width="44.56" height="25.560000000000002" filterUnits="userSpaceOnUse" color-interpolation-filters="sRGB"><feFlood flood-opacity="0" result="BackgroundImageFix"/>
          <feColorMatrix in="SourceAlpha" type="matrix" values="0 0 0 0 0 0 0 0 0 0 0 0 0 0 0 0 0 0 127 0"/>
          <feOffset dx="0" dy="1.39"/>
          <feGaussianBlur stdDeviation="1.39"/>
          <feColorMatrix type="matrix" values="0 0 0 0 0 0 0 0 0 0 0 0 0 0 0 0 0 0 0.4 0"/>
          <feBlend mode="normal" in2="BackgroundImageFix" result="effect1_Shadow"/>
          <feBlend mode="normal" in="SourceGraphic" in2="effect1_Shadow" result="shape"/></filter></defs><g opacity="1" transform="translate(0 0)  rotate(0 300 565.5)"><path id="矩形" fill-rule="evenodd" fill="url(#linear_0)" transform="translate(33 78)  rotate(0 271.5 19)" opacity="1" d="M0,19L0,19C0,24.04 2,28.87 5.56,32.44C9.13,36 13.96,38 19,38L543,38L543,0L19,0C13.96,0 9.13,2 5.56,5.56C2,9.13 0,13.96 0,19Z " /><path id="矩形 6" fill-rule="evenodd" style="fill:#45DBFF" transform="translate(37 138.5)  rotate(0 2 13.5)" opacity="1" d="M0,27L4,27L4,0L0,0L0,27Z " /><g id="文本 1" filter="url(#filter_6)"><g opacity="1" transform="translate(61 138)  rotate(0 56 14)"><text><tspan x="0" y="23.240000000000002" font-size="28" line-height="28" fill="#C2C2C2" opacity="1" font-family="PangMenZhengDao" letter-spacing="2" >状态总览</tspan></text></g></g><g id="文本 1" filter="url(#filter_8)"><g opacity="1" transform="translate(53 83)  rotate(0 69.5 14)"><text><tspan x="0" y="23.240000000000002" font-size="28" line-height="28" fill="#E5E5E5" opacity="1" font-family="PangMenZhengDao" letter-spacing="2" >驾驶员人数</tspan></text></g></g><g id="文本 1" filter="url(#filter_10)"><g opacity="1" transform="translate(447 83)  rotate(0 56 14)"><text><tspan x="0" y="23.240000000000002" font-size="28" line-height="28" fill="#45DBFF" opacity="1" font-family="PangMenZhengDao" letter-spacing="2" >安全系数</tspan></text></g></g><path id="矩形 1" style="stroke:url(#linear_1); stroke-width:1; stroke-opacity:100; stroke-dasharray:0 0" transform="translate(37 188)  rotate(0 72.5 12)" d="M17.4,0L12,0C8.82,0 5.77,1.26 3.51,3.51C1.26,5.77 0,8.82 0,12L0,12C0,15.18 1.26,18.23 3.51,20.49C5.77,22.74 8.82,24 12,24L145,24L145,0 " /><path id="矩形 2" fill-rule="evenodd" fill="url(#linear_2)" transform="translate(41 192)  rotate(0 41 8)" opacity="1" d="M8,16L74,16C76.12,16 78.16,15.16 79.66,13.66C81.16,12.16 82,10.12 82,8L82,8C82,5.88 81.16,3.84 79.66,2.34C78.16,0.84 76.12,0 74,0L8,0C5.88,0 3.84,0.84 2.34,2.34C0.84,3.84 0,5.88 0,8L0,8C0,10.12 0.84,12.16 2.34,13.66C3.84,15.16 5.88,16 8,16Z " /><path id="圆形 1" fill-rule="evenodd" style="fill:#45DBFF" transform="translate(48 196)  rotate(0 4 4)" opacity="1" d="M4,0C1.79,0 0,1.79 0,4C0,6.21 1.79,8 4,8C6.21,8 8,6.21 8,4C8,1.79 6.21,0 4,0Z " /><g id="文本 1" filter="url(#filter_18)"><g opacity="1" transform="translate(69 220)  rotate(0 1 14)"><text><tspan x="0" y="20.6" font-size="20" line-height="28" fill="#C2C2C2" opacity="1" font-family="PangMenZhengDao" letter-spacing="2" ></tspan></text></g></g><g id="文本 1" filter="url(#filter_20)"><g opacity="1" transform="translate(171 183)  rotate(0 1 14)"><text><tspan x="0" y="20.6" font-size="20" line-height="28" fill="#C2C2C2" opacity="1" font-family="PangMenZhengDao" letter-spacing="2" ></tspan></text></g></g><g id="文本 1" filter="url(#filter_22)"><g opacity="1" transform="translate(171 221)  rotate(0 1 14)"><text><tspan x="0" y="20.6" font-size="20" line-height="28" fill="#C2C2C2" opacity="1" font-family="PangMenZhengDao" letter-spacing="2" ></tspan></text></g></g><g id="文本 1" filter="url(#filter_24)"><g opacity="1" transform="translate(105 185)  rotate(0 97.5 14)"><text><tspan x="0" y="20.6" font-size="20" line-height="28" fill="#C2C2C2" opacity="1" font-family="PangMenZhengDao" letter-spacing="2"  >自主评估反馈:</tspan><tspan x="130.48" y="20.6" font-size="20" line-height="28" fill="#C2C2C2" opacity="1" font-family="PangMenZhengDao" letter-spacing="2" > 良好</tspan></text></g></g><g id="文本 1" filter="url(#filter_26)"><g opacity="1" transform="translate(110 239)  rotate(0 74 14)"><text><tspan x="0" y="20.6" font-size="20" line-height="28" fill="#C2C2C2" opacity="1" font-family="PangMenZhengDao" letter-spacing="2"  >异常行为：</tspan><tspan x="105.20000000000002" y="20.6" font-size="20" line-height="28" fill="#C2C2C2" opacity="1" font-family="PangMenZhengDao" letter-spacing="2" > 无</tspan></text></g></g><g id="文本 1" filter="url(#filter_28)"><g opacity="1" transform="translate(69 257)  rotate(0 1 14)"><text><tspan x="0" y="20.6" font-size="20" line-height="28" fill="#C2C2C2" opacity="1" font-family="PangMenZhengDao" letter-spacing="2" ></tspan></text></g></g><g opacity="1" transform="translate(430.0000000000001 137.9894790017728)  rotate(0 73.00000000000001 73.0404227826624)"><g opacity="1" transform="translate(3.5421871674480343 3.539892992518915)  rotate(3 69.45781283255198 69.50052979014349)"><g opacity="1" transform="translate(0.17879223956050008 0)  rotate(0 69.36841671277173 69.50052979014349)"><path id="减去顶层" fill-rule="evenodd" style="fill:#283039" transform="translate(0 0)  rotate(0 69.36841671277173 69.50052979014349)" opacity="1" d="M117.929 19.9029C111.409 13.5129 103.699 8.4629 95.2392 5.0529C86.7792 1.6329 77.7192 -0.0771007 68.5992 0.00289925C59.4692 0.0928993 50.4492 1.9729 42.0492 5.5429L46.6845 16.4468C53.6465 13.4657 61.3131 11.8151 69.3644 11.8151C93.1963 11.8151 113.654 26.2678 122.451 46.882L133.199 42.3129C129.629 33.9129 124.439 26.3029 117.929 19.9029Z M11.8967 64.5133C13.509 45.6754 24.1801 29.4191 39.5329 20.1214L33.4121 9.94695C24.0173 15.5995 16.0857 23.3992 10.2846 32.7072C4.47228 42.0066 0.945317 52.5501 -0.00298023 63.4784L11.8967 64.5133Z M11.9026 74.5474L0.00545502 75.5947C0.901833 85.7802 4.0443 95.6546 9.19335 104.499C14.3455 113.333 21.3825 120.929 29.8036 126.725C38.2312 132.534 47.8331 136.411 57.9242 138.07C68.0121 139.739 78.3582 139.158 88.194 136.361L84.9857 125.045C80.0175 126.439 74.778 127.185 69.3644 127.185C39.2162 127.185 14.4619 104.042 11.9026 74.5474Z M92.7536 122.246L97.5389 132.979C108.227 128.211 117.55 120.818 124.618 111.493C131.686 102.168 136.296 91.1959 137.994 79.6145L126.444 77.916C123.538 97.7835 110.505 114.364 92.7536 122.246Z M127.021 71.49L138.697 71.8914C138.9 66.061 138.361 60.2374 137.109 54.5452L125.709 57.0576C126.59 61.0634 127.054 65.2251 127.054 69.4951C127.054 70.1627 127.043 70.8278 127.021 71.49Z " /><path id="减去顶层" fill-rule="evenodd" style="fill:#A9ACB0" transform="translate(0 0)  rotate(0 69.36841671277173 69.50052979014349)" opacity="1" d="M117.929 19.9029C111.409 13.5129 103.699 8.4629 95.2392 5.0529C86.7792 1.6329 77.7192 -0.0770996 68.5992 0.00290041C59.4692 0.0929004 50.4492 1.9729 42.0492 5.5429L43.4003 8.72135C51.3352 5.34382 60.0666 3.47494 69.2341 3.47494C96.5354 3.47494 119.964 20.0403 130.019 43.6648L133.199 42.3129C129.629 33.9129 124.439 26.3029 117.929 19.9029Z M3.45814 63.7794C5.31098 42.1758 17.5691 23.5425 35.1974 12.9146L33.4121 9.94695C24.0173 15.5995 16.0857 23.3992 10.2846 32.7072C4.47228 42.0066 0.945318 52.5501 -0.00297928 63.4784L3.45814 63.7794Z M3.4649 75.2902L0.00545502 75.5947C0.901833 85.7802 4.0443 95.6546 9.19335 104.499C14.3455 113.333 21.3825 120.929 29.8036 126.725C38.2312 132.534 47.8331 136.411 57.9242 138.07C68.0121 139.739 78.3582 139.158 88.194 136.361L87.2518 133.037C81.5245 134.658 75.4807 135.525 69.2341 135.525C34.7263 135.525 6.39939 109.046 3.4649 75.2902Z M96.1297 129.818L97.5389 132.979C108.227 128.211 117.55 120.818 124.618 111.493C131.686 102.168 136.296 91.1959 137.994 79.6145L134.569 79.1109C131.257 101.817 116.391 120.771 96.1297 129.818Z M135.226 71.7721L138.697 71.8914C138.9 66.061 138.361 60.2374 137.109 54.5452L133.732 55.2895C134.735 59.865 135.264 64.6183 135.264 69.4949C135.264 70.2571 135.251 71.0162 135.226 71.7721Z " /><path id="圆形 1" fill-rule="evenodd" fill="url(#linear_3)" transform="translate(24.194185575241885 24.326298652613563)  rotate(0 45.17423113752993 45.17423113752993)" opacity="1" d="M45.17,90.35C70.12,90.35 90.35,70.12 90.35,45.17C90.35,20.23 70.12,0 45.17,0C20.23,0 0,20.23 0,45.17C0,70.12 20.23,90.35 45.17,90.35Z " /><g id="圆形 2" filter="url(#filter_43)"><path id="圆形 2" fill-rule="evenodd" style="fill:#16202E" transform="translate(24.06378515335221 24.32801130809563)  rotate(0 45.17423113752993 45.17251848204787)" opacity="0.57" d="M45.17,90.35C70.12,90.35 90.35,70.12 90.35,45.17C90.35,20.22 70.12,0 45.17,0C20.23,0 0,20.22 0,45.17C0,70.12 20.23,90.35 45.17,90.35Z " /><path  id="圆形 2" style="stroke:#21292B; stroke-width:3.4839249999999993; stroke-opacity:1; stroke-dasharray:0 0" transform="translate(24.06378515335221 24.32801130809563)  rotate(0 45.17423113752993 45.17251848204787)" d="M45.17,90.35C70.12,90.35 90.35,70.12 90.35,45.17C90.35,20.22 70.12,0 45.17,0C20.23,0 0,20.22 0,45.17C0,70.12 20.23,90.35 45.17,90.35Z " /></g><path id="三角形 1" fill-rule="evenodd" style="fill:#45DBFF" transform="translate(32.29944446079481 43.888453543553325)  rotate(-57 2.084964514039843 2.084964514039843)" opacity="1" d="M0.28,3.13L3.89,3.13L2.08,0L0.28,3.13Z " /></g><path id="减去顶层" fill-rule="evenodd" style="fill:#45DBFF" transform="translate(0 9.729834398852601)  rotate(0 19.766158581269067 27.284714365939568)" opacity="0.5" d="M0,53.54L11.9,54.57C13.51,35.73 24.18,19.47 39.53,10.17L33.41,0C24.02,5.65 16.09,13.45 10.28,22.75C4.47,32.06 0.95,42.61 0,53.54Z " /><path id="减去顶层" fill-rule="evenodd" style="fill:#45DBFF" transform="translate(0 9.729834398852601)  rotate(0 17.598837968924656 26.917969107919966)" opacity="1" d="M3.46,53.84C5.31,32.23 17.57,13.59 35.2,2.97L33.41,0C24.02,5.65 16.09,13.45 10.28,22.75C4.47,32.06 0.95,42.61 0,53.54L3.46,53.84Z " /></g><g id="文本 1" filter="url(#filter_50)"><g opacity="1" transform="translate(39.57776736032284 58.443958528901454)  rotate(0 33 10)"><text><tspan x="0" y="17.98629387445038" font-size="25.019574168478115" line-height="19.459668797705202" fill="#45DBFF" opacity="1" font-family="PangMenZhengDao" letter-spacing="0" >2730</tspan></text></g></g><g id="文本 1" filter="url(#filter_52)"><g opacity="1" transform="translate(53.9015813487559 79.29360366929986)  rotate(0 19.5 10)"><text><tspan x="0" y="15.234140715917787" font-size="16.679716112318744" line-height="19.459668797705202" fill="#FFFFFF" opacity="1" font-family="PangMenZhengDao" letter-spacing="0" >80%</tspan></text></g></g></g><g opacity="1" transform="translate(71 373)  rotate(0 232.5 181)"><text><tspan x="0" y="13.92" font-size="12" line-height="0" fill="#FFFFFF" opacity="1" font-family="SourceHanSansCN-Regular" letter-spacing="0" ></tspan></text></g></g></svg>